<?xml version="1.0" encoding="utf-8"?>
<!-- Generator: Adobe Illustrator 26.0.0, SVG Export Plug-In . SVG Version: 6.00 Build 0)  -->
<svg version="1.1" id="Capa_1" xmlns="http://www.w3.org/2000/svg" xmlns:xlink="http://www.w3.org/1999/xlink" x="0px" y="0px"
	 viewBox="0 0 91.1 85.8" style="enable-background:new 0 0 91.1 85.8;" xml:space="preserve">
<style type="text/css">
	.st0{fill:#4CB8AB;}
	.st1{fill:#2D3D80;}
	.st2{fill:#FCC83D;}
	.st3{fill:#FDC93E;}
	.st4{fill:#2E3D82;}
	.st5{fill:#FFFFFF;}
</style>
<g>
	<g>
		<g>
			<g>
				<path class="st0" d="M17.3,66.2v-8.5h2.7c0.8,0,1.4,0.2,2,0.5s1.1,0.8,1.4,1.4s0.5,1.3,0.5,2.1v0.4c0,0.8-0.2,1.5-0.5,2.1
					s-0.8,1.1-1.4,1.5s-1.3,0.5-2,0.5H17.3z M19.4,59.2v5.4h0.7c0.6,0,1-0.2,1.4-0.6s0.5-1,0.5-1.9v-0.4c0-0.8-0.2-1.4-0.5-1.9
					s-0.8-0.6-1.4-0.6H19.4z"/>
				<path class="st0" d="M28.6,66.2c-0.1-0.1-0.1-0.3-0.2-0.6c-0.4,0.5-0.9,0.7-1.5,0.7c-0.6,0-1.1-0.2-1.5-0.5s-0.6-0.8-0.6-1.4
					c0-0.7,0.3-1.2,0.8-1.6s1.2-0.5,2.2-0.5h0.6V62c0-0.6-0.3-0.9-0.8-0.9c-0.5,0-0.7,0.2-0.7,0.7h-2c0-0.6,0.3-1.1,0.8-1.5
					c0.5-0.4,1.2-0.6,2-0.6s1.4,0.2,1.9,0.6s0.7,0.9,0.7,1.6v2.8c0,0.6,0.1,1,0.3,1.3v0.1H28.6z M27.3,64.9c0.2,0,0.5-0.1,0.6-0.2
					s0.3-0.2,0.3-0.4v-1h-0.6c-0.7,0-1,0.3-1,0.9c0,0.2,0.1,0.3,0.2,0.4S27.1,64.9,27.3,64.9z"/>
				<path class="st0" d="M34.7,64.4c0-0.2-0.1-0.3-0.3-0.4s-0.5-0.2-1-0.3s-0.9-0.3-1.2-0.4s-0.6-0.4-0.7-0.6s-0.3-0.5-0.3-0.9
					c0-0.6,0.2-1.1,0.7-1.4s1.1-0.6,1.9-0.6c0.8,0,1.5,0.2,2,0.6s0.8,0.9,0.8,1.5h-2c0-0.5-0.3-0.8-0.8-0.8c-0.2,0-0.4,0.1-0.5,0.2
					s-0.2,0.3-0.2,0.4c0,0.2,0.1,0.3,0.3,0.4s0.4,0.2,0.8,0.3s0.7,0.2,1,0.3c1,0.3,1.4,0.9,1.4,1.8c0,0.6-0.3,1-0.8,1.4
					s-1.2,0.5-2,0.5c-0.5,0-1-0.1-1.5-0.3s-0.8-0.5-1-0.8S31,64.5,31,64.2h1.8c0,0.3,0.1,0.5,0.3,0.6s0.4,0.2,0.7,0.2
					c0.3,0,0.5-0.1,0.6-0.2S34.7,64.6,34.7,64.4z"/>
				<path class="st0" d="M39.4,60.5c0.4-0.5,1-0.8,1.6-0.8c0.7,0,1.2,0.2,1.6,0.6s0.5,1,0.5,1.8v4h-2v-4c0-0.3-0.1-0.6-0.2-0.7
					s-0.4-0.2-0.7-0.2c-0.4,0-0.7,0.1-0.9,0.4v4.5h-2v-9h2V60.5z"/>
				<path class="st0" d="M50.2,63.1c0,1-0.2,1.8-0.6,2.4s-1,0.8-1.8,0.8c-0.6,0-1.2-0.3-1.6-0.8l-0.1,0.7h-1.8v-9h2v3.2
					c0.4-0.4,0.8-0.6,1.4-0.6c0.8,0,1.4,0.3,1.8,0.8S50.2,61.9,50.2,63.1L50.2,63.1z M48.2,62.9c0-0.6-0.1-1-0.2-1.3
					c-0.2-0.3-0.4-0.4-0.7-0.4c-0.4,0-0.8,0.2-0.9,0.5v2.5c0.2,0.3,0.5,0.5,0.9,0.5c0.5,0,0.8-0.2,0.9-0.7
					C48.2,63.9,48.2,63.5,48.2,62.9z"/>
				<path class="st0" d="M50.8,63c0-0.6,0.1-1.2,0.4-1.7s0.6-0.9,1.1-1.1s1-0.4,1.6-0.4c0.9,0,1.7,0.3,2.2,0.9s0.8,1.4,0.8,2.4v0.1
					c0,1-0.3,1.8-0.8,2.4s-1.3,0.9-2.2,0.9c-0.9,0-1.6-0.3-2.2-0.8s-0.8-1.3-0.9-2.2L50.8,63z M52.8,63.1c0,0.6,0.1,1,0.3,1.3
					s0.5,0.4,0.8,0.4c0.7,0,1.1-0.5,1.1-1.6V63c0-1.1-0.4-1.7-1.1-1.7c-0.7,0-1,0.5-1.1,1.5L52.8,63.1z"/>
				<path class="st0" d="M61.4,66.2c-0.1-0.1-0.1-0.3-0.2-0.6c-0.4,0.5-0.9,0.7-1.5,0.7c-0.6,0-1.1-0.2-1.5-0.5s-0.6-0.8-0.6-1.4
					c0-0.7,0.3-1.2,0.8-1.6s1.2-0.5,2.2-0.5h0.6V62c0-0.6-0.3-0.9-0.8-0.9c-0.5,0-0.7,0.2-0.7,0.7h-2c0-0.6,0.3-1.1,0.8-1.5
					c0.5-0.4,1.2-0.6,2-0.6s1.4,0.2,1.9,0.6s0.7,0.9,0.7,1.6v2.8c0,0.6,0.1,1,0.3,1.3v0.1H61.4z M60.1,64.9c0.2,0,0.5-0.1,0.6-0.2
					s0.3-0.2,0.3-0.4v-1h-0.6c-0.7,0-1,0.3-1,0.9c0,0.2,0.1,0.3,0.2,0.4S59.9,64.9,60.1,64.9z"/>
				<path class="st0" d="M68,61.6l-0.7,0c-0.6,0-1,0.2-1.2,0.6v4h-2v-6.3H66l0.1,0.8c0.3-0.6,0.8-0.9,1.4-0.9c0.2,0,0.4,0,0.6,0.1
					L68,61.6z"/>
				<path class="st0" d="M68.3,63c0-1,0.2-1.8,0.7-2.4s1-0.9,1.8-0.9c0.6,0,1,0.2,1.4,0.7v-3.2h2v9h-1.8l-0.1-0.7
					c-0.4,0.5-0.9,0.8-1.5,0.8c-0.8,0-1.4-0.3-1.8-0.9S68.3,64,68.3,63z M70.3,63.1c0,1.1,0.3,1.7,1,1.7c0.4,0,0.8-0.2,0.9-0.6v-2.4
					c-0.2-0.4-0.5-0.6-0.9-0.6c-0.6,0-0.9,0.5-1,1.5L70.3,63.1z"/>
			</g>
		</g>
		<g>
			<path class="st1" d="M5.1,75.8V78H4.4v-5.5h2c0.6,0,1.1,0.2,1.4,0.5c0.3,0.3,0.5,0.7,0.5,1.2c0,0.5-0.2,0.9-0.5,1.2
				c-0.3,0.3-0.8,0.4-1.4,0.4H5.1z M5.1,75.2h1.3c0.4,0,0.7-0.1,0.9-0.3c0.2-0.2,0.3-0.4,0.3-0.8c0-0.3-0.1-0.6-0.3-0.8
				c-0.2-0.2-0.5-0.3-0.9-0.3H5.1V75.2z"/>
			<path class="st1" d="M11.7,78c0-0.1-0.1-0.2-0.1-0.4c-0.3,0.3-0.7,0.5-1.2,0.5c-0.4,0-0.7-0.1-1-0.3C9.2,77.5,9,77.2,9,76.8
				c0-0.4,0.2-0.8,0.5-1c0.3-0.2,0.8-0.4,1.4-0.4h0.7v-0.3c0-0.2-0.1-0.4-0.2-0.6c-0.1-0.1-0.4-0.2-0.6-0.2c-0.3,0-0.5,0.1-0.6,0.2
				c-0.2,0.1-0.3,0.3-0.3,0.5H9.1c0-0.2,0.1-0.4,0.2-0.6c0.1-0.2,0.3-0.3,0.6-0.5s0.5-0.2,0.8-0.2c0.5,0,0.8,0.1,1.1,0.4
				c0.3,0.2,0.4,0.6,0.4,1V77c0,0.4,0,0.7,0.1,0.9V78H11.7z M10.5,77.4c0.2,0,0.4-0.1,0.6-0.2c0.2-0.1,0.3-0.3,0.4-0.4V76H11
				c-0.9,0-1.3,0.3-1.3,0.8c0,0.2,0.1,0.4,0.2,0.5C10.1,77.4,10.3,77.4,10.5,77.4z"/>
			<path class="st1" d="M14,73.9l0,0.5c0.3-0.4,0.7-0.6,1.2-0.6c0.9,0,1.3,0.5,1.3,1.5V78h-0.7v-2.7c0-0.3-0.1-0.5-0.2-0.7
				s-0.3-0.2-0.6-0.2c-0.2,0-0.4,0.1-0.6,0.2c-0.2,0.1-0.3,0.3-0.4,0.5V78h-0.7v-4.1H14z"/>
			<path class="st1" d="M19.4,78.1c-0.6,0-1-0.2-1.4-0.5c-0.3-0.4-0.5-0.9-0.5-1.5v-0.1c0-0.4,0.1-0.8,0.2-1.1
				c0.2-0.3,0.4-0.6,0.7-0.8c0.3-0.2,0.6-0.3,0.9-0.3c0.5,0,0.9,0.2,1.2,0.5c0.3,0.4,0.4,0.9,0.4,1.5v0.3h-2.8c0,0.4,0.1,0.7,0.4,1
				s0.5,0.4,0.9,0.4c0.2,0,0.5-0.1,0.6-0.2c0.2-0.1,0.3-0.2,0.5-0.4l0.4,0.3C20.6,77.8,20,78.1,19.4,78.1z M19.3,74.4
				c-0.3,0-0.5,0.1-0.7,0.3c-0.2,0.2-0.3,0.5-0.4,0.9h2.1v-0.1c0-0.4-0.1-0.6-0.3-0.8C19.8,74.5,19.6,74.4,19.3,74.4z"/>
			<path class="st1" d="M22.5,78h-0.7v-5.8h0.7V78z"/>
			<path class="st1" d="M25.4,75.9c0-0.6,0.1-1.1,0.4-1.5c0.3-0.4,0.7-0.6,1.2-0.6c0.5,0,0.9,0.2,1.1,0.5v-2.1h0.7V78h-0.6l0-0.4
				c-0.3,0.3-0.7,0.5-1.2,0.5c-0.5,0-0.9-0.2-1.2-0.6S25.4,76.6,25.4,75.9L25.4,75.9z M26.1,76c0,0.5,0.1,0.8,0.3,1.1
				c0.2,0.3,0.5,0.4,0.8,0.4c0.4,0,0.8-0.2,1-0.6V75c-0.2-0.4-0.5-0.6-1-0.6c-0.3,0-0.6,0.1-0.8,0.4C26.2,75.1,26.1,75.5,26.1,76z"
				/>
			<path class="st1" d="M31.7,78.1c-0.6,0-1-0.2-1.4-0.5c-0.3-0.4-0.5-0.9-0.5-1.5v-0.1c0-0.4,0.1-0.8,0.2-1.1
				c0.2-0.3,0.4-0.6,0.7-0.8c0.3-0.2,0.6-0.3,0.9-0.3c0.5,0,0.9,0.2,1.2,0.5c0.3,0.4,0.4,0.9,0.4,1.5v0.3h-2.8c0,0.4,0.1,0.7,0.4,1
				s0.5,0.4,0.9,0.4c0.2,0,0.5-0.1,0.6-0.2c0.2-0.1,0.3-0.2,0.5-0.4l0.4,0.3C32.9,77.8,32.4,78.1,31.7,78.1z M31.6,74.4
				c-0.3,0-0.5,0.1-0.7,0.3c-0.2,0.2-0.3,0.5-0.4,0.9h2.1v-0.1c0-0.4-0.1-0.6-0.3-0.8C32.1,74.5,31.9,74.4,31.6,74.4z"/>
			<path class="st1" d="M39.2,76.5h-2.3L36.3,78h-0.8l2.1-5.5h0.6l2.1,5.5h-0.7L39.2,76.5z M37.1,75.9H39L38,73.4L37.1,75.9z"/>
			<path class="st1" d="M40.9,75.9c0-0.6,0.1-1.1,0.4-1.5c0.3-0.4,0.7-0.6,1.2-0.6c0.5,0,0.9,0.2,1.1,0.5v-2.1h0.7V78h-0.6l0-0.4
				c-0.3,0.3-0.7,0.5-1.2,0.5c-0.5,0-0.9-0.2-1.2-0.6S40.9,76.6,40.9,75.9L40.9,75.9z M41.6,76c0,0.5,0.1,0.8,0.3,1.1
				c0.2,0.3,0.5,0.4,0.8,0.4c0.4,0,0.8-0.2,1-0.6V75c-0.2-0.4-0.5-0.6-1-0.6c-0.3,0-0.6,0.1-0.8,0.4C41.7,75.1,41.6,75.5,41.6,76z"
				/>
			<path class="st1" d="M46.1,73.9l0,0.5c0.3-0.4,0.7-0.5,1.2-0.5c0.6,0,1,0.2,1.2,0.7c0.1-0.2,0.3-0.4,0.5-0.5
				c0.2-0.1,0.5-0.2,0.8-0.2c0.9,0,1.4,0.5,1.4,1.4V78h-0.7v-2.7c0-0.3-0.1-0.5-0.2-0.7c-0.1-0.1-0.4-0.2-0.7-0.2
				c-0.3,0-0.5,0.1-0.6,0.2c-0.2,0.2-0.3,0.4-0.3,0.6V78H48v-2.7c0-0.6-0.3-0.9-0.9-0.9c-0.5,0-0.8,0.2-0.9,0.6v3h-0.7v-4.1H46.1z"
				/>
			<path class="st1" d="M52.3,72.8c0-0.1,0-0.2,0.1-0.3c0.1-0.1,0.2-0.1,0.3-0.1s0.2,0,0.3,0.1c0.1,0.1,0.1,0.2,0.1,0.3
				c0,0.1,0,0.2-0.1,0.3c-0.1,0.1-0.2,0.1-0.3,0.1s-0.2,0-0.3-0.1S52.3,72.9,52.3,72.8z M53,78h-0.7v-4.1H53V78z"/>
			<path class="st1" d="M54.8,73.9l0,0.5c0.3-0.4,0.7-0.6,1.2-0.6c0.9,0,1.3,0.5,1.3,1.5V78h-0.7v-2.7c0-0.3-0.1-0.5-0.2-0.7
				s-0.3-0.2-0.6-0.2c-0.2,0-0.4,0.1-0.6,0.2c-0.2,0.1-0.3,0.3-0.4,0.5V78h-0.7v-4.1H54.8z"/>
			<path class="st1" d="M58.4,72.8c0-0.1,0-0.2,0.1-0.3c0.1-0.1,0.2-0.1,0.3-0.1s0.2,0,0.3,0.1c0.1,0.1,0.1,0.2,0.1,0.3
				c0,0.1,0,0.2-0.1,0.3c-0.1,0.1-0.2,0.1-0.3,0.1s-0.2,0-0.3-0.1S58.4,72.9,58.4,72.8z M59.2,78h-0.7v-4.1h0.7V78z"/>
			<path class="st1" d="M62.7,76.9c0-0.2-0.1-0.3-0.2-0.4c-0.1-0.1-0.4-0.2-0.7-0.3c-0.4-0.1-0.6-0.2-0.8-0.3
				c-0.2-0.1-0.4-0.2-0.5-0.4s-0.1-0.3-0.1-0.5c0-0.3,0.1-0.6,0.4-0.9c0.3-0.2,0.6-0.3,1.1-0.3c0.5,0,0.8,0.1,1.1,0.4
				c0.3,0.2,0.4,0.5,0.4,0.9h-0.7c0-0.2-0.1-0.4-0.2-0.5c-0.2-0.1-0.4-0.2-0.6-0.2c-0.3,0-0.5,0.1-0.6,0.2S61,74.8,61,75
				c0,0.2,0.1,0.3,0.2,0.4c0.1,0.1,0.4,0.2,0.7,0.2c0.3,0.1,0.6,0.2,0.9,0.3s0.4,0.2,0.5,0.4c0.1,0.2,0.2,0.3,0.2,0.6
				c0,0.4-0.1,0.7-0.4,0.9c-0.3,0.2-0.7,0.3-1.1,0.3c-0.3,0-0.6-0.1-0.9-0.2c-0.3-0.1-0.5-0.3-0.6-0.5c-0.1-0.2-0.2-0.4-0.2-0.7h0.7
				c0,0.2,0.1,0.4,0.3,0.6s0.4,0.2,0.7,0.2c0.3,0,0.5-0.1,0.6-0.2C62.6,77.2,62.7,77.1,62.7,76.9z"/>
			<path class="st1" d="M65.3,72.9v1h0.8v0.5h-0.8V77c0,0.2,0,0.3,0.1,0.4c0.1,0.1,0.2,0.1,0.3,0.1c0.1,0,0.2,0,0.3,0V78
				c-0.2,0.1-0.4,0.1-0.5,0.1c-0.3,0-0.6-0.1-0.7-0.3c-0.2-0.2-0.2-0.5-0.2-0.8v-2.5h-0.7v-0.5h0.7v-1H65.3z"/>
			<path class="st1" d="M68.9,74.5c-0.1,0-0.2,0-0.3,0c-0.5,0-0.8,0.2-0.9,0.6V78h-0.7v-4.1h0.7l0,0.5c0.2-0.4,0.6-0.5,1-0.5
				c0.1,0,0.2,0,0.3,0.1V74.5z"/>
			<path class="st1" d="M71.9,78c0-0.1-0.1-0.2-0.1-0.4c-0.3,0.3-0.7,0.5-1.2,0.5c-0.4,0-0.7-0.1-1-0.3c-0.3-0.2-0.4-0.5-0.4-0.9
				c0-0.4,0.2-0.8,0.5-1c0.3-0.2,0.8-0.4,1.4-0.4h0.7v-0.3c0-0.2-0.1-0.4-0.2-0.6c-0.1-0.1-0.4-0.2-0.6-0.2c-0.3,0-0.5,0.1-0.6,0.2
				C70.1,74.7,70,74.8,70,75h-0.7c0-0.2,0.1-0.4,0.2-0.6c0.1-0.2,0.3-0.3,0.6-0.5s0.5-0.2,0.8-0.2c0.5,0,0.8,0.1,1.1,0.4
				c0.3,0.2,0.4,0.6,0.4,1V77c0,0.4,0,0.7,0.1,0.9V78H71.9z M70.7,77.4c0.2,0,0.4-0.1,0.6-0.2c0.2-0.1,0.3-0.3,0.4-0.4V76h-0.6
				c-0.9,0-1.3,0.3-1.3,0.8c0,0.2,0.1,0.4,0.2,0.5C70.3,77.4,70.5,77.4,70.7,77.4z"/>
			<path class="st1" d="M75.2,77.5c0.2,0,0.5-0.1,0.7-0.2c0.2-0.2,0.3-0.3,0.3-0.6h0.7c0,0.2-0.1,0.5-0.2,0.7
				c-0.1,0.2-0.3,0.4-0.6,0.5c-0.2,0.1-0.5,0.2-0.8,0.2c-0.6,0-1-0.2-1.3-0.6s-0.5-0.9-0.5-1.5v-0.1c0-0.4,0.1-0.8,0.2-1.1
				c0.1-0.3,0.4-0.6,0.6-0.7s0.6-0.3,1-0.3c0.5,0,0.8,0.1,1.1,0.4c0.3,0.3,0.5,0.6,0.5,1.1h-0.7c0-0.3-0.1-0.5-0.3-0.7
				c-0.2-0.2-0.4-0.3-0.7-0.3c-0.4,0-0.6,0.1-0.8,0.4c-0.2,0.3-0.3,0.6-0.3,1.1V76c0,0.5,0.1,0.8,0.3,1.1
				C74.6,77.4,74.9,77.5,75.2,77.5z"/>
			<path class="st1" d="M77.7,72.8c0-0.1,0-0.2,0.1-0.3c0.1-0.1,0.2-0.1,0.3-0.1s0.2,0,0.3,0.1c0.1,0.1,0.1,0.2,0.1,0.3
				c0,0.1,0,0.2-0.1,0.3c-0.1,0.1-0.2,0.1-0.3,0.1s-0.2,0-0.3-0.1C77.7,73,77.7,72.9,77.7,72.8z M78.4,78h-0.7v-4.1h0.7V78z"/>
			<path class="st1" d="M79.3,75.9c0-0.4,0.1-0.8,0.2-1.1s0.4-0.6,0.7-0.7s0.6-0.3,1-0.3c0.6,0,1,0.2,1.4,0.6
				c0.3,0.4,0.5,0.9,0.5,1.5v0c0,0.4-0.1,0.8-0.2,1.1c-0.2,0.3-0.4,0.6-0.7,0.7c-0.3,0.2-0.6,0.3-1,0.3c-0.6,0-1-0.2-1.4-0.6
				C79.5,77.1,79.3,76.6,79.3,75.9L79.3,75.9z M80.1,76c0,0.5,0.1,0.8,0.3,1.1c0.2,0.3,0.5,0.4,0.8,0.4c0.4,0,0.6-0.1,0.8-0.4
				c0.2-0.3,0.3-0.7,0.3-1.2c0-0.5-0.1-0.8-0.3-1.1c-0.2-0.3-0.5-0.4-0.9-0.4c-0.3,0-0.6,0.1-0.8,0.4C80.2,75.1,80.1,75.5,80.1,76z
				 M81.5,72.2h0.8l-1,1.1l-0.6,0L81.5,72.2z"/>
			<path class="st1" d="M84.6,73.9l0,0.5c0.3-0.4,0.7-0.6,1.2-0.6c0.9,0,1.3,0.5,1.3,1.5V78h-0.7v-2.7c0-0.3-0.1-0.5-0.2-0.7
				s-0.3-0.2-0.6-0.2c-0.2,0-0.4,0.1-0.6,0.2c-0.2,0.1-0.3,0.3-0.4,0.5V78H84v-4.1H84.6z"/>
		</g>
	</g>
	<g>
		<path class="st4" d="M61.3,48.8h-31c-3.3,0-6-2.6-6-5.7V19.7c0-3.1,2.7-5.7,6-5.7h10.6c0.2,0,0.3,0.1,0.5,0.2l5.6,4.6l14.3,0.1
			c3.3,0,6,2.6,6,5.7v18.6C67.3,46.3,64.6,48.8,61.3,48.8z M30.2,15.5c-2.5,0-4.5,1.9-4.5,4.2v23.4c0,2.3,2,4.2,4.5,4.2h31
			c2.5,0,4.5-1.9,4.5-4.2V24.6c0-2.3-2-4.2-4.5-4.2l-14.6-0.1c-0.2,0-0.3-0.1-0.5-0.2l-5.6-4.6H30.2z"/>
	</g>
	<g>
		<path class="st3" d="M36.5,35.9c0,0.2,0.3,0.4,0.5,0.4l0.8-0.1c0.2,0,0.5,0.1,0.6,0.3l1.4,2.4c0.1,0.2,0.1,0.5,0,0.7l-0.5,0.6
			c-0.1,0.2-0.1,0.5,0.1,0.6l1.5,1.1c0.2,0.1,0.5,0.1,0.6-0.1l0.5-0.7c0.1-0.2,0.5-0.3,0.7-0.2l2.3,0.6c0.2,0,0.5,0.3,0.5,0.5
			l0.1,0.8c0,0.2,0.3,0.4,0.5,0.4l1.8-0.2c0.2,0,0.4-0.2,0.4-0.5l-0.1-0.8c0-0.2,0.1-0.5,0.3-0.6l2.4-1.4c0.2-0.1,0.5-0.1,0.7,0
			l0.6,0.5c0.2,0.1,0.5,0.1,0.6-0.1l1.1-1.5c0.1-0.2,0.1-0.5-0.1-0.6l-0.7-0.5c-0.2-0.1-0.3-0.4-0.2-0.7l0.6-2.3
			c0-0.2,0.3-0.5,0.5-0.5l0.9-0.1c0.2,0,0.4-0.2,0.4-0.5L55,31.7c0-0.2-0.2-0.4-0.5-0.4l-0.9,0.1c-0.2,0-0.5-0.1-0.6-0.3l-1.4-2.3
			c-0.1-0.2-0.1-0.5,0-0.7l0.5-0.7c0.1-0.2,0.1-0.5-0.1-0.6l-1.5-1.1c-0.2-0.1-0.5-0.1-0.6,0.1l-0.5,0.7c-0.1,0.2-0.4,0.3-0.7,0.2
			L46.5,26c-0.2,0-0.5-0.3-0.5-0.5l-0.1-0.8c0-0.2-0.3-0.4-0.5-0.4l-1.8,0.2c-0.2,0-0.4,0.2-0.4,0.5l0.1,0.8c0,0.2-0.1,0.5-0.3,0.6
			l-2.3,1.4c-0.2,0.1-0.5,0.1-0.7,0l-0.6-0.5c-0.2-0.1-0.5-0.1-0.6,0.1l-1.1,1.5c-0.1,0.2-0.1,0.5,0.1,0.6l0.7,0.5
			c0.2,0.1,0.3,0.4,0.2,0.7L37.9,33c0,0.2-0.3,0.5-0.5,0.5l-0.8,0.1c-0.2,0-0.4,0.2-0.4,0.5L36.5,35.9z M45.3,30.7
			c1.7-0.2,3.2,1,3.5,2.7c0.2,1.7-1,3.2-2.7,3.5c-1.7,0.2-3.2-1-3.5-2.7C42.5,32.5,43.6,30.9,45.3,30.7z"/>
		<path class="st4" d="M46,44c-0.3,0-0.5-0.1-0.7-0.2c-0.3-0.2-0.4-0.5-0.5-0.8l-0.1-0.7l-2.2-0.6l-0.4,0.6
			c-0.4,0.5-1.2,0.6-1.7,0.2L39,41.4c-0.5-0.4-0.6-1.1-0.2-1.7l0.4-0.5L37.8,37L37.1,37c-0.7,0.1-1.2-0.4-1.3-1v0l-0.2-1.8
			c-0.1-0.6,0.4-1.2,1-1.3l0.7-0.1l0.6-2.2l-0.6-0.4c-0.2-0.2-0.4-0.5-0.5-0.8c0-0.3,0-0.6,0.2-0.9l1.1-1.5c0.4-0.5,1.1-0.6,1.7-0.2
			l0.5,0.4l2.2-1.3l-0.1-0.7c-0.1-0.6,0.4-1.2,1-1.3l1.8-0.2c0.3,0,0.6,0,0.9,0.2c0.3,0.2,0.4,0.5,0.5,0.8l0.1,0.7l2.2,0.6l0.5-0.6
			c0.2-0.2,0.5-0.4,0.8-0.5c0.3,0,0.6,0,0.9,0.2l1.5,1.1c0.5,0.4,0.6,1.1,0.2,1.7l-0.4,0.6l1.3,2.3l0.7-0.1c0.3,0,0.6,0,0.9,0.2
			c0.3,0.2,0.4,0.5,0.5,0.8l0.2,1.8c0.1,0.6-0.4,1.2-1,1.3l-0.7,0.1L53.6,37l0.6,0.5c0.2,0.2,0.4,0.5,0.5,0.8c0,0.3,0,0.6-0.2,0.9
			l-1.1,1.5c-0.4,0.5-1.1,0.6-1.7,0.2l-0.5-0.4l-2.3,1.4l0.1,0.7c0.1,0.6-0.4,1.2-1,1.3L46.1,44C46.1,44,46,44,46,44z M42.5,40.2
			c0.2,0,0.3,0,0.4,0.1l2.2,0.6c0.5,0.1,1,0.6,1,1.1l0.1,0.5l1.2-0.2l-0.1-0.5c-0.1-0.6,0.2-1.1,0.8-1.4l2.3-1.4
			c0.4-0.3,1.1-0.3,1.5,0l0.4,0.3l0.7-1l-0.4-0.3c-0.5-0.3-0.6-1-0.4-1.5l0.6-2.2c0.1-0.5,0.6-1,1.1-1l0.5-0.1l-0.2-1.2l-0.5,0.1
			c-0.6,0.1-1.2-0.2-1.4-0.8L51,29.1c-0.3-0.4-0.3-1.1,0-1.5l0.3-0.4l-1-0.7L50,26.9c-0.3,0.5-1,0.6-1.5,0.4l-2.2-0.6
			c-0.5-0.1-1-0.6-1-1.1l-0.1-0.5L44,25.3l0.1,0.5c0.1,0.6-0.3,1.2-0.8,1.4L41,28.5c-0.4,0.3-1.1,0.3-1.5,0l-0.4-0.3l-0.7,1l0.4,0.3
			c0.5,0.4,0.6,1,0.4,1.5l-0.6,2.3c-0.1,0.5-0.5,1-1.1,1l-0.5,0.1l0.2,1.2l0.5-0.1c0.6-0.1,1.2,0.3,1.4,0.8l1.4,2.3
			c0.3,0.4,0.3,1.1-0.1,1.5l-0.3,0.4l1,0.7l0.3-0.4C41.6,40.4,42.1,40.2,42.5,40.2z M44.8,42.3C44.8,42.3,44.8,42.3,44.8,42.3
			L44.8,42.3z M48.8,41.7L48.8,41.7C48.8,41.7,48.8,41.7,48.8,41.7C48.8,41.7,48.8,41.7,48.8,41.7z M42.5,41.7
			C42.5,41.7,42.5,41.7,42.5,41.7L42.5,41.7L42.5,41.7z M51.3,40.3L51.3,40.3C51.2,40.3,51.3,40.3,51.3,40.3z M39.9,40.2L39.9,40.2
			C39.9,40.2,39.9,40.2,39.9,40.2z M39.2,39.3C39.2,39.3,39.2,39.3,39.2,39.3L39.2,39.3z M53.3,38.6C53.3,38.6,53.3,38.6,53.3,38.6
			L53.3,38.6z M53.3,38.2C53.3,38.2,53.3,38.2,53.3,38.2L53.3,38.2z M53.6,37L53.6,37C53.6,37,53.6,37,53.6,37z M37.8,36.9
			C37.8,36.9,37.8,36.9,37.8,36.9L37.8,36.9z M53.6,36.9L53.6,36.9C53.6,36.9,53.6,36.9,53.6,36.9z M54.2,34.7L54.2,34.7
			C54.2,34.7,54.2,34.7,54.2,34.7z M37.2,32.9C37.2,32.9,37.2,32.9,37.2,32.9L37.2,32.9z M53.6,30.7L53.6,30.7
			C53.7,30.7,53.6,30.7,53.6,30.7z M37.8,30.5C37.8,30.5,37.8,30.5,37.8,30.5L37.8,30.5z M38.2,29.4L38.2,29.4
			C38.2,29.4,38.2,29.4,38.2,29.4z M38.1,28.9L38.1,28.9C38.1,28.9,38.1,28.9,38.1,28.9z M52.2,28.2L52.2,28.2
			C52.2,28.3,52.2,28.3,52.2,28.2z M40.2,27.2C40.2,27.2,40.2,27.2,40.2,27.2L40.2,27.2z M50.1,26.2C50.1,26.2,50.1,26.2,50.1,26.2
			L50.1,26.2z M50.6,26.2L50.6,26.2C50.6,26.2,50.6,26.2,50.6,26.2z M48.9,26L48.9,26L48.9,26z M49,25.9L49,25.9
			C49,25.9,49,25.9,49,25.9z M42.6,25.8C42.6,25.8,42.6,25.8,42.6,25.8L42.6,25.8C42.6,25.8,42.6,25.8,42.6,25.8z M46.7,25.4
			L46.7,25.4C46.7,25.4,46.7,25.4,46.7,25.4z M46.6,25.3L46.6,25.3C46.6,25.3,46.6,25.3,46.6,25.3z M45.7,37.6
			c-1.9,0-3.5-1.4-3.8-3.3c-0.1-1,0.1-2,0.8-2.8s1.5-1.3,2.5-1.5l0,0c2.1-0.3,4,1.2,4.3,3.3c0.1,1-0.1,2-0.8,2.8s-1.5,1.3-2.5,1.5
			C46.1,37.6,45.9,37.6,45.7,37.6z M45.7,31.4c-0.1,0-0.2,0-0.3,0h0c-0.6,0.1-1.2,0.4-1.5,0.9c-0.4,0.5-0.5,1.1-0.5,1.7
			c0.2,1.3,1.3,2.2,2.6,2c0.6-0.1,1.2-0.4,1.5-0.9c0.4-0.5,0.5-1.1,0.5-1.7C47.9,32.3,46.9,31.4,45.7,31.4z M45.3,30.7L45.3,30.7
			L45.3,30.7z"/>
	</g>
</g>
</svg>
