<?xml version="1.0" encoding="utf-8"?>
<!-- Generator: Adobe Illustrator 26.0.0, SVG Export Plug-In . SVG Version: 6.00 Build 0)  -->
<svg version="1.1" id="Capa_1" xmlns="http://www.w3.org/2000/svg" xmlns:xlink="http://www.w3.org/1999/xlink" x="0px" y="0px"
	 viewBox="0 0 91.1 85.8" style="enable-background:new 0 0 91.1 85.8;" xml:space="preserve">
<style type="text/css">
	.st0{fill:#4CB8AB;}
	.st1{fill:#2D3D80;}
	.st2{fill:#FCC83D;}
	.st3{fill:#FDC93E;}
	.st4{fill:#2E3D82;}
	.st5{fill:#FFFFFF;}
</style>
<g>
	<g>
		<g>
			<path class="st3" d="M47.4,39c-0.1,0-0.2,0-0.2,0c-0.2-0.1-0.4-0.2-0.5-0.5c-0.3-0.9,0.8-4.3,1.3-4.8l13.6-14.6
				c1-1.1,2.8-1.2,3.9-0.1c0.5,0.5,0.9,1.2,0.9,1.9c0,0.7-0.2,1.5-0.7,2L52,37.5C51.1,38.5,48.3,39,47.4,39z M48.4,34.2L48.4,34.2
				L48.4,34.2z"/>
		</g>
	</g>
	<g>
		<g>
			<g>
				<path class="st0" d="M10.2,63H6.9v3.4H4.8v-8.5h5.7v1.6H6.9v2h3.3V63z"/>
				<path class="st0" d="M10.9,63.2c0-0.6,0.1-1.2,0.4-1.7s0.6-0.9,1.1-1.1s1-0.4,1.6-0.4c0.9,0,1.7,0.3,2.2,0.9
					c0.5,0.6,0.8,1.4,0.8,2.4v0.1c0,1-0.3,1.8-0.8,2.4c-0.5,0.6-1.3,0.9-2.2,0.9c-0.9,0-1.6-0.3-2.2-0.8s-0.8-1.3-0.9-2.2L10.9,63.2
					z M12.9,63.3c0,0.6,0.1,1,0.3,1.3S13.6,65,14,65c0.7,0,1.1-0.5,1.1-1.6v-0.2c0-1.1-0.4-1.7-1.1-1.7c-0.7,0-1,0.5-1.1,1.5
					L12.9,63.3z"/>
				<path class="st0" d="M19.7,60.1l0.1,0.7c0.4-0.6,1-0.9,1.8-0.9c0.7,0,1.2,0.2,1.5,0.6s0.5,1,0.5,1.8v4.1h-2v-4
					c0-0.3-0.1-0.6-0.2-0.7s-0.4-0.2-0.7-0.2c-0.4,0-0.7,0.2-0.9,0.5v4.5h-2v-6.3H19.7z"/>
				<path class="st0" d="M24.4,63.2c0-1,0.2-1.8,0.7-2.4s1-0.9,1.8-0.9c0.6,0,1,0.2,1.4,0.7v-3.2h2v9h-1.8l-0.1-0.7
					c-0.4,0.5-0.9,0.8-1.5,0.8c-0.8,0-1.4-0.3-1.8-0.9S24.4,64.3,24.4,63.2z M26.4,63.3c0,1.1,0.3,1.7,1,1.7c0.4,0,0.8-0.2,0.9-0.6
					v-2.4c-0.2-0.4-0.5-0.6-0.9-0.6c-0.6,0-0.9,0.5-1,1.5L26.4,63.3z"/>
				<path class="st0" d="M31.2,63.2c0-0.6,0.1-1.2,0.4-1.7s0.6-0.9,1.1-1.1s1-0.4,1.6-0.4c0.9,0,1.7,0.3,2.2,0.9s0.8,1.4,0.8,2.4
					v0.1c0,1-0.3,1.8-0.8,2.4s-1.3,0.9-2.2,0.9c-0.9,0-1.6-0.3-2.2-0.8s-0.8-1.3-0.9-2.2L31.2,63.2z M33.1,63.3c0,0.6,0.1,1,0.3,1.3
					s0.5,0.4,0.8,0.4c0.7,0,1.1-0.5,1.1-1.6v-0.2c0-1.1-0.4-1.7-1.1-1.7c-0.7,0-1,0.5-1.1,1.5L33.1,63.3z"/>
				<path class="st0" d="M45,61.9l-0.7,0c-0.6,0-1,0.2-1.2,0.6v4h-2v-6.3H43l0.1,0.8c0.3-0.6,0.8-0.9,1.4-0.9c0.2,0,0.4,0,0.6,0.1
					L45,61.9z"/>
				<path class="st0" d="M45.2,63.2c0-0.6,0.1-1.2,0.4-1.7s0.6-0.9,1.1-1.1s1-0.4,1.6-0.4c0.9,0,1.7,0.3,2.2,0.9s0.8,1.4,0.8,2.4
					v0.1c0,1-0.3,1.8-0.8,2.4s-1.3,0.9-2.2,0.9c-0.9,0-1.6-0.3-2.2-0.8s-0.8-1.3-0.9-2.2L45.2,63.2z M47.2,63.3c0,0.6,0.1,1,0.3,1.3
					s0.5,0.4,0.8,0.4c0.7,0,1.1-0.5,1.1-1.6v-0.2c0-1.1-0.4-1.7-1.1-1.7c-0.7,0-1,0.5-1.1,1.5L47.2,63.3z"/>
				<path class="st0" d="M54.5,58.5v1.6h1v1.4h-1v2.9c0,0.2,0,0.4,0.1,0.5s0.3,0.1,0.5,0.1c0.2,0,0.4,0,0.5,0v1.4
					c-0.4,0.1-0.7,0.2-1.1,0.2c-0.7,0-1.2-0.2-1.5-0.5s-0.5-0.8-0.5-1.5v-3.1h-0.8v-1.4h0.8v-1.6H54.5z"/>
				<path class="st0" d="M59.9,66.4c-0.1-0.1-0.1-0.3-0.2-0.6c-0.4,0.5-0.9,0.7-1.5,0.7c-0.6,0-1.1-0.2-1.5-0.5S56,65.2,56,64.6
					c0-0.7,0.3-1.2,0.8-1.6s1.2-0.5,2.2-0.5h0.6v-0.3c0-0.6-0.3-0.9-0.8-0.9c-0.5,0-0.7,0.2-0.7,0.7h-2c0-0.6,0.3-1.1,0.8-1.5
					c0.5-0.4,1.2-0.6,2-0.6s1.4,0.2,1.9,0.6s0.7,0.9,0.7,1.6V65c0,0.6,0.1,1,0.3,1.3v0.1H59.9z M58.7,65.1c0.2,0,0.5-0.1,0.6-0.2
					s0.3-0.2,0.3-0.4v-1h-0.6c-0.7,0-1,0.3-1,0.9c0,0.2,0.1,0.3,0.2,0.4S58.5,65.1,58.7,65.1z"/>
				<path class="st0" d="M65,58.5v1.6h1v1.4h-1v2.9c0,0.2,0,0.4,0.1,0.5s0.3,0.1,0.5,0.1c0.2,0,0.4,0,0.5,0v1.4
					c-0.4,0.1-0.7,0.2-1.1,0.2c-0.7,0-1.2-0.2-1.5-0.5S63,65.3,63,64.6v-3.1h-0.8v-1.4H63v-1.6H65z"/>
				<path class="st0" d="M66.4,63.2c0-0.6,0.1-1.2,0.4-1.7s0.6-0.9,1.1-1.1s1-0.4,1.6-0.4c0.9,0,1.7,0.3,2.2,0.9s0.8,1.4,0.8,2.4
					v0.1c0,1-0.3,1.8-0.8,2.4s-1.3,0.9-2.2,0.9c-0.9,0-1.6-0.3-2.2-0.8s-0.8-1.3-0.9-2.2L66.4,63.2z M68.4,63.3c0,0.6,0.1,1,0.3,1.3
					s0.5,0.4,0.8,0.4c0.7,0,1.1-0.5,1.1-1.6v-0.2c0-1.1-0.4-1.7-1.1-1.7c-0.7,0-1,0.5-1.1,1.5L68.4,63.3z"/>
				<path class="st0" d="M77.2,61.9l-0.7,0c-0.6,0-1,0.2-1.2,0.6v4h-2v-6.3h1.9l0.1,0.8c0.3-0.6,0.8-0.9,1.4-0.9
					c0.2,0,0.4,0,0.6,0.1L77.2,61.9z"/>
				<path class="st0" d="M77.9,58.5c0-0.3,0.1-0.5,0.3-0.7s0.5-0.3,0.8-0.3s0.6,0.1,0.8,0.3s0.3,0.4,0.3,0.7S80,59,79.8,59.2
					s-0.5,0.3-0.8,0.3s-0.6-0.1-0.8-0.3S77.9,58.7,77.9,58.5z M80,66.4h-2v-6.3h2V66.4z"/>
				<path class="st0" d="M81,63.2c0-0.6,0.1-1.2,0.4-1.7s0.6-0.9,1.1-1.1s1-0.4,1.6-0.4c0.9,0,1.7,0.3,2.2,0.9s0.8,1.4,0.8,2.4v0.1
					c0,1-0.3,1.8-0.8,2.4S85,66.6,84,66.6c-0.9,0-1.6-0.3-2.2-0.8S81,64.5,81,63.5L81,63.2z M83,63.3c0,0.6,0.1,1,0.3,1.3
					S83.7,65,84,65c0.7,0,1.1-0.5,1.1-1.6v-0.2c0-1.1-0.4-1.7-1.1-1.7c-0.7,0-1,0.5-1.1,1.5L83,63.3z"/>
			</g>
		</g>
		<g>
			<path class="st1" d="M8.2,76.1v2.2H7.5v-5.5h2c0.6,0,1.1,0.2,1.4,0.5c0.3,0.3,0.5,0.7,0.5,1.2c0,0.5-0.2,0.9-0.5,1.2
				c-0.3,0.3-0.8,0.4-1.4,0.4H8.2z M8.2,75.5h1.3c0.4,0,0.7-0.1,0.9-0.3s0.3-0.4,0.3-0.8c0-0.3-0.1-0.6-0.3-0.8
				c-0.2-0.2-0.5-0.3-0.9-0.3H8.2V75.5z"/>
			<path class="st1" d="M14,78.3c-0.6,0-1-0.2-1.4-0.5c-0.3-0.4-0.5-0.9-0.5-1.5v-0.1c0-0.4,0.1-0.8,0.2-1.1s0.4-0.6,0.7-0.8
				c0.3-0.2,0.6-0.3,0.9-0.3c0.5,0,0.9,0.2,1.2,0.5c0.3,0.4,0.4,0.9,0.4,1.5v0.3h-2.8c0,0.4,0.1,0.7,0.4,1s0.5,0.4,0.9,0.4
				c0.2,0,0.5-0.1,0.6-0.2c0.2-0.1,0.3-0.2,0.5-0.4l0.4,0.3C15.2,78,14.6,78.3,14,78.3z M13.9,74.6c-0.3,0-0.5,0.1-0.7,0.3
				c-0.2,0.2-0.3,0.5-0.4,0.9h2.1v-0.1c0-0.4-0.1-0.6-0.3-0.8S14.2,74.6,13.9,74.6z"/>
			<path class="st1" d="M16.2,76.1c0-0.6,0.1-1.1,0.4-1.5c0.3-0.4,0.7-0.6,1.2-0.6c0.5,0,0.9,0.2,1.1,0.5v-2.1h0.7v5.8H19l0-0.4
				c-0.3,0.3-0.7,0.5-1.2,0.5c-0.5,0-0.9-0.2-1.2-0.6S16.2,76.8,16.2,76.1L16.2,76.1z M16.9,76.2c0,0.5,0.1,0.8,0.3,1.1
				c0.2,0.3,0.5,0.4,0.8,0.4c0.4,0,0.8-0.2,1-0.6v-1.9c-0.2-0.4-0.5-0.6-1-0.6c-0.3,0-0.6,0.1-0.8,0.4C17,75.3,16.9,75.7,16.9,76.2z
				"/>
			<path class="st1" d="M20.8,73c0-0.1,0-0.2,0.1-0.3c0.1-0.1,0.2-0.1,0.3-0.1s0.2,0,0.3,0.1c0.1,0.1,0.1,0.2,0.1,0.3
				c0,0.1,0,0.2-0.1,0.3c-0.1,0.1-0.2,0.1-0.3,0.1s-0.2,0-0.3-0.1S20.8,73.1,20.8,73z M21.5,78.2h-0.7v-4.1h0.7V78.2z"/>
			<path class="st1" d="M22.5,76.1c0-0.6,0.1-1.1,0.4-1.5c0.3-0.4,0.7-0.6,1.2-0.6c0.5,0,0.9,0.2,1.1,0.5v-2.1h0.7v5.8h-0.6l0-0.4
				c-0.3,0.3-0.7,0.5-1.2,0.5c-0.5,0-0.9-0.2-1.2-0.6S22.5,76.8,22.5,76.1L22.5,76.1z M23.2,76.2c0,0.5,0.1,0.8,0.3,1.1
				c0.2,0.3,0.5,0.4,0.8,0.4c0.4,0,0.8-0.2,1-0.6v-1.9c-0.2-0.4-0.5-0.6-1-0.6c-0.3,0-0.6,0.1-0.8,0.4S23.2,75.7,23.2,76.2z"/>
			<path class="st1" d="M26.8,76.1c0-0.4,0.1-0.8,0.2-1.1s0.4-0.6,0.7-0.7s0.6-0.3,1-0.3c0.6,0,1,0.2,1.4,0.6
				c0.3,0.4,0.5,0.9,0.5,1.5v0c0,0.4-0.1,0.8-0.2,1.1c-0.2,0.3-0.4,0.6-0.7,0.7c-0.3,0.2-0.6,0.3-1,0.3c-0.6,0-1-0.2-1.4-0.6
				C27,77.3,26.8,76.8,26.8,76.1L26.8,76.1z M27.5,76.2c0,0.5,0.1,0.8,0.3,1.1c0.2,0.3,0.5,0.4,0.8,0.4c0.4,0,0.6-0.1,0.8-0.4
				c0.2-0.3,0.3-0.7,0.3-1.2c0-0.5-0.1-0.8-0.3-1.1c-0.2-0.3-0.5-0.4-0.9-0.4c-0.3,0-0.6,0.1-0.8,0.4C27.7,75.3,27.5,75.7,27.5,76.2
				z"/>
			<path class="st1" d="M33.8,77.1c0-0.2-0.1-0.3-0.2-0.4c-0.1-0.1-0.4-0.2-0.7-0.3c-0.4-0.1-0.6-0.2-0.8-0.3
				c-0.2-0.1-0.4-0.2-0.5-0.4c-0.1-0.1-0.2-0.3-0.2-0.5c0-0.3,0.1-0.6,0.4-0.9c0.3-0.2,0.6-0.3,1.1-0.3c0.5,0,0.8,0.1,1.1,0.4
				c0.3,0.2,0.4,0.5,0.4,0.9h-0.7c0-0.2-0.1-0.4-0.2-0.5c-0.2-0.1-0.4-0.2-0.6-0.2c-0.3,0-0.5,0.1-0.6,0.2c-0.1,0.1-0.2,0.3-0.2,0.4
				c0,0.2,0.1,0.3,0.2,0.4s0.4,0.2,0.7,0.2c0.4,0.1,0.6,0.2,0.9,0.3c0.2,0.1,0.4,0.2,0.5,0.4c0.1,0.2,0.2,0.3,0.2,0.6
				c0,0.4-0.1,0.7-0.4,0.9c-0.3,0.2-0.7,0.3-1.1,0.3c-0.3,0-0.6-0.1-0.9-0.2s-0.5-0.3-0.6-0.5c-0.1-0.2-0.2-0.4-0.2-0.7H32
				c0,0.2,0.1,0.4,0.3,0.6s0.4,0.2,0.7,0.2c0.3,0,0.5-0.1,0.6-0.2C33.8,77.5,33.8,77.3,33.8,77.1z"/>
			<path class="st1" d="M38.7,77.2l1-3.1h0.8l-1.7,4.7c-0.3,0.7-0.7,1-1.2,1l-0.1,0l-0.3,0v-0.6l0.2,0c0.2,0,0.4,0,0.6-0.1
				c0.1-0.1,0.2-0.3,0.3-0.5l0.2-0.4l-1.5-4.1h0.8L38.7,77.2z"/>
			<path class="st1" d="M45.1,76h-1.3v2.2h-0.7v-5.5h1.8c0.6,0,1.1,0.1,1.4,0.4s0.5,0.7,0.5,1.2c0,0.3-0.1,0.6-0.3,0.9
				c-0.2,0.3-0.4,0.4-0.8,0.6l1.3,2.3v0h-0.8L45.1,76z M43.8,75.4h1.1c0.4,0,0.6-0.1,0.9-0.3s0.3-0.4,0.3-0.8c0-0.3-0.1-0.6-0.3-0.8
				c-0.2-0.2-0.5-0.3-0.9-0.3h-1.1V75.4z"/>
			<path class="st1" d="M49.5,78.3c-0.6,0-1-0.2-1.4-0.5c-0.3-0.4-0.5-0.9-0.5-1.5v-0.1c0-0.4,0.1-0.8,0.2-1.1
				c0.2-0.3,0.4-0.6,0.7-0.8s0.6-0.3,0.9-0.3c0.5,0,0.9,0.2,1.2,0.5s0.4,0.9,0.4,1.5v0.3h-2.8c0,0.4,0.1,0.7,0.4,1s0.5,0.4,0.9,0.4
				c0.2,0,0.5-0.1,0.6-0.2c0.2-0.1,0.3-0.2,0.5-0.4l0.4,0.3C50.7,78,50.2,78.3,49.5,78.3z M49.4,74.6c-0.3,0-0.5,0.1-0.7,0.3
				s-0.3,0.5-0.4,0.9h2.1v-0.1c0-0.4-0.1-0.6-0.3-0.8C49.9,74.7,49.7,74.6,49.4,74.6z"/>
			<path class="st1" d="M52.6,74.1l0,0.5c0.3-0.4,0.7-0.6,1.2-0.6c0.9,0,1.3,0.5,1.3,1.5v2.7h-0.7v-2.7c0-0.3-0.1-0.5-0.2-0.7
				s-0.3-0.2-0.6-0.2c-0.2,0-0.4,0.1-0.6,0.2c-0.2,0.1-0.3,0.3-0.4,0.5v2.9h-0.7v-4.1H52.6z"/>
			<path class="st1" d="M56,76.1c0-0.6,0.1-1.1,0.4-1.5c0.3-0.4,0.7-0.6,1.2-0.6c0.5,0,0.9,0.2,1.1,0.5v-2.1h0.7v5.8h-0.6l0-0.4
				c-0.3,0.3-0.7,0.5-1.2,0.5c-0.5,0-0.9-0.2-1.2-0.6S56,76.8,56,76.1L56,76.1z M56.7,76.2c0,0.5,0.1,0.8,0.3,1.1
				c0.2,0.3,0.5,0.4,0.8,0.4c0.4,0,0.8-0.2,1-0.6v-1.9c-0.2-0.4-0.5-0.6-1-0.6c-0.3,0-0.6,0.1-0.8,0.4
				C56.8,75.3,56.7,75.7,56.7,76.2z"/>
			<path class="st1" d="M60.6,73c0-0.1,0-0.2,0.1-0.3c0.1-0.1,0.2-0.1,0.3-0.1s0.2,0,0.3,0.1c0.1,0.1,0.1,0.2,0.1,0.3
				c0,0.1,0,0.2-0.1,0.3c-0.1,0.1-0.2,0.1-0.3,0.1s-0.2,0-0.3-0.1S60.6,73.1,60.6,73z M61.3,78.2h-0.7v-4.1h0.7V78.2z"/>
			<path class="st1" d="M64.1,77.7c0.2,0,0.5-0.1,0.7-0.2c0.2-0.2,0.3-0.3,0.3-0.6h0.7c0,0.2-0.1,0.5-0.2,0.7
				c-0.1,0.2-0.3,0.4-0.6,0.5c-0.2,0.1-0.5,0.2-0.8,0.2c-0.6,0-1-0.2-1.3-0.6s-0.5-0.9-0.5-1.5v-0.1c0-0.4,0.1-0.8,0.2-1.1
				c0.1-0.3,0.4-0.6,0.6-0.7s0.6-0.3,1-0.3c0.5,0,0.8,0.1,1.1,0.4c0.3,0.3,0.5,0.6,0.5,1.1h-0.7c0-0.3-0.1-0.5-0.3-0.7
				c-0.2-0.2-0.4-0.3-0.7-0.3c-0.4,0-0.6,0.1-0.8,0.4c-0.2,0.3-0.3,0.6-0.3,1.1v0.1c0,0.5,0.1,0.8,0.3,1.1
				C63.5,77.6,63.7,77.7,64.1,77.7z"/>
			<path class="st1" d="M66.5,73c0-0.1,0-0.2,0.1-0.3c0.1-0.1,0.2-0.1,0.3-0.1s0.2,0,0.3,0.1c0.1,0.1,0.1,0.2,0.1,0.3
				c0,0.1,0,0.2-0.1,0.3c-0.1,0.1-0.2,0.1-0.3,0.1s-0.2,0-0.3-0.1C66.6,73.2,66.5,73.1,66.5,73z M67.3,78.2h-0.7v-4.1h0.7V78.2z"/>
			<path class="st1" d="M68.2,76.1c0-0.4,0.1-0.8,0.2-1.1s0.4-0.6,0.7-0.7s0.6-0.3,1-0.3c0.6,0,1,0.2,1.4,0.6
				c0.3,0.4,0.5,0.9,0.5,1.5v0c0,0.4-0.1,0.8-0.2,1.1c-0.2,0.3-0.4,0.6-0.7,0.7c-0.3,0.2-0.6,0.3-1,0.3c-0.6,0-1-0.2-1.4-0.6
				C68.4,77.3,68.2,76.8,68.2,76.1L68.2,76.1z M68.9,76.2c0,0.5,0.1,0.8,0.3,1.1c0.2,0.3,0.5,0.4,0.8,0.4c0.4,0,0.6-0.1,0.8-0.4
				c0.2-0.3,0.3-0.7,0.3-1.2c0-0.5-0.1-0.8-0.3-1.1c-0.2-0.3-0.5-0.4-0.9-0.4c-0.3,0-0.6,0.1-0.8,0.4C69,75.3,68.9,75.7,68.9,76.2z"
				/>
			<path class="st1" d="M73.5,74.1l0,0.5c0.3-0.4,0.7-0.6,1.2-0.6c0.9,0,1.3,0.5,1.3,1.5v2.7h-0.7v-2.7c0-0.3-0.1-0.5-0.2-0.7
				s-0.3-0.2-0.6-0.2c-0.2,0-0.4,0.1-0.6,0.2c-0.2,0.1-0.3,0.3-0.4,0.5v2.9h-0.7v-4.1H73.5z"/>
			<path class="st1" d="M78.8,78.3c-0.6,0-1-0.2-1.4-0.5c-0.3-0.4-0.5-0.9-0.5-1.5v-0.1c0-0.4,0.1-0.8,0.2-1.1
				c0.2-0.3,0.4-0.6,0.7-0.8s0.6-0.3,0.9-0.3c0.5,0,0.9,0.2,1.2,0.5s0.4,0.9,0.4,1.5v0.3h-2.8c0,0.4,0.1,0.7,0.4,1s0.5,0.4,0.9,0.4
				c0.2,0,0.5-0.1,0.6-0.2c0.2-0.1,0.3-0.2,0.5-0.4l0.4,0.3C80,78,79.5,78.3,78.8,78.3z M78.7,74.6c-0.3,0-0.5,0.1-0.7,0.3
				s-0.3,0.5-0.4,0.9h2.1v-0.1c0-0.4-0.1-0.6-0.3-0.8C79.3,74.7,79,74.6,78.7,74.6z"/>
			<path class="st1" d="M83.6,77.1c0-0.2-0.1-0.3-0.2-0.4c-0.1-0.1-0.4-0.2-0.7-0.3c-0.4-0.1-0.6-0.2-0.8-0.3
				c-0.2-0.1-0.4-0.2-0.5-0.4c-0.1-0.1-0.2-0.3-0.2-0.5c0-0.3,0.1-0.6,0.4-0.9c0.3-0.2,0.6-0.3,1.1-0.3c0.5,0,0.8,0.1,1.1,0.4
				c0.3,0.2,0.4,0.5,0.4,0.9h-0.7c0-0.2-0.1-0.4-0.2-0.5c-0.2-0.1-0.4-0.2-0.6-0.2c-0.3,0-0.5,0.1-0.6,0.2c-0.1,0.1-0.2,0.3-0.2,0.4
				c0,0.2,0.1,0.3,0.2,0.4s0.4,0.2,0.7,0.2c0.4,0.1,0.6,0.2,0.9,0.3c0.2,0.1,0.4,0.2,0.5,0.4c0.1,0.2,0.2,0.3,0.2,0.6
				c0,0.4-0.1,0.7-0.4,0.9c-0.3,0.2-0.7,0.3-1.1,0.3c-0.3,0-0.6-0.1-0.9-0.2s-0.5-0.3-0.6-0.5c-0.1-0.2-0.2-0.4-0.2-0.7h0.7
				c0,0.2,0.1,0.4,0.3,0.6s0.4,0.2,0.7,0.2c0.3,0,0.5-0.1,0.6-0.2C83.5,77.5,83.6,77.3,83.6,77.1z"/>
		</g>
	</g>
	<g>
		<g>
			<g>
				<path class="st1" d="M57.4,18h-8.4c-0.4,0-0.7-0.3-0.7-0.7V9.2c0-0.4,0.3-0.7,0.7-0.7s0.7,0.3,0.7,0.7v7.4h7.7
					c0.4,0,0.7,0.3,0.7,0.7S57.8,18,57.4,18z"/>
			</g>
			<g>
				<path class="st1" d="M54.2,49.1h-24c-2.2,0-3.9-1.8-3.9-3.9V11.6c0-2.2,1.8-3.9,3.9-3.9h19.1c0.2,0,0.4,0.1,0.5,0.2l8.2,8.6
					c0.1,0.1,0.2,0.3,0.2,0.5v7.4c0,0.4-0.3,0.7-0.7,0.7s-0.7-0.3-0.7-0.7v-7.1l-7.8-8.1H30.1c-1.4,0-2.5,1.1-2.5,2.5v33.5
					c0,1.4,1.1,2.5,2.5,2.5h24c1.4,0,2.5-1.1,2.5-2.5V31c0-0.4,0.3-0.7,0.7-0.7s0.7,0.3,0.7,0.7v14.2C58.1,47.3,56.3,49.1,54.2,49.1
					z"/>
			</g>
			<g>
				<g>
					<path class="st1" d="M48.2,25.5H34.9c-0.4,0-0.7-0.3-0.7-0.7s0.3-0.7,0.7-0.7h13.3c0.4,0,0.7,0.3,0.7,0.7S48.6,25.5,48.2,25.5z
						"/>
				</g>
				<g>
					<path class="st1" d="M46.6,30.5H34.9c-0.4,0-0.7-0.3-0.7-0.7s0.3-0.7,0.7-0.7h11.7c0.4,0,0.7,0.3,0.7,0.7S47,30.5,46.6,30.5z"
						/>
				</g>
				<g>
					<path class="st1" d="M44.6,35.4h-9.7c-0.4,0-0.7-0.3-0.7-0.7s0.3-0.7,0.7-0.7h9.7c0.4,0,0.7,0.3,0.7,0.7S45,35.4,44.6,35.4z"/>
				</g>
				<g>
					<path class="st1" d="M43.5,40.3h-8.6c-0.4,0-0.7-0.3-0.7-0.7c0-0.4,0.3-0.7,0.7-0.7h8.6c0.4,0,0.7,0.3,0.7,0.7
						C44.2,40,43.9,40.3,43.5,40.3z"/>
				</g>
			</g>
		</g>
		<g>
			<g>
				<g>
					<path class="st1" d="M46.3,40.1c-0.1,0-0.2,0-0.2,0c-0.3-0.1-0.5-0.2-0.6-0.5c-0.3-0.9,0.8-4.6,1.4-5.2l14.7-15.7
						c1.1-1.2,3-1.3,4.2-0.1c0.6,0.5,0.9,1.3,0.9,2.1c0,0.8-0.3,1.6-0.8,2.1L51.3,38.5C50.4,39.5,47.3,40.1,46.3,40.1z M48,35.4
						c-0.3,0.4-0.8,2.2-1,3.3c1-0.2,2.9-0.6,3.3-1.1l14.7-15.7c0.3-0.3,0.4-0.7,0.4-1.1c0-0.4-0.2-0.8-0.5-1.1
						c-0.6-0.6-1.6-0.6-2.2,0.1L48,35.4z M47.4,34.9L47.4,34.9L47.4,34.9z"/>
				</g>
			</g>
			<g>
				<path class="st1" d="M62.7,25.7c-0.2,0-0.4-0.1-0.5-0.2l-3.1-3.1c-0.3-0.3-0.3-0.7,0-1c0.3-0.3,0.7-0.3,1,0l3.1,3.1
					c0.3,0.3,0.3,0.7,0,1C63.1,25.6,62.9,25.7,62.7,25.7z"/>
			</g>
		</g>
	</g>
</g>
</svg>
