<?xml version="1.0" encoding="utf-8"?>
<!-- Generator: Adobe Illustrator 26.0.0, SVG Export Plug-In . SVG Version: 6.00 Build 0)  -->
<svg version="1.1" id="Capa_1" xmlns="http://www.w3.org/2000/svg" xmlns:xlink="http://www.w3.org/1999/xlink" x="0px" y="0px"
	 viewBox="0 0 91.1 85.8" style="enable-background:new 0 0 91.1 85.8;" xml:space="preserve">
<style type="text/css">
	.st0{fill:#4CB8AB;}
	.st1{fill:#2D3D80;}
	.st2{fill:#FCC83D;}
	.st3{fill:#FDC93E;}
	.st4{fill:#2E3D82;}
	.st5{fill:#FFFFFF;}
</style>
<g>
	<g>
		<path class="st0" d="M14.9,64.6h3.6v1.6h-5.6v-8.5h2.1V64.6z"/>
		<path class="st0" d="M19.3,58.2c0-0.3,0.1-0.5,0.3-0.7s0.5-0.3,0.8-0.3s0.6,0.1,0.8,0.3s0.3,0.4,0.3,0.7s-0.1,0.5-0.3,0.7
			s-0.5,0.3-0.8,0.3s-0.6-0.1-0.8-0.3S19.3,58.5,19.3,58.2z M21.4,66.2h-2v-6.3h2V66.2z"/>
		<path class="st0" d="M25.3,64.8c0.3,0,0.5-0.1,0.6-0.2s0.2-0.4,0.2-0.6H28c0,0.7-0.2,1.3-0.7,1.7s-1.1,0.7-1.9,0.7
			c-0.9,0-1.6-0.3-2.2-0.9s-0.8-1.4-0.8-2.4V63c0-0.6,0.1-1.2,0.4-1.7s0.6-0.9,1-1.1s1-0.4,1.6-0.4c0.8,0,1.5,0.2,2,0.7
			s0.7,1.1,0.7,1.9h-1.9c0-0.3-0.1-0.6-0.2-0.8s-0.4-0.3-0.6-0.3c-0.5,0-0.8,0.3-0.9,1c0,0.2,0,0.5,0,0.9c0,0.6,0.1,1.1,0.2,1.3
			S24.9,64.8,25.3,64.8z"/>
		<path class="st0" d="M28.8,58.2c0-0.3,0.1-0.5,0.3-0.7s0.5-0.3,0.8-0.3s0.6,0.1,0.8,0.3s0.3,0.4,0.3,0.7s-0.1,0.5-0.3,0.7
			s-0.5,0.3-0.8,0.3s-0.6-0.1-0.8-0.3S28.8,58.5,28.8,58.2z M30.9,66.2h-2v-6.3h2V66.2z"/>
		<path class="st0" d="M34.4,58.3v1.6h1v1.4h-1v2.9c0,0.2,0,0.4,0.1,0.5s0.3,0.1,0.5,0.1c0.2,0,0.4,0,0.5,0v1.4
			c-0.4,0.1-0.7,0.2-1.1,0.2c-0.7,0-1.2-0.2-1.5-0.5s-0.5-0.8-0.5-1.5v-3.1h-0.8v-1.4h0.8v-1.6H34.4z"/>
		<path class="st0" d="M39.8,66.2c-0.1-0.1-0.1-0.3-0.2-0.6c-0.4,0.5-0.9,0.7-1.5,0.7c-0.6,0-1.1-0.2-1.5-0.5s-0.6-0.8-0.6-1.4
			c0-0.7,0.3-1.2,0.8-1.6s1.2-0.5,2.2-0.5h0.6V62c0-0.6-0.3-0.9-0.8-0.9c-0.5,0-0.7,0.2-0.7,0.7h-2c0-0.6,0.3-1.1,0.8-1.5
			c0.5-0.4,1.2-0.6,2-0.6s1.4,0.2,1.9,0.6s0.7,0.9,0.7,1.6v2.8c0,0.6,0.1,1,0.3,1.3v0.1H39.8z M38.6,64.9c0.2,0,0.5-0.1,0.6-0.2
			s0.3-0.2,0.3-0.4v-1H39c-0.7,0-1,0.3-1,0.9c0,0.2,0.1,0.3,0.2,0.4S38.4,64.9,38.6,64.9z"/>
		<path class="st0" d="M45.3,64.8c0.3,0,0.5-0.1,0.6-0.2s0.2-0.4,0.2-0.6H48c0,0.7-0.2,1.3-0.7,1.7s-1.1,0.7-1.9,0.7
			c-0.9,0-1.6-0.3-2.2-0.9s-0.8-1.4-0.8-2.4V63c0-0.6,0.1-1.2,0.4-1.7s0.6-0.9,1-1.1s1-0.4,1.6-0.4c0.8,0,1.5,0.2,2,0.7
			s0.7,1.1,0.7,1.9h-1.9c0-0.3-0.1-0.6-0.2-0.8s-0.4-0.3-0.6-0.3c-0.5,0-0.8,0.3-0.9,1c0,0.2,0,0.5,0,0.9c0,0.6,0.1,1.1,0.2,1.3
			S45,64.8,45.3,64.8z"/>
		<path class="st0" d="M48.8,58.2c0-0.3,0.1-0.5,0.3-0.7s0.5-0.3,0.8-0.3s0.6,0.1,0.8,0.3s0.3,0.4,0.3,0.7s-0.1,0.5-0.3,0.7
			s-0.5,0.3-0.8,0.3s-0.6-0.1-0.8-0.3S48.8,58.5,48.8,58.2z M50.9,66.2h-2v-6.3h2V66.2z"/>
		<path class="st0" d="M51.9,63c0-0.6,0.1-1.2,0.4-1.7s0.6-0.9,1.1-1.1s1-0.4,1.6-0.4c0.9,0,1.7,0.3,2.2,0.9S58,62,58,63v0.1
			c0,1-0.3,1.8-0.8,2.4s-1.3,0.9-2.2,0.9c-0.9,0-1.6-0.3-2.2-0.8s-0.8-1.3-0.9-2.2L51.9,63z M53.9,63.1c0,0.6,0.1,1,0.3,1.3
			s0.5,0.4,0.8,0.4c0.7,0,1.1-0.5,1.1-1.6V63c0-1.1-0.4-1.7-1.1-1.7c-0.7,0-1,0.5-1.1,1.5L53.9,63.1z"/>
		<path class="st0" d="M60.7,59.9l0.1,0.7c0.4-0.6,1-0.9,1.8-0.9c0.7,0,1.2,0.2,1.5,0.6c0.3,0.4,0.5,1,0.5,1.8v4.1h-2v-4
			c0-0.3-0.1-0.6-0.2-0.7s-0.4-0.2-0.7-0.2c-0.4,0-0.7,0.2-0.9,0.5v4.5h-2v-6.3H60.7z"/>
		<path class="st0" d="M68.7,66.3c-1,0-1.8-0.3-2.4-0.9s-0.9-1.3-0.9-2.3V63c0-0.6,0.1-1.2,0.4-1.7s0.6-0.9,1.1-1.2s1-0.4,1.6-0.4
			c0.9,0,1.6,0.3,2.1,0.8s0.8,1.3,0.8,2.3v0.8h-3.9c0.1,0.4,0.2,0.6,0.5,0.8s0.5,0.3,0.9,0.3c0.6,0,1.1-0.2,1.5-0.7l0.9,1.1
			c-0.2,0.3-0.6,0.6-1,0.8S69.2,66.3,68.7,66.3z M68.5,61.3c-0.6,0-0.9,0.4-1,1.1h2v-0.2c0-0.3-0.1-0.6-0.2-0.7S68.8,61.3,68.5,61.3
			z"/>
		<path class="st0" d="M75.5,64.4c0-0.2-0.1-0.3-0.3-0.4s-0.5-0.2-1-0.3s-0.9-0.3-1.2-0.4s-0.6-0.4-0.7-0.6S72,62.1,72,61.7
			c0-0.6,0.2-1.1,0.7-1.4s1.1-0.6,1.9-0.6c0.8,0,1.5,0.2,2,0.6s0.8,0.9,0.8,1.5h-2c0-0.5-0.3-0.8-0.8-0.8c-0.2,0-0.4,0.1-0.5,0.2
			s-0.2,0.3-0.2,0.4c0,0.2,0.1,0.3,0.3,0.4s0.4,0.2,0.8,0.3s0.7,0.2,1,0.3c1,0.3,1.4,0.9,1.4,1.8c0,0.6-0.3,1-0.8,1.4
			s-1.2,0.5-2,0.5c-0.5,0-1-0.1-1.5-0.3s-0.8-0.5-1-0.8s-0.4-0.7-0.4-1.1h1.8c0,0.3,0.1,0.5,0.3,0.6s0.4,0.2,0.7,0.2
			c0.3,0,0.5-0.1,0.6-0.2S75.5,64.6,75.5,64.4z"/>
	</g>
	<g>
		<path class="st1" d="M17.8,75.5c-0.6-0.2-1.1-0.4-1.4-0.7c-0.3-0.3-0.4-0.6-0.4-1c0-0.4,0.2-0.8,0.5-1.1c0.3-0.3,0.8-0.4,1.4-0.4
			c0.4,0,0.7,0.1,1,0.2s0.5,0.3,0.7,0.6s0.2,0.5,0.2,0.8h-0.7c0-0.3-0.1-0.6-0.3-0.8S18.3,73,17.9,73c-0.4,0-0.6,0.1-0.8,0.2
			s-0.3,0.4-0.3,0.7c0,0.2,0.1,0.4,0.3,0.6c0.2,0.2,0.5,0.3,1,0.4c0.5,0.1,0.8,0.3,1.1,0.4c0.3,0.2,0.5,0.3,0.6,0.5
			c0.1,0.2,0.2,0.5,0.2,0.7c0,0.4-0.2,0.8-0.5,1.1s-0.8,0.4-1.4,0.4c-0.4,0-0.7-0.1-1.1-0.2c-0.3-0.1-0.6-0.3-0.8-0.6
			c-0.2-0.3-0.3-0.5-0.3-0.9h0.7c0,0.3,0.1,0.6,0.4,0.8c0.2,0.2,0.6,0.3,1,0.3c0.4,0,0.7-0.1,0.9-0.2c0.2-0.2,0.3-0.4,0.3-0.6
			S19,76.1,18.8,76C18.6,75.8,18.3,75.7,17.8,75.5z"/>
		<path class="st1" d="M23.2,77.6c-0.3,0.3-0.7,0.5-1.2,0.5c-0.4,0-0.8-0.1-1-0.4c-0.2-0.3-0.3-0.6-0.3-1.1v-2.7h0.7v2.7
			c0,0.6,0.3,0.9,0.8,0.9c0.5,0,0.9-0.2,1.1-0.6v-3h0.7V78h-0.7L23.2,77.6z"/>
		<path class="st1" d="M28.4,76c0,0.6-0.1,1.1-0.4,1.5c-0.3,0.4-0.7,0.6-1.2,0.6c-0.5,0-0.9-0.2-1.2-0.6l0,0.5h-0.6v-5.8h0.7v2.2
			c0.3-0.4,0.7-0.5,1.2-0.5s0.9,0.2,1.2,0.6S28.4,75.3,28.4,76L28.4,76z M27.7,75.9c0-0.5-0.1-0.8-0.3-1.1c-0.2-0.3-0.5-0.4-0.8-0.4
			c-0.5,0-0.8,0.2-1,0.6v1.8c0.2,0.4,0.6,0.6,1,0.6c0.3,0,0.6-0.1,0.8-0.4C27.6,76.8,27.7,76.4,27.7,75.9z"/>
		<path class="st1" d="M29.3,72.8c0-0.1,0-0.2,0.1-0.3c0.1-0.1,0.2-0.1,0.3-0.1s0.2,0,0.3,0.1c0.1,0.1,0.1,0.2,0.1,0.3
			c0,0.1,0,0.2-0.1,0.3s-0.2,0.1-0.3,0.1s-0.2,0-0.3-0.1C29.3,73,29.3,72.9,29.3,72.8z M30.1,78h-0.7v-4.1h0.7V78z"/>
		<path class="st1" d="M33.2,74.5c-0.1,0-0.2,0-0.3,0c-0.5,0-0.8,0.2-0.9,0.6V78h-0.7v-4.1h0.7l0,0.5c0.2-0.4,0.6-0.5,1-0.5
			c0.1,0,0.2,0,0.3,0.1V74.5z"/>
		<path class="st1" d="M36.5,78h-0.7v-5.8h0.7V78z"/>
		<path class="st1" d="M37.6,72.8c0-0.1,0-0.2,0.1-0.3c0.1-0.1,0.2-0.1,0.3-0.1s0.2,0,0.3,0.1c0.1,0.1,0.1,0.2,0.1,0.3
			c0,0.1,0,0.2-0.1,0.3s-0.2,0.1-0.3,0.1s-0.2,0-0.3-0.1C37.7,73,37.6,72.9,37.6,72.8z M38.4,78h-0.7v-4.1h0.7V78z"/>
		<path class="st1" d="M41.2,77.5c0.3,0,0.5-0.1,0.7-0.2c0.2-0.2,0.3-0.3,0.3-0.6h0.7c0,0.2-0.1,0.5-0.2,0.7
			c-0.1,0.2-0.3,0.4-0.6,0.5c-0.2,0.1-0.5,0.2-0.8,0.2c-0.6,0-1-0.2-1.3-0.6s-0.5-0.9-0.5-1.5v-0.1c0-0.4,0.1-0.8,0.2-1.1
			c0.1-0.3,0.4-0.6,0.6-0.7c0.3-0.2,0.6-0.3,1-0.3c0.5,0,0.8,0.1,1.1,0.4c0.3,0.3,0.5,0.6,0.5,1.1h-0.7c0-0.3-0.1-0.5-0.3-0.7
			c-0.2-0.2-0.4-0.3-0.7-0.3c-0.4,0-0.6,0.1-0.8,0.4C40.1,75,40,75.4,40,75.9V76c0,0.5,0.1,0.8,0.3,1.1
			C40.5,77.4,40.8,77.5,41.2,77.5z"/>
		<path class="st1" d="M43.6,72.8c0-0.1,0-0.2,0.1-0.3c0.1-0.1,0.2-0.1,0.3-0.1s0.2,0,0.3,0.1c0.1,0.1,0.1,0.2,0.1,0.3
			c0,0.1,0,0.2-0.1,0.3s-0.2,0.1-0.3,0.1s-0.2,0-0.3-0.1C43.6,73,43.6,72.9,43.6,72.8z M44.3,78h-0.7v-4.1h0.7V78z"/>
		<path class="st1" d="M46.4,72.9v1h0.8v0.5h-0.8V77c0,0.2,0,0.3,0.1,0.4c0.1,0.1,0.2,0.1,0.3,0.1c0.1,0,0.2,0,0.3,0V78
			c-0.2,0.1-0.4,0.1-0.5,0.1c-0.3,0-0.6-0.1-0.7-0.3c-0.2-0.2-0.2-0.5-0.2-0.8v-2.5H45v-0.5h0.7v-1H46.4z"/>
		<path class="st1" d="M50.5,78c0-0.1-0.1-0.2-0.1-0.4c-0.3,0.3-0.7,0.5-1.2,0.5c-0.4,0-0.7-0.1-1-0.3c-0.3-0.2-0.4-0.5-0.4-0.9
			c0-0.4,0.2-0.8,0.5-1c0.3-0.2,0.8-0.4,1.4-0.4h0.7v-0.3c0-0.2-0.1-0.4-0.2-0.6c-0.1-0.1-0.4-0.2-0.6-0.2c-0.3,0-0.5,0.1-0.6,0.2
			c-0.2,0.1-0.3,0.3-0.3,0.5H48c0-0.2,0.1-0.4,0.2-0.6c0.1-0.2,0.3-0.3,0.6-0.5s0.5-0.2,0.8-0.2c0.5,0,0.8,0.1,1.1,0.4
			c0.3,0.2,0.4,0.6,0.4,1V77c0,0.4,0,0.7,0.1,0.9V78H50.5z M49.4,77.4c0.2,0,0.4-0.1,0.6-0.2c0.2-0.1,0.3-0.3,0.4-0.4V76h-0.6
			c-0.9,0-1.3,0.3-1.3,0.8c0,0.2,0.1,0.4,0.2,0.5C49,77.4,49.1,77.4,49.4,77.4z"/>
		<path class="st1" d="M53.9,77.5c0.3,0,0.5-0.1,0.7-0.2c0.2-0.2,0.3-0.3,0.3-0.6h0.7c0,0.2-0.1,0.5-0.2,0.7
			c-0.1,0.2-0.3,0.4-0.6,0.5c-0.2,0.1-0.5,0.2-0.8,0.2c-0.6,0-1-0.2-1.3-0.6S52,76.6,52,76v-0.1c0-0.4,0.1-0.8,0.2-1.1
			c0.1-0.3,0.4-0.6,0.6-0.7c0.3-0.2,0.6-0.3,1-0.3c0.5,0,0.8,0.1,1.1,0.4c0.3,0.3,0.5,0.6,0.5,1.1h-0.7c0-0.3-0.1-0.5-0.3-0.7
			s-0.4-0.3-0.7-0.3c-0.4,0-0.6,0.1-0.8,0.4s-0.3,0.6-0.3,1.1V76c0,0.5,0.1,0.8,0.3,1.1C53.2,77.4,53.5,77.5,53.9,77.5z"/>
		<path class="st1" d="M56.3,72.8c0-0.1,0-0.2,0.1-0.3c0.1-0.1,0.2-0.1,0.3-0.1s0.2,0,0.3,0.1c0.1,0.1,0.1,0.2,0.1,0.3
			c0,0.1,0,0.2-0.1,0.3c-0.1,0.1-0.2,0.1-0.3,0.1s-0.2,0-0.3-0.1S56.3,72.9,56.3,72.8z M57.1,78h-0.7v-4.1h0.7V78z"/>
		<path class="st1" d="M58,75.9c0-0.4,0.1-0.8,0.2-1.1s0.4-0.6,0.7-0.7s0.6-0.3,1-0.3c0.6,0,1,0.2,1.4,0.6c0.3,0.4,0.5,0.9,0.5,1.5
			v0c0,0.4-0.1,0.8-0.2,1.1c-0.2,0.3-0.4,0.6-0.7,0.7c-0.3,0.2-0.6,0.3-1,0.3c-0.6,0-1-0.2-1.4-0.6C58.2,77.1,58,76.6,58,75.9
			L58,75.9z M58.7,76c0,0.5,0.1,0.8,0.3,1.1c0.2,0.3,0.5,0.4,0.8,0.4c0.4,0,0.6-0.1,0.8-0.4c0.2-0.3,0.3-0.7,0.3-1.2
			c0-0.5-0.1-0.8-0.3-1.1c-0.2-0.3-0.5-0.4-0.9-0.4c-0.3,0-0.6,0.1-0.8,0.4C58.8,75.1,58.7,75.5,58.7,76z"/>
		<path class="st1" d="M63.3,73.9l0,0.5c0.3-0.4,0.7-0.6,1.2-0.6c0.9,0,1.3,0.5,1.3,1.5V78h-0.7v-2.7c0-0.3-0.1-0.5-0.2-0.7
			s-0.3-0.2-0.6-0.2c-0.2,0-0.4,0.1-0.6,0.2c-0.2,0.1-0.3,0.3-0.4,0.5V78h-0.7v-4.1H63.3z"/>
		<path class="st1" d="M68.6,78.1c-0.6,0-1-0.2-1.4-0.5c-0.3-0.4-0.5-0.9-0.5-1.5v-0.1c0-0.4,0.1-0.8,0.2-1.1s0.4-0.6,0.7-0.8
			c0.3-0.2,0.6-0.3,0.9-0.3c0.5,0,0.9,0.2,1.2,0.5c0.3,0.4,0.4,0.9,0.4,1.5v0.3h-2.8c0,0.4,0.1,0.7,0.4,1s0.5,0.4,0.9,0.4
			c0.2,0,0.5-0.1,0.6-0.2c0.2-0.1,0.3-0.2,0.5-0.4l0.4,0.3C69.8,77.8,69.3,78.1,68.6,78.1z M68.5,74.4c-0.3,0-0.5,0.1-0.7,0.3
			c-0.2,0.2-0.3,0.5-0.4,0.9h2.1v-0.1c0-0.4-0.1-0.6-0.3-0.8S68.8,74.4,68.5,74.4z"/>
		<path class="st1" d="M73.4,76.9c0-0.2-0.1-0.3-0.2-0.4c-0.1-0.1-0.4-0.2-0.7-0.3c-0.4-0.1-0.6-0.2-0.8-0.3
			c-0.2-0.1-0.4-0.2-0.5-0.4S71,75.2,71,75c0-0.3,0.1-0.6,0.4-0.9c0.3-0.2,0.6-0.3,1.1-0.3c0.5,0,0.8,0.1,1.1,0.4
			c0.3,0.2,0.4,0.5,0.4,0.9h-0.7c0-0.2-0.1-0.4-0.2-0.5c-0.2-0.1-0.4-0.2-0.6-0.2c-0.3,0-0.5,0.1-0.6,0.2s-0.2,0.3-0.2,0.4
			c0,0.2,0.1,0.3,0.2,0.4c0.1,0.1,0.4,0.2,0.7,0.2c0.3,0.1,0.6,0.2,0.9,0.3s0.4,0.2,0.5,0.4c0.1,0.2,0.2,0.3,0.2,0.6
			c0,0.4-0.1,0.7-0.4,0.9c-0.3,0.2-0.7,0.3-1.1,0.3c-0.3,0-0.6-0.1-0.9-0.2c-0.3-0.1-0.5-0.3-0.6-0.5c-0.1-0.2-0.2-0.4-0.2-0.7h0.7
			c0,0.2,0.1,0.4,0.3,0.6s0.4,0.2,0.7,0.2c0.3,0,0.5-0.1,0.6-0.2C73.3,77.2,73.4,77.1,73.4,76.9z"/>
	</g>
	<g>
		<g>
			<path class="st1" d="M52.7,48.2H32.2c-2.2,0-4-1.8-4-4V10.7c0-2.2,1.8-4,4-4h19.3c0.2,0,0.4,0.1,0.5,0.2l8.8,8.2
				c0.1,0.1,0.2,0.3,0.2,0.5v23.7c0,0.4-0.3,0.7-0.7,0.7s-0.7-0.3-0.7-0.7V15.9l-8.4-7.8h-19c-1.4,0-2.6,1.2-2.6,2.6v33.5
				c0,1.4,1.2,2.6,2.6,2.6h20.6c0.4,0,0.7,0.3,0.7,0.7C53.5,47.9,53.1,48.2,52.7,48.2z"/>
		</g>
		<g>
			<path class="st1" d="M52.9,23.8H36.5c-0.4,0-0.7-0.3-0.7-0.7c0-0.4,0.3-0.7,0.7-0.7h16.3c0.4,0,0.7,0.3,0.7,0.7
				C53.6,23.5,53.3,23.8,52.9,23.8z"/>
		</g>
		<g>
			<path class="st1" d="M52.9,29.7H36.5c-0.4,0-0.7-0.3-0.7-0.7c0-0.4,0.3-0.7,0.7-0.7h16.3c0.4,0,0.7,0.3,0.7,0.7
				C53.6,29.4,53.3,29.7,52.9,29.7z"/>
		</g>
		<g>
			<path class="st1" d="M52.9,35H36.5c-0.4,0-0.7-0.3-0.7-0.7s0.3-0.7,0.7-0.7h16.3c0.4,0,0.7,0.3,0.7,0.7S53.3,35,52.9,35z"/>
		</g>
		<g>
			<path class="st1" d="M60.2,16.6h-8.6c-0.4,0-0.7-0.3-0.7-0.7V7.5c0-0.4,0.3-0.7,0.7-0.7s0.7,0.3,0.7,0.7v7.6h7.9
				c0.4,0,0.7,0.3,0.7,0.7C60.9,16.3,60.6,16.6,60.2,16.6z"/>
		</g>
		<g>
			<g>
				<path class="st3" d="M49.9,41.3l5.5-5.2c0.3-0.3,0.9-0.3,1.2,0l4.5,4.2l1,1c0.3,0.3,0.3,0.7,0.2,1c-0.1,0.3-0.4,0.6-0.8,0.6h-3
					v5.7c0,0.5-0.4,0.9-0.9,0.9h-3.3c-0.5,0-0.9-0.4-0.9-0.9v-5.7h-3c-0.4,0-0.7-0.3-0.8-0.6C49.6,42,49.6,41.6,49.9,41.3z"/>
				<path class="st4" d="M57.7,50.1h-3.3c-0.9,0-1.6-0.7-1.6-1.6v-5h-2.3c-0.7,0-1.3-0.4-1.5-1c-0.2-0.6-0.1-1.3,0.4-1.8
					c0,0,0,0,0,0l5.5-5.2c0.6-0.6,1.6-0.6,2.2,0l5.5,5.2c0.5,0.5,0.7,1.2,0.4,1.8c-0.2,0.6-0.8,1-1.5,1h-2.3v5
					C59.3,49.4,58.6,50.1,57.7,50.1z M50.4,41.8c0,0-0.1,0.1,0,0.1c0,0.1,0.1,0.1,0.1,0.1h3c0.4,0,0.8,0.3,0.8,0.8v5.7
					c0,0.1,0.1,0.1,0.1,0.1h3.3c0.1,0,0.1-0.1,0.1-0.1v-5.7c0-0.4,0.3-0.8,0.8-0.8h3c0.1,0,0.1,0,0.1-0.1c0-0.1,0-0.1,0-0.1
					l-5.5-5.2c0,0-0.1,0-0.2,0L50.4,41.8z"/>
			</g>
		</g>
	</g>
</g>
</svg>
