<?xml version="1.0" encoding="utf-8"?>
<!-- Generator: Adobe Illustrator 26.0.0, SVG Export Plug-In . SVG Version: 6.00 Build 0)  -->
<svg version="1.1" id="Capa_1" xmlns="http://www.w3.org/2000/svg" xmlns:xlink="http://www.w3.org/1999/xlink" x="0px" y="0px"
	 viewBox="0 0 73.8 36" style="enable-background:new 0 0 73.8 36;" xml:space="preserve">
<style type="text/css">
	.st0{fill:#4CB8AB;}
	.st1{fill:#2D3D80;}
	.st2{fill:#FCC83D;}
	.st3{fill:#FDC93E;}
	.st4{fill:#2E3D82;}
	.st5{fill:#FFFFFF;}
</style>
<g>
	<g>
		<path class="st5" d="M61.9,22.1c0-0.2,0-0.5,0.1-0.8c3.2-0.2,6.2-2.6,6.2-5.7c0-1.3-0.6-2.6-3-2.6c-3.1,0-5,2-6,4.3
			c0-3.1-1.5-4.2-3.3-4.2c-1.3,0-2.4,0.5-3.2,1.2l0.4-2h-3.9l-1.1,5.1c-0.2,0-0.3,0-0.5,0c-0.1,0-0.2,0-0.3-0.1
			c0-2.8-1.1-4.3-3.5-4.3c-5.6,0-7.4,6.5-7.4,9.6c0,0.4,0,0.8,0.1,1.1c-0.8,0.6-1.8,1-2.9,1c-1.3,0-1.9-0.4-1.9-2.3
			c0-3,1.8-7.9,3.5-7.9c0.5,0,0.8,0.4,0.8,1.1c0,0.5-0.1,1-0.3,1.6c0.3,0.2,0.6,0.3,0.9,0.3c0.8,0,1.4-0.6,1.4-2
			c0-1.2-0.6-2.5-3-2.5c-5.5,0-7.3,6.5-7.3,9.6c0,0.6,0.1,1.1,0.2,1.6c-0.2,0.1-0.4,0.1-0.6,0.1c-0.8,0-1.1-0.5-1.1-1.1
			c0-1.5,1.3-4.8,1.3-7c0-2.2-1.3-3-3-3c-0.8,0-2,0.2-3.2,1.5l0.3-1.4h-3.9l-2.3,10.9c-0.8,0.3-1.5,0.5-2.2,0.5
			c-1.8,0-2.6-1.2-2.6-2.7c0-2.5,1.9-5.8,4.8-6.4c-1.9-0.5-2.7-2.1-2.7-3.6c0-1.9,1.2-3.8,2.8-3.8c0.7,0,1.5,0.4,1.5,1.5
			c0,0.9-0.5,2.1-1.2,2.3c0.4,0.5,0.8,0.7,1.3,0.7c1.1,0,2-1.2,2-2.8c0-2.2-1.7-3.4-3.9-3.4c-3.5,0-5.9,3-5.9,5.8
			c0,1.2,0.5,2.4,1.6,3.2c-3.1,0.8-5,4.2-5,7c0,2.5,1.5,4.7,5,4.7c1.4,0,2.8-0.4,4-1L15,26.8h3.9l1.8-8.7c0.4-1.3,1.1-2.5,2.1-2.5
			c0.6,0,1,0.5,1,1.4c0,1.7-1.2,5-1.2,6.9c0,1.5,0.8,3,3.2,3c0.8,0,1.9-0.2,2.9-1.2c0.7,0.9,1.9,1.2,3.3,1.2c2.1,0,3.7-0.8,5-2
			c0.7,1.4,2.1,2,3.9,2c3.3,0,6-3.1,6.4-8.1c0.2,0,0.4-0.1,0.6-0.1l-2.7,13.3l4-0.8l1.1-5.2c0.3,0.5,0.9,1,2.3,1
			c2.7,0,4.4-1.6,5.4-3.7c0.2,2.6,1.8,3.7,4.2,3.7c2.2,0,4.1-0.9,4.7-4c-0.9,0.8-2.2,1.4-3.2,1.4C62.6,24.4,61.9,23.8,61.9,22.1z
			 M65.4,14.5c0.5,0,0.7,0.4,0.7,1.1c0,2.3-1.8,4.3-3.9,4.5C62.7,17.5,64.1,14.5,65.4,14.5z M45.1,18.8c-0.4,3.2-1.8,5.6-3.1,5.6
			c-1,0-1.4-0.4-1.4-2.2c0-2.6,1.7-7.6,3.6-7.6c0.7,0,1,0.4,1,1.6c-0.5,0.2-0.8,0.7-0.8,1.5C44.3,18.2,44.5,18.7,45.1,18.8z
			 M51.7,24.6c-0.6,0-0.9-0.3-1-0.6l1.6-7.6c0.5-0.9,1.3-1.3,1.9-1.3c0.5,0,1.3,0.2,1.3,2.2C55.5,19.9,54.5,24.6,51.7,24.6z"/>
		<path class="st5" d="M41.2,6.7c0,0.7,0.6,1.3,1.3,1.3c0.7,0,1.3-0.6,1.3-1.3c0-0.7-0.6-1.3-1.3-1.3C41.8,5.5,41.2,6,41.2,6.7z"/>
		<path class="st5" d="M33.8,6.7C33.8,7.4,34.3,8,35,8c0.7,0,1.3-0.6,1.3-1.3c0-0.7-0.6-1.3-1.3-1.3C34.3,5.5,33.8,6,33.8,6.7z"/>
		<path class="st5" d="M37.4,6.4c0,0.8,0.6,1.4,1.4,1.4c0.8,0,1.4-0.6,1.4-1.4c0-0.8-0.6-1.4-1.4-1.4C38,5.1,37.4,5.7,37.4,6.4z"/>
		<path class="st5" d="M36.2,9.2c0-0.5-0.4-0.9-0.9-0.9h-1.2c-0.5,0-0.9,0.4-0.9,0.9v1l2.9,1v-0.4V9.2z"/>
		<path class="st5" d="M40.9,9c0-0.5-0.4-0.9-0.9-0.9h-1h-0.3h-1.1c-0.5,0-0.9,0.4-0.9,0.9v2.4l2.1,0.8l2.1-0.7V9z"/>
		<path class="st5" d="M43.3,8.4h-1.2c-0.5,0-0.9,0.4-0.9,0.9v1.6v0.4l2.9-1v-1C44.2,8.7,43.8,8.4,43.3,8.4z"/>
	</g>
</g>
</svg>
