<?xml version="1.0" encoding="utf-8"?>
<!-- Generator: Adobe Illustrator 26.0.0, SVG Export Plug-In . SVG Version: 6.00 Build 0)  -->
<svg version="1.1" id="Capa_1" xmlns="http://www.w3.org/2000/svg" xmlns:xlink="http://www.w3.org/1999/xlink" x="0px" y="0px"
	 viewBox="0 0 91.1 85.8" style="enable-background:new 0 0 91.1 85.8;" xml:space="preserve">
<style type="text/css">
	.st0{fill:#4CB8AB;}
	.st1{fill:#2D3D80;}
	.st2{fill:#FCC83D;}
	.st3{fill:#FDC93E;}
	.st4{fill:#2E3D82;}
	.st5{fill:#FFFFFF;}
</style>
<g>
	<g>
		<g>
			<path class="st0" d="M24.5,57.5l1.9,5.9l1.9-5.9H31V66h-2.1v-2l0.2-4.1L27.1,66h-1.4l-2.1-6.1l0.2,4.1v2h-2.1v-8.5H24.5z"/>
			<path class="st0" d="M35.3,66.1c-1,0-1.8-0.3-2.4-0.9S32,63.9,32,63v-0.2c0-0.6,0.1-1.2,0.4-1.7s0.6-0.9,1.1-1.2s1-0.4,1.6-0.4
				c0.9,0,1.6,0.3,2.1,0.8s0.8,1.3,0.8,2.3v0.8H34c0.1,0.4,0.2,0.6,0.5,0.8s0.5,0.3,0.9,0.3c0.6,0,1.1-0.2,1.5-0.7l0.9,1.1
				c-0.2,0.3-0.6,0.6-1,0.8S35.8,66.1,35.3,66.1z M35,57h2.1l-1.6,1.8l-1.6,0L35,57z M35,61.1c-0.6,0-0.9,0.4-1,1.1h2V62
				c0-0.3-0.1-0.6-0.2-0.7S35.4,61.1,35,61.1z"/>
			<path class="st0" d="M41,58.1v1.6h1V61h-1v2.9c0,0.2,0,0.4,0.1,0.5s0.3,0.1,0.5,0.1c0.2,0,0.4,0,0.5,0v1.4
				c-0.4,0.1-0.7,0.2-1.1,0.2c-0.7,0-1.2-0.2-1.5-0.5s-0.5-0.8-0.5-1.5V61h-0.8v-1.4h0.8v-1.6H41z"/>
			<path class="st0" d="M46.7,61.4l-0.7,0c-0.6,0-1,0.2-1.2,0.6v4h-2v-6.3h1.9l0.1,0.8c0.3-0.6,0.8-0.9,1.4-0.9c0.2,0,0.4,0,0.6,0.1
				L46.7,61.4z"/>
			<path class="st0" d="M47.4,58c0-0.3,0.1-0.5,0.3-0.7s0.5-0.3,0.8-0.3s0.6,0.1,0.8,0.3s0.3,0.4,0.3,0.7s-0.1,0.5-0.3,0.7
				S48.8,59,48.5,59s-0.6-0.1-0.8-0.3S47.4,58.3,47.4,58z M49.5,66h-2v-6.3h2V66z"/>
			<path class="st0" d="M53.4,64.6c0.3,0,0.5-0.1,0.6-0.2s0.2-0.4,0.2-0.6h1.9c0,0.7-0.2,1.3-0.7,1.7s-1.1,0.7-1.9,0.7
				c-0.9,0-1.6-0.3-2.2-0.9s-0.8-1.4-0.8-2.4v-0.1c0-0.6,0.1-1.2,0.4-1.7s0.6-0.9,1-1.1s1-0.4,1.6-0.4c0.8,0,1.5,0.2,2,0.7
				s0.7,1.1,0.7,1.9h-1.9c0-0.3-0.1-0.6-0.2-0.8s-0.4-0.3-0.6-0.3c-0.5,0-0.8,0.3-0.9,1c0,0.2,0,0.5,0,0.9c0,0.6,0.1,1.1,0.2,1.3
				C52.8,64.5,53.1,64.6,53.4,64.6z"/>
			<path class="st0" d="M60.5,66c-0.1-0.1-0.1-0.3-0.2-0.6c-0.4,0.5-0.9,0.7-1.5,0.7c-0.6,0-1.1-0.2-1.5-0.5s-0.6-0.8-0.6-1.4
				c0-0.7,0.3-1.2,0.8-1.6s1.2-0.5,2.2-0.5h0.6v-0.3c0-0.6-0.3-0.9-0.8-0.9c-0.5,0-0.7,0.2-0.7,0.7h-2c0-0.6,0.3-1.1,0.8-1.5
				c0.5-0.4,1.2-0.6,2-0.6s1.4,0.2,1.9,0.6s0.7,0.9,0.7,1.6v2.8c0,0.6,0.1,1,0.3,1.3V66H60.5z M59.3,64.7c0.2,0,0.5-0.1,0.6-0.2
				s0.3-0.2,0.3-0.4v-1h-0.6c-0.7,0-1,0.3-1,0.9c0,0.2,0.1,0.3,0.2,0.4S59.1,64.7,59.3,64.7z"/>
			<path class="st0" d="M66.6,64.2c0-0.2-0.1-0.3-0.3-0.4s-0.5-0.2-1-0.3s-0.9-0.3-1.2-0.4s-0.6-0.4-0.7-0.6s-0.3-0.5-0.3-0.9
				c0-0.6,0.2-1.1,0.7-1.4s1.1-0.6,1.9-0.6c0.8,0,1.5,0.2,2,0.6s0.8,0.9,0.8,1.5h-2c0-0.5-0.3-0.8-0.8-0.8c-0.2,0-0.4,0.1-0.5,0.2
				S65,61.3,65,61.4c0,0.2,0.1,0.3,0.3,0.4s0.4,0.2,0.8,0.3s0.7,0.2,1,0.3c1,0.3,1.4,0.9,1.4,1.8c0,0.6-0.3,1-0.8,1.4
				s-1.2,0.5-2,0.5c-0.5,0-1-0.1-1.5-0.3s-0.8-0.5-1-0.8S63,64.3,63,64h1.8c0,0.3,0.1,0.5,0.3,0.6s0.4,0.2,0.7,0.2
				c0.3,0,0.5-0.1,0.6-0.2S66.6,64.4,66.6,64.2z"/>
		</g>
		<g>
			<path class="st1" d="M14.6,76c-0.1,0.6-0.3,1-0.6,1.4c-0.4,0.3-0.8,0.5-1.4,0.5c-0.7,0-1.2-0.2-1.6-0.7c-0.4-0.5-0.6-1.1-0.6-1.9
				v-0.5c0-0.5,0.1-1,0.3-1.4s0.4-0.7,0.8-0.9c0.3-0.2,0.7-0.3,1.2-0.3c0.6,0,1.1,0.2,1.4,0.5c0.4,0.3,0.6,0.8,0.6,1.4h-0.7
				c-0.1-0.4-0.2-0.8-0.4-1c-0.2-0.2-0.5-0.3-0.9-0.3c-0.5,0-0.8,0.2-1.1,0.5c-0.3,0.3-0.4,0.8-0.4,1.5v0.5c0,0.6,0.1,1.1,0.4,1.4
				c0.2,0.4,0.6,0.5,1.1,0.5c0.4,0,0.7-0.1,0.9-0.3c0.2-0.2,0.4-0.5,0.4-1H14.6z"/>
			<path class="st1" d="M15.3,75.7c0-0.4,0.1-0.8,0.2-1.1s0.4-0.6,0.7-0.7s0.6-0.3,1-0.3c0.6,0,1,0.2,1.4,0.6
				c0.3,0.4,0.5,0.9,0.5,1.5v0c0,0.4-0.1,0.8-0.2,1.1s-0.4,0.6-0.7,0.7c-0.3,0.2-0.6,0.3-1,0.3c-0.6,0-1-0.2-1.4-0.6
				C15.5,76.9,15.3,76.4,15.3,75.7L15.3,75.7z M16,75.8c0,0.5,0.1,0.8,0.3,1.1c0.2,0.3,0.5,0.4,0.8,0.4c0.4,0,0.6-0.1,0.9-0.4
				c0.2-0.3,0.3-0.7,0.3-1.2c0-0.5-0.1-0.8-0.3-1.1s-0.5-0.4-0.9-0.4c-0.3,0-0.6,0.1-0.8,0.4C16.1,74.9,16,75.3,16,75.8z"/>
			<path class="st1" d="M20.6,73.7l0,0.5c0.3-0.4,0.7-0.6,1.2-0.6c0.9,0,1.3,0.5,1.3,1.5v2.7h-0.7v-2.7c0-0.3-0.1-0.5-0.2-0.7
				s-0.3-0.2-0.6-0.2c-0.2,0-0.4,0.1-0.6,0.2c-0.2,0.1-0.3,0.3-0.4,0.5v2.9h-0.7v-4.1H20.6z"/>
			<path class="st1" d="M26.6,76.7c0-0.2-0.1-0.3-0.2-0.4C26.2,76.1,26,76,25.6,76c-0.4-0.1-0.6-0.2-0.8-0.3
				c-0.2-0.1-0.4-0.2-0.5-0.4s-0.1-0.3-0.1-0.5c0-0.3,0.1-0.6,0.4-0.9c0.3-0.2,0.6-0.3,1.1-0.3c0.5,0,0.8,0.1,1.1,0.4
				c0.3,0.2,0.4,0.5,0.4,0.9h-0.7c0-0.2-0.1-0.4-0.2-0.5c-0.2-0.1-0.4-0.2-0.6-0.2c-0.3,0-0.5,0.1-0.6,0.2s-0.2,0.3-0.2,0.4
				c0,0.2,0.1,0.3,0.2,0.4c0.1,0.1,0.4,0.2,0.7,0.2c0.3,0.1,0.6,0.2,0.9,0.3s0.4,0.2,0.5,0.4c0.1,0.2,0.2,0.3,0.2,0.6
				c0,0.4-0.1,0.7-0.4,0.9c-0.3,0.2-0.7,0.3-1.1,0.3c-0.3,0-0.6-0.1-0.9-0.2c-0.3-0.1-0.5-0.3-0.6-0.5C24.1,77,24,76.8,24,76.5h0.7
				c0,0.2,0.1,0.4,0.3,0.6s0.4,0.2,0.7,0.2c0.3,0,0.5-0.1,0.6-0.2C26.5,77,26.6,76.9,26.6,76.7z"/>
			<path class="st1" d="M30.7,77.4c-0.3,0.3-0.7,0.5-1.2,0.5c-0.4,0-0.8-0.1-1-0.4c-0.2-0.3-0.3-0.6-0.3-1.1v-2.7h0.7v2.7
				c0,0.6,0.3,0.9,0.8,0.9c0.5,0,0.9-0.2,1.1-0.6v-3h0.7v4.1h-0.7L30.7,77.4z"/>
			<path class="st1" d="M33.3,77.8h-0.7v-5.8h0.7V77.8z"/>
			<path class="st1" d="M35.3,72.7v1h0.8v0.5h-0.8v2.5c0,0.2,0,0.3,0.1,0.4c0.1,0.1,0.2,0.1,0.3,0.1c0.1,0,0.2,0,0.3,0v0.6
				c-0.2,0.1-0.4,0.1-0.5,0.1c-0.3,0-0.5-0.1-0.7-0.3c-0.2-0.2-0.2-0.5-0.2-0.8v-2.5h-0.7v-0.5h0.7v-1H35.3z"/>
			<path class="st1" d="M39.5,77.8c0-0.1-0.1-0.2-0.1-0.4c-0.3,0.3-0.7,0.5-1.2,0.5c-0.4,0-0.7-0.1-1-0.3c-0.3-0.2-0.4-0.5-0.4-0.9
				c0-0.4,0.2-0.8,0.5-1c0.3-0.2,0.8-0.4,1.4-0.4h0.7V75c0-0.2-0.1-0.4-0.2-0.6c-0.1-0.1-0.4-0.2-0.6-0.2c-0.3,0-0.5,0.1-0.6,0.2
				c-0.2,0.1-0.3,0.3-0.3,0.5h-0.7c0-0.2,0.1-0.4,0.2-0.6c0.1-0.2,0.3-0.3,0.6-0.5s0.5-0.2,0.8-0.2c0.5,0,0.8,0.1,1.1,0.4
				c0.3,0.2,0.4,0.6,0.4,1v1.9c0,0.4,0,0.7,0.1,0.9v0.1H39.5z M38.3,77.2c0.2,0,0.4-0.1,0.6-0.2c0.2-0.1,0.3-0.3,0.4-0.4v-0.8h-0.6
				c-0.9,0-1.3,0.3-1.3,0.8c0,0.2,0.1,0.4,0.2,0.5C37.9,77.2,38.1,77.2,38.3,77.2z"/>
			<path class="st1" d="M43.5,76.7c0-0.2-0.1-0.3-0.2-0.4c-0.1-0.1-0.4-0.2-0.7-0.3c-0.4-0.1-0.6-0.2-0.8-0.3
				c-0.2-0.1-0.4-0.2-0.5-0.4c-0.1-0.1-0.2-0.3-0.2-0.5c0-0.3,0.1-0.6,0.4-0.9c0.3-0.2,0.6-0.3,1.1-0.3c0.5,0,0.8,0.1,1.1,0.4
				c0.3,0.2,0.4,0.5,0.4,0.9h-0.7c0-0.2-0.1-0.4-0.2-0.5c-0.2-0.1-0.4-0.2-0.6-0.2c-0.3,0-0.5,0.1-0.6,0.2c-0.1,0.1-0.2,0.3-0.2,0.4
				c0,0.2,0.1,0.3,0.2,0.4s0.4,0.2,0.7,0.2c0.4,0.1,0.6,0.2,0.9,0.3c0.2,0.1,0.4,0.2,0.5,0.4c0.1,0.2,0.2,0.3,0.2,0.6
				c0,0.4-0.1,0.7-0.4,0.9c-0.3,0.2-0.7,0.3-1.1,0.3c-0.3,0-0.6-0.1-0.9-0.2s-0.5-0.3-0.6-0.5C41,77,41,76.8,41,76.5h0.7
				c0,0.2,0.1,0.4,0.3,0.6s0.4,0.2,0.7,0.2c0.3,0,0.5-0.1,0.6-0.2C43.5,77,43.5,76.9,43.5,76.7z"/>
			<path class="st1" d="M46.9,75.7c0-0.6,0.1-1.1,0.4-1.5s0.7-0.6,1.2-0.6c0.5,0,0.9,0.2,1.2,0.5l0-0.5h0.6v4c0,0.5-0.2,1-0.5,1.3
				c-0.3,0.3-0.7,0.5-1.3,0.5c-0.3,0-0.6-0.1-0.9-0.2c-0.3-0.1-0.5-0.3-0.6-0.5l0.4-0.4c0.3,0.4,0.7,0.6,1.1,0.6
				c0.3,0,0.6-0.1,0.8-0.3c0.2-0.2,0.3-0.5,0.3-0.8v-0.4c-0.3,0.3-0.7,0.5-1.1,0.5c-0.5,0-0.9-0.2-1.2-0.6
				C47.1,76.9,46.9,76.4,46.9,75.7z M47.6,75.8c0,0.5,0.1,0.8,0.3,1.1c0.2,0.3,0.5,0.4,0.8,0.4c0.4,0,0.8-0.2,1-0.6v-1.9
				c-0.2-0.4-0.5-0.6-1-0.6c-0.3,0-0.6,0.1-0.8,0.4S47.6,75.2,47.6,75.8z"/>
			<path class="st1" d="M53.1,77.9c-0.6,0-1-0.2-1.4-0.5c-0.3-0.4-0.5-0.9-0.5-1.5v-0.1c0-0.4,0.1-0.8,0.2-1.1
				c0.2-0.3,0.4-0.6,0.7-0.8s0.6-0.3,0.9-0.3c0.5,0,0.9,0.2,1.2,0.5s0.4,0.9,0.4,1.5v0.3H52c0,0.4,0.1,0.7,0.4,1s0.5,0.4,0.9,0.4
				c0.2,0,0.5-0.1,0.6-0.2c0.2-0.1,0.3-0.2,0.5-0.4l0.4,0.3C54.3,77.6,53.8,77.9,53.1,77.9z M53.1,74.2c-0.3,0-0.5,0.1-0.7,0.3
				S52,75,52,75.3H54v-0.1c0-0.4-0.1-0.6-0.3-0.8C53.6,74.3,53.3,74.2,53.1,74.2z"/>
			<path class="st1" d="M56.2,73.7l0,0.5c0.3-0.4,0.7-0.6,1.2-0.6c0.9,0,1.3,0.5,1.3,1.5v2.7h-0.7v-2.7c0-0.3-0.1-0.5-0.2-0.7
				s-0.3-0.2-0.6-0.2c-0.2,0-0.4,0.1-0.6,0.2c-0.2,0.1-0.3,0.3-0.4,0.5v2.9h-0.7v-4.1H56.2z"/>
			<path class="st1" d="M61.5,77.9c-0.6,0-1-0.2-1.4-0.5c-0.3-0.4-0.5-0.9-0.5-1.5v-0.1c0-0.4,0.1-0.8,0.2-1.1s0.4-0.6,0.7-0.8
				c0.3-0.2,0.6-0.3,0.9-0.3c0.5,0,0.9,0.2,1.2,0.5c0.3,0.4,0.4,0.9,0.4,1.5v0.3h-2.8c0,0.4,0.1,0.7,0.4,1s0.5,0.4,0.9,0.4
				c0.2,0,0.5-0.1,0.6-0.2c0.2-0.1,0.3-0.2,0.5-0.4l0.4,0.3C62.7,77.6,62.2,77.9,61.5,77.9z M61.5,74.2c-0.3,0-0.5,0.1-0.7,0.3
				c-0.2,0.2-0.3,0.5-0.4,0.9h2.1v-0.1c0-0.4-0.1-0.6-0.3-0.8S61.8,74.2,61.5,74.2z"/>
			<path class="st1" d="M65.9,74.3c-0.1,0-0.2,0-0.3,0c-0.5,0-0.8,0.2-0.9,0.6v2.9H64v-4.1h0.7l0,0.5c0.2-0.4,0.6-0.5,1-0.5
				c0.1,0,0.2,0,0.3,0.1V74.3z"/>
			<path class="st1" d="M69,77.8c0-0.1-0.1-0.2-0.1-0.4c-0.3,0.3-0.7,0.5-1.2,0.5c-0.4,0-0.7-0.1-1-0.3c-0.3-0.2-0.4-0.5-0.4-0.9
				c0-0.4,0.2-0.8,0.5-1c0.3-0.2,0.8-0.4,1.4-0.4h0.7V75c0-0.2-0.1-0.4-0.2-0.6s-0.4-0.2-0.6-0.2c-0.2,0-0.5,0.1-0.6,0.2
				c-0.2,0.1-0.3,0.3-0.3,0.5h-0.7c0-0.2,0.1-0.4,0.2-0.6c0.1-0.2,0.3-0.3,0.6-0.5s0.5-0.2,0.8-0.2c0.5,0,0.8,0.1,1.1,0.4
				c0.3,0.2,0.4,0.6,0.4,1v1.9c0,0.4,0,0.7,0.1,0.9v0.1H69z M67.8,77.2c0.2,0,0.4-0.1,0.6-0.2c0.2-0.1,0.3-0.3,0.4-0.4v-0.8h-0.5
				c-0.9,0-1.3,0.3-1.3,0.8c0,0.2,0.1,0.4,0.2,0.5S67.6,77.2,67.8,77.2z"/>
			<path class="st1" d="M71.4,77.8h-0.7v-5.8h0.7V77.8z"/>
			<path class="st1" d="M74.3,77.9c-0.6,0-1-0.2-1.4-0.5c-0.3-0.4-0.5-0.9-0.5-1.5v-0.1c0-0.4,0.1-0.8,0.2-1.1s0.4-0.6,0.7-0.8
				c0.3-0.2,0.6-0.3,0.9-0.3c0.5,0,0.9,0.2,1.2,0.5c0.3,0.4,0.4,0.9,0.4,1.5v0.3h-2.8c0,0.4,0.1,0.7,0.4,1s0.5,0.4,0.9,0.4
				c0.2,0,0.5-0.1,0.6-0.2c0.2-0.1,0.3-0.2,0.5-0.4l0.4,0.3C75.5,77.6,74.9,77.9,74.3,77.9z M74.2,74.2c-0.3,0-0.5,0.1-0.7,0.3
				c-0.2,0.2-0.3,0.5-0.4,0.9h2.1v-0.1c0-0.4-0.1-0.6-0.3-0.8S74.5,74.2,74.2,74.2z"/>
			<path class="st1" d="M79.1,76.7c0-0.2-0.1-0.3-0.2-0.4c-0.1-0.1-0.4-0.2-0.7-0.3c-0.4-0.1-0.6-0.2-0.8-0.3
				c-0.2-0.1-0.4-0.2-0.5-0.4s-0.1-0.3-0.1-0.5c0-0.3,0.1-0.6,0.4-0.9c0.3-0.2,0.6-0.3,1.1-0.3c0.5,0,0.8,0.1,1.1,0.4
				c0.3,0.2,0.4,0.5,0.4,0.9H79c0-0.2-0.1-0.4-0.2-0.5c-0.2-0.1-0.4-0.2-0.6-0.2c-0.3,0-0.5,0.1-0.6,0.2s-0.2,0.3-0.2,0.4
				c0,0.2,0.1,0.3,0.2,0.4c0.1,0.1,0.4,0.2,0.7,0.2c0.3,0.1,0.6,0.2,0.9,0.3s0.4,0.2,0.5,0.4c0.1,0.2,0.2,0.3,0.2,0.6
				c0,0.4-0.1,0.7-0.4,0.9c-0.3,0.2-0.7,0.3-1.1,0.3c-0.3,0-0.6-0.1-0.9-0.2c-0.3-0.1-0.5-0.3-0.6-0.5c-0.1-0.2-0.2-0.4-0.2-0.7h0.7
				c0,0.2,0.1,0.4,0.3,0.6s0.4,0.2,0.7,0.2c0.3,0,0.5-0.1,0.6-0.2C79,77,79.1,76.9,79.1,76.7z"/>
		</g>
	</g>
	<g>
		<g>
			<path class="st4" d="M47.7,29.3c-0.3,0-0.5-0.1-0.6-0.3c-0.2-0.3-0.2-0.6,0-0.8l10.4-15.3c0.1-0.2,0.3-0.3,0.5-0.3
				c0.2,0,0.4,0,0.6,0.1c4.4,3,7.4,7.7,8.2,12.9c0.1,0.4-0.2,0.8-0.6,0.9l-18.3,2.9C47.8,29.3,47.8,29.3,47.7,29.3z M58.3,14.3
				l-9,13.2L65.1,25C64.3,20.8,61.8,16.9,58.3,14.3z"/>
		</g>
		<g>
			<path class="st3" d="M58.2,46.2c4.7-3.4,7.7-8.8,7.7-15c0-0.7,0-1.4-0.1-2.1l-18.4,2.1L58.2,46.2z"/>
			<path class="st4" d="M58.2,47c0,0-0.1,0-0.1,0c-0.2,0-0.4-0.1-0.5-0.3l-10.8-15c-0.2-0.2-0.2-0.5-0.1-0.7
				c0.1-0.2,0.3-0.4,0.6-0.4l18.4-2.1c0.2,0,0.4,0,0.6,0.2c0.2,0.1,0.3,0.3,0.3,0.5c0.1,0.8,0.1,1.5,0.1,2.2c0,6.2-3,12-8,15.6
				C58.5,46.9,58.4,47,58.2,47z M48.8,31.8l9.6,13.4c4.3-3.4,6.8-8.5,6.8-14c0-0.4,0-0.8,0-1.2L48.8,31.8z"/>
		</g>
		<g>
			<path class="st4" d="M43.3,49.7c-10.6,0-19.3-8.6-19.3-19.3s8.6-19.3,19.3-19.3c3.4,0,6.8,0.9,9.8,2.7c0.4,0.2,0.5,0.7,0.3,1
				l-9.2,15.5l10,15c0.2,0.3,0.1,0.8-0.2,1C50.9,48.5,47.2,49.7,43.3,49.7z M43.3,12.6c-9.8,0-17.8,8-17.8,17.8s8,17.8,17.8,17.8
				c3.3,0,6.5-0.9,9.2-2.6l-9.9-14.8c-0.2-0.2-0.2-0.6,0-0.8l9-15.3C49.1,13.4,46.3,12.6,43.3,12.6z"/>
		</g>
	</g>
</g>
</svg>
