<?xml version="1.0" encoding="utf-8"?>
<!-- Generator: Adobe Illustrator 26.0.0, SVG Export Plug-In . SVG Version: 6.00 Build 0)  -->
<svg version="1.1" id="Capa_1" xmlns="http://www.w3.org/2000/svg" xmlns:xlink="http://www.w3.org/1999/xlink" x="0px" y="0px"
	 viewBox="0 0 91.1 85.8" style="enable-background:new 0 0 91.1 85.8;" xml:space="preserve">
<style type="text/css">
	.st0{fill:#4CB8AB;}
	.st1{fill:#2D3D80;}
	.st2{fill:#FCC83D;}
	.st3{fill:#FDC93E;}
	.st4{fill:#2E3D82;}
	.st5{fill:#FFFFFF;}
</style>
<g>
	<g>
		<g>
			<g>
				<path class="st0" d="M30.8,66.2h-2l-3-5.3v5.3h-2.1v-8.5h2.1l3,5.3v-5.3h2.1V66.2z"/>
				<path class="st0" d="M31.8,63c0-0.6,0.1-1.2,0.4-1.7s0.6-0.9,1.1-1.1s1-0.4,1.6-0.4c0.9,0,1.7,0.3,2.2,0.9s0.8,1.4,0.8,2.4v0.1
					c0,1-0.3,1.8-0.8,2.4s-1.3,0.9-2.2,0.9c-0.9,0-1.6-0.3-2.2-0.8s-0.8-1.3-0.9-2.2L31.8,63z M33.7,63.1c0,0.6,0.1,1,0.3,1.3
					s0.5,0.4,0.8,0.4c0.7,0,1.1-0.5,1.1-1.6V63c0-1.1-0.4-1.7-1.1-1.7c-0.7,0-1,0.5-1.1,1.5L33.7,63.1z"/>
				<path class="st0" d="M41,58.3v1.6h1v1.4h-1v2.9c0,0.2,0,0.4,0.1,0.5s0.3,0.1,0.5,0.1c0.2,0,0.4,0,0.5,0v1.4
					c-0.4,0.1-0.7,0.2-1.1,0.2c-0.7,0-1.2-0.2-1.5-0.5s-0.5-0.8-0.5-1.5v-3.1h-0.8v-1.4h0.8v-1.6H41z"/>
				<path class="st0" d="M42.8,58.2c0-0.3,0.1-0.5,0.3-0.7s0.5-0.3,0.8-0.3s0.6,0.1,0.8,0.3s0.3,0.4,0.3,0.7s-0.1,0.5-0.3,0.7
					s-0.5,0.3-0.8,0.3s-0.6-0.1-0.8-0.3S42.8,58.5,42.8,58.2z M44.9,66.2h-2v-6.3h2V66.2z"/>
				<path class="st0" d="M48.8,64.8c0.3,0,0.5-0.1,0.6-0.2s0.2-0.4,0.2-0.6h1.9c0,0.7-0.2,1.3-0.7,1.7s-1.1,0.7-1.9,0.7
					c-0.9,0-1.6-0.3-2.2-0.9s-0.8-1.4-0.8-2.4V63c0-0.6,0.1-1.2,0.4-1.7s0.6-0.9,1-1.1s1-0.4,1.6-0.4c0.8,0,1.5,0.2,2,0.7
					s0.7,1.1,0.7,1.9h-1.9c0-0.3-0.1-0.6-0.2-0.8s-0.4-0.3-0.6-0.3c-0.5,0-0.8,0.3-0.9,1c0,0.2,0,0.5,0,0.9c0,0.6,0.1,1.1,0.2,1.3
					S48.5,64.8,48.8,64.8z"/>
				<path class="st0" d="M52.4,58.2c0-0.3,0.1-0.5,0.3-0.7s0.5-0.3,0.8-0.3s0.6,0.1,0.8,0.3s0.3,0.4,0.3,0.7s-0.1,0.5-0.3,0.7
					s-0.5,0.3-0.8,0.3s-0.6-0.1-0.8-0.3S52.4,58.5,52.4,58.2z M54.5,66.2h-2v-6.3h2V66.2z"/>
				<path class="st0" d="M59.3,66.2c-0.1-0.1-0.1-0.3-0.2-0.6c-0.4,0.5-0.9,0.7-1.5,0.7c-0.6,0-1.1-0.2-1.5-0.5s-0.6-0.8-0.6-1.4
					c0-0.7,0.3-1.2,0.8-1.6s1.2-0.5,2.2-0.5H59V62c0-0.6-0.3-0.9-0.8-0.9c-0.5,0-0.7,0.2-0.7,0.7h-2c0-0.6,0.3-1.1,0.8-1.5
					c0.5-0.4,1.2-0.6,2-0.6s1.4,0.2,1.9,0.6S61,61.3,61,62v2.8c0,0.6,0.1,1,0.3,1.3v0.1H59.3z M58,64.9c0.2,0,0.5-0.1,0.6-0.2
					s0.3-0.2,0.3-0.4v-1h-0.6c-0.7,0-1,0.3-1,0.9c0,0.2,0.1,0.3,0.2,0.4S57.8,64.9,58,64.9z"/>
				<path class="st0" d="M65.4,64.4c0-0.2-0.1-0.3-0.3-0.4s-0.5-0.2-1-0.3s-0.9-0.3-1.2-0.4s-0.6-0.4-0.7-0.6s-0.3-0.5-0.3-0.9
					c0-0.6,0.2-1.1,0.7-1.4s1.1-0.6,1.9-0.6c0.8,0,1.5,0.2,2,0.6s0.8,0.9,0.8,1.5h-2c0-0.5-0.3-0.8-0.8-0.8c-0.2,0-0.4,0.1-0.5,0.2
					s-0.2,0.3-0.2,0.4c0,0.2,0.1,0.3,0.3,0.4s0.4,0.2,0.8,0.3s0.7,0.2,1,0.3c1,0.3,1.4,0.9,1.4,1.8c0,0.6-0.3,1-0.8,1.4
					s-1.2,0.5-2,0.5c-0.5,0-1-0.1-1.5-0.3s-0.8-0.5-1-0.8s-0.4-0.7-0.4-1.1h1.8c0,0.3,0.1,0.5,0.3,0.6s0.4,0.2,0.7,0.2
					c0.3,0,0.5-0.1,0.6-0.2S65.4,64.6,65.4,64.4z"/>
			</g>
		</g>
		<g>
			<path class="st1" d="M14.8,75.5c-0.6-0.2-1.1-0.4-1.4-0.7s-0.4-0.6-0.4-1c0-0.4,0.2-0.8,0.5-1.1c0.3-0.3,0.8-0.4,1.4-0.4
				c0.4,0,0.7,0.1,1,0.2c0.3,0.1,0.5,0.3,0.7,0.6s0.2,0.5,0.2,0.8h-0.7c0-0.3-0.1-0.6-0.3-0.8c-0.2-0.2-0.5-0.3-0.9-0.3
				c-0.4,0-0.6,0.1-0.8,0.2s-0.3,0.4-0.3,0.7c0,0.2,0.1,0.4,0.3,0.6c0.2,0.2,0.5,0.3,1,0.4c0.5,0.1,0.8,0.3,1.1,0.4
				c0.3,0.2,0.5,0.3,0.6,0.5c0.1,0.2,0.2,0.5,0.2,0.7c0,0.4-0.2,0.8-0.5,1.1c-0.3,0.3-0.8,0.4-1.4,0.4c-0.4,0-0.7-0.1-1.1-0.2
				s-0.6-0.3-0.8-0.6s-0.3-0.5-0.3-0.9h0.7c0,0.3,0.1,0.6,0.4,0.8c0.2,0.2,0.6,0.3,1,0.3c0.4,0,0.7-0.1,0.9-0.2
				c0.2-0.2,0.3-0.4,0.3-0.6s-0.1-0.5-0.3-0.6S15.3,75.7,14.8,75.5z"/>
			<path class="st1" d="M20.3,77.6c-0.3,0.3-0.7,0.5-1.2,0.5c-0.4,0-0.8-0.1-1-0.4c-0.2-0.3-0.3-0.6-0.3-1.1v-2.7h0.7v2.7
				c0,0.6,0.3,0.9,0.8,0.9c0.5,0,0.9-0.2,1.1-0.6v-3h0.7V78h-0.7L20.3,77.6z"/>
			<path class="st1" d="M25.5,76c0,0.6-0.1,1.1-0.4,1.5c-0.3,0.4-0.7,0.6-1.2,0.6c-0.5,0-0.9-0.2-1.2-0.6l0,0.5H22v-5.8h0.7v2.2
				c0.3-0.4,0.7-0.5,1.2-0.5c0.5,0,0.9,0.2,1.2,0.6C25.3,74.7,25.5,75.3,25.5,76L25.5,76z M24.8,75.9c0-0.5-0.1-0.8-0.3-1.1
				s-0.5-0.4-0.8-0.4c-0.5,0-0.8,0.2-1,0.6v1.8c0.2,0.4,0.6,0.6,1,0.6c0.3,0,0.6-0.1,0.8-0.4C24.7,76.8,24.8,76.4,24.8,75.9z"/>
			<path class="st1" d="M26.4,72.8c0-0.1,0-0.2,0.1-0.3c0.1-0.1,0.2-0.1,0.3-0.1s0.2,0,0.3,0.1c0.1,0.1,0.1,0.2,0.1,0.3
				c0,0.1,0,0.2-0.1,0.3c-0.1,0.1-0.2,0.1-0.3,0.1s-0.2,0-0.3-0.1C26.4,73,26.4,72.9,26.4,72.8z M27.1,78h-0.7v-4.1h0.7V78z"/>
			<path class="st1" d="M30.2,74.5c-0.1,0-0.2,0-0.3,0c-0.5,0-0.8,0.2-0.9,0.6V78h-0.7v-4.1h0.7l0,0.5c0.2-0.4,0.6-0.5,1-0.5
				c0.1,0,0.2,0,0.3,0.1V74.5z"/>
			<path class="st1" d="M33.5,73.9l0,0.5c0.3-0.4,0.7-0.6,1.2-0.6c0.9,0,1.3,0.5,1.3,1.5V78h-0.7v-2.7c0-0.3-0.1-0.5-0.2-0.7
				s-0.3-0.2-0.6-0.2c-0.2,0-0.4,0.1-0.6,0.2c-0.2,0.1-0.3,0.3-0.4,0.5V78h-0.7v-4.1H33.5z"/>
			<path class="st1" d="M39.6,77.6c-0.3,0.3-0.7,0.5-1.2,0.5c-0.4,0-0.8-0.1-1-0.4c-0.2-0.3-0.3-0.6-0.3-1.1v-2.7h0.7v2.7
				c0,0.6,0.3,0.9,0.8,0.9c0.5,0,0.9-0.2,1.1-0.6v-3h0.7V78h-0.7L39.6,77.6z"/>
			<path class="st1" d="M43.1,78.1c-0.6,0-1-0.2-1.4-0.5c-0.3-0.4-0.5-0.9-0.5-1.5v-0.1c0-0.4,0.1-0.8,0.2-1.1s0.4-0.6,0.7-0.8
				c0.3-0.2,0.6-0.3,0.9-0.3c0.5,0,0.9,0.2,1.2,0.5c0.3,0.4,0.4,0.9,0.4,1.5v0.3h-2.8c0,0.4,0.1,0.7,0.4,1s0.5,0.4,0.9,0.4
				c0.2,0,0.5-0.1,0.6-0.2c0.2-0.1,0.3-0.2,0.5-0.4l0.4,0.3C44.3,77.8,43.8,78.1,43.1,78.1z M43,74.4c-0.3,0-0.5,0.1-0.7,0.3
				c-0.2,0.2-0.3,0.5-0.4,0.9H44v-0.1c0-0.4-0.1-0.6-0.3-0.8S43.3,74.4,43,74.4z"/>
			<path class="st1" d="M46.8,77l1-3.2h0.7L47.1,78h-0.5L45,73.9h0.7L46.8,77z"/>
			<path class="st1" d="M51.7,78c0-0.1-0.1-0.2-0.1-0.4c-0.3,0.3-0.7,0.5-1.2,0.5c-0.4,0-0.7-0.1-1-0.3c-0.3-0.2-0.4-0.5-0.4-0.9
				c0-0.4,0.2-0.8,0.5-1c0.3-0.2,0.8-0.4,1.4-0.4h0.7v-0.3c0-0.2-0.1-0.4-0.2-0.6s-0.4-0.2-0.6-0.2c-0.2,0-0.5,0.1-0.6,0.2
				c-0.2,0.1-0.3,0.3-0.3,0.5h-0.7c0-0.2,0.1-0.4,0.2-0.6c0.1-0.2,0.3-0.3,0.6-0.5s0.5-0.2,0.8-0.2c0.5,0,0.8,0.1,1.1,0.4
				c0.3,0.2,0.4,0.6,0.4,1V77c0,0.4,0,0.7,0.1,0.9V78H51.7z M50.5,77.4c0.2,0,0.4-0.1,0.6-0.2c0.2-0.1,0.3-0.3,0.4-0.4V76H51
				c-0.9,0-1.3,0.3-1.3,0.8c0,0.2,0.1,0.4,0.2,0.5S50.3,77.4,50.5,77.4z"/>
			<path class="st1" d="M56,73.9l0,0.5c0.3-0.4,0.7-0.6,1.2-0.6c0.9,0,1.3,0.5,1.3,1.5V78h-0.7v-2.7c0-0.3-0.1-0.5-0.2-0.7
				s-0.3-0.2-0.6-0.2c-0.2,0-0.4,0.1-0.6,0.2c-0.2,0.1-0.3,0.3-0.4,0.5V78h-0.7v-4.1H56z"/>
			<path class="st1" d="M59.4,75.9c0-0.4,0.1-0.8,0.2-1.1s0.4-0.6,0.7-0.7s0.6-0.3,1-0.3c0.6,0,1,0.2,1.4,0.6
				c0.3,0.4,0.5,0.9,0.5,1.5v0c0,0.4-0.1,0.8-0.2,1.1c-0.2,0.3-0.4,0.6-0.7,0.7c-0.3,0.2-0.6,0.3-1,0.3c-0.6,0-1-0.2-1.4-0.6
				C59.6,77.1,59.4,76.6,59.4,75.9L59.4,75.9z M60.1,76c0,0.5,0.1,0.8,0.3,1.1c0.2,0.3,0.5,0.4,0.8,0.4c0.4,0,0.6-0.1,0.8-0.4
				c0.2-0.3,0.3-0.7,0.3-1.2c0-0.5-0.1-0.8-0.3-1.1c-0.2-0.3-0.5-0.4-0.9-0.4c-0.3,0-0.6,0.1-0.8,0.4C60.2,75.1,60.1,75.5,60.1,76z"
				/>
			<path class="st1" d="M65,72.9v1h0.8v0.5H65V77c0,0.2,0,0.3,0.1,0.4c0.1,0.1,0.2,0.1,0.3,0.1c0.1,0,0.2,0,0.3,0V78
				c-0.2,0.1-0.4,0.1-0.5,0.1c-0.3,0-0.5-0.1-0.7-0.3c-0.2-0.2-0.2-0.5-0.2-0.8v-2.5h-0.7v-0.5h0.7v-1H65z"/>
			<path class="st1" d="M66.6,72.8c0-0.1,0-0.2,0.1-0.3c0.1-0.1,0.2-0.1,0.3-0.1s0.2,0,0.3,0.1c0.1,0.1,0.1,0.2,0.1,0.3
				c0,0.1,0,0.2-0.1,0.3c-0.1,0.1-0.2,0.1-0.3,0.1s-0.2,0-0.3-0.1C66.6,73,66.6,72.9,66.6,72.8z M67.3,78h-0.7v-4.1h0.7V78z"/>
			<path class="st1" d="M70.1,77.5c0.2,0,0.5-0.1,0.7-0.2c0.2-0.2,0.3-0.3,0.3-0.6h0.7c0,0.2-0.1,0.5-0.2,0.7
				c-0.1,0.2-0.3,0.4-0.6,0.5c-0.2,0.1-0.5,0.2-0.8,0.2c-0.6,0-1-0.2-1.3-0.6s-0.5-0.9-0.5-1.5v-0.1c0-0.4,0.1-0.8,0.2-1.1
				c0.1-0.3,0.4-0.6,0.6-0.7s0.6-0.3,1-0.3c0.5,0,0.8,0.1,1.1,0.4c0.3,0.3,0.5,0.6,0.5,1.1h-0.7c0-0.3-0.1-0.5-0.3-0.7
				c-0.2-0.2-0.4-0.3-0.7-0.3c-0.4,0-0.6,0.1-0.8,0.4C69.1,75,69,75.4,69,75.9V76c0,0.5,0.1,0.8,0.3,1.1
				C69.5,77.4,69.7,77.5,70.1,77.5z"/>
			<path class="st1" d="M72.5,72.8c0-0.1,0-0.2,0.1-0.3c0.1-0.1,0.2-0.1,0.3-0.1s0.2,0,0.3,0.1c0.1,0.1,0.1,0.2,0.1,0.3
				c0,0.1,0,0.2-0.1,0.3c-0.1,0.1-0.2,0.1-0.3,0.1s-0.2,0-0.3-0.1S72.5,72.9,72.5,72.8z M73.3,78h-0.7v-4.1h0.7V78z"/>
			<path class="st1" d="M76.9,78c0-0.1-0.1-0.2-0.1-0.4c-0.3,0.3-0.7,0.5-1.2,0.5c-0.4,0-0.7-0.1-1-0.3c-0.3-0.2-0.4-0.5-0.4-0.9
				c0-0.4,0.2-0.8,0.5-1c0.3-0.2,0.8-0.4,1.4-0.4h0.7v-0.3c0-0.2-0.1-0.4-0.2-0.6c-0.1-0.1-0.4-0.2-0.6-0.2c-0.3,0-0.5,0.1-0.6,0.2
				c-0.2,0.1-0.3,0.3-0.3,0.5h-0.7c0-0.2,0.1-0.4,0.2-0.6c0.1-0.2,0.3-0.3,0.6-0.5s0.5-0.2,0.8-0.2c0.5,0,0.8,0.1,1.1,0.4
				c0.3,0.2,0.4,0.6,0.4,1V77c0,0.4,0,0.7,0.1,0.9V78H76.9z M75.8,77.4c0.2,0,0.4-0.1,0.6-0.2c0.2-0.1,0.3-0.3,0.4-0.4V76h-0.6
				c-0.9,0-1.3,0.3-1.3,0.8c0,0.2,0.1,0.4,0.2,0.5C75.4,77.4,75.5,77.4,75.8,77.4z"/>
		</g>
	</g>
	<g>
		<g>
			<path class="st4" d="M55,47.5H32.5C29.4,47.5,27,45,27,42V12c0-3.1,2.5-5.6,5.6-5.6H55c3.1,0,5.6,2.5,5.6,5.6v27.2
				c0,0.4-0.3,0.8-0.8,0.8S59,39.6,59,39.2V12c0-2.2-1.8-4.1-4.1-4.1H32.5c-2.2,0-4.1,1.8-4.1,4.1v30c0,2.2,1.8,4.1,4.1,4.1H55
				c0.4,0,0.8,0.3,0.8,0.8S55.4,47.5,55,47.5z"/>
		</g>
		<g>
			<g>
				<path class="st3" d="M50.4,41l5.5-5.2c0.3-0.3,0.9-0.3,1.2,0l4.5,4.2l1,1c0.3,0.3,0.3,0.7,0.2,1c-0.1,0.3-0.4,0.6-0.8,0.6h-3
					v5.7c0,0.5-0.4,0.9-0.9,0.9h-3.3c-0.5,0-0.9-0.4-0.9-0.9v-5.7h-3c-0.4,0-0.7-0.3-0.8-0.6C50.1,41.7,50.1,41.3,50.4,41z"/>
				<path class="st4" d="M58.2,49.9h-3.3c-0.9,0-1.6-0.7-1.6-1.6v-5H51c-0.7,0-1.3-0.4-1.5-1c-0.2-0.6-0.1-1.3,0.4-1.8c0,0,0,0,0,0
					l5.5-5.2c0.6-0.6,1.6-0.6,2.2,0l5.5,5.2c0.5,0.5,0.7,1.2,0.4,1.8c-0.2,0.6-0.8,1-1.5,1h-2.3v5C59.8,49.1,59.1,49.9,58.2,49.9z
					 M50.9,41.6c0,0-0.1,0.1,0,0.1c0,0.1,0.1,0.1,0.1,0.1h3c0.4,0,0.8,0.3,0.8,0.8v5.7c0,0.1,0.1,0.1,0.1,0.1h3.3
					c0.1,0,0.1-0.1,0.1-0.1v-5.7c0-0.4,0.3-0.8,0.8-0.8h3c0.1,0,0.1,0,0.1-0.1c0-0.1,0-0.1,0-0.1l-5.5-5.2c0,0-0.1,0-0.2,0
					L50.9,41.6z"/>
			</g>
		</g>
		<g>
			<rect x="34.9" y="13.2" class="st3" width="9.3" height="9.2"/>
			<path class="st4" d="M44.3,23.1h-9.3c-0.4,0-0.8-0.3-0.8-0.8v-9.2c0-0.4,0.3-0.8,0.8-0.8h9.3c0.4,0,0.8,0.3,0.8,0.8v9.2
				C45,22.8,44.7,23.1,44.3,23.1z M35.7,21.6h7.8v-7.7h-7.8V21.6z"/>
		</g>
		<g>
			<path class="st4" d="M52.5,28.2H34.8c-0.4,0-0.8-0.3-0.8-0.8s0.3-0.8,0.8-0.8h17.6c0.4,0,0.8,0.3,0.8,0.8S52.9,28.2,52.5,28.2z"
				/>
		</g>
		<g>
			<path class="st4" d="M48.9,34h-14c-0.4,0-0.8-0.3-0.8-0.8s0.3-0.8,0.8-0.8h14c0.4,0,0.8,0.3,0.8,0.8S49.4,34,48.9,34z"/>
		</g>
		<g>
			<path class="st4" d="M44.1,39.7h-9.2c-0.4,0-0.8-0.3-0.8-0.8s0.3-0.8,0.8-0.8h9.2c0.4,0,0.8,0.3,0.8,0.8S44.5,39.7,44.1,39.7z"/>
		</g>
		<g>
			<path class="st4" d="M52.5,15.9h-4.2c-0.4,0-0.8-0.3-0.8-0.8s0.3-0.8,0.8-0.8h4.2c0.4,0,0.8,0.3,0.8,0.8S52.9,15.9,52.5,15.9z"/>
		</g>
		<g>
			<path class="st4" d="M52.5,21.7h-4.2c-0.4,0-0.8-0.3-0.8-0.8s0.3-0.8,0.8-0.8h4.2c0.4,0,0.8,0.3,0.8,0.8S52.9,21.7,52.5,21.7z"/>
		</g>
	</g>
</g>
</svg>
