<?xml version="1.0" encoding="utf-8"?>
<!-- Generator: Adobe Illustrator 26.0.0, SVG Export Plug-In . SVG Version: 6.00 Build 0)  -->
<svg version="1.1" id="Capa_1" xmlns="http://www.w3.org/2000/svg" xmlns:xlink="http://www.w3.org/1999/xlink" x="0px" y="0px"
	 viewBox="0 0 91.1 85.8" style="enable-background:new 0 0 91.1 85.8;" xml:space="preserve">
<style type="text/css">
	.st0{fill:#FDC93E;}
	.st1{fill:#4CB8AB;}
	.st2{fill:#2D3D80;}
	.st3{fill:#FCC83D;}
	.st4{fill:#FDC93E;stroke:#2E3D82;stroke-width:1.5;stroke-linecap:round;stroke-linejoin:round;stroke-miterlimit:10;}
	.st5{fill:none;stroke:#2E3D82;stroke-width:1.5;stroke-linecap:round;stroke-linejoin:round;stroke-miterlimit:10;}
	.st6{fill:#2E3D82;}
	.st7{fill:#FFFFFF;stroke:#2E3D82;stroke-width:1.5;stroke-linecap:round;stroke-linejoin:round;stroke-miterlimit:10;}
</style>
<g>
	<g>
		<g>
			<path class="st1" d="M9,62.6v2.9H7V57h3.4c0.7,0,1.2,0.1,1.7,0.4s0.9,0.6,1.2,1s0.4,0.9,0.4,1.5c0,0.8-0.3,1.5-0.9,2
				s-1.4,0.7-2.5,0.7H9z M9,61h1.3c0.4,0,0.7-0.1,0.9-0.3s0.3-0.5,0.3-0.8c0-0.4-0.1-0.7-0.3-1s-0.5-0.4-0.9-0.4H9V61z"/>
			<path class="st1" d="M18.2,65.5c-0.1-0.1-0.1-0.3-0.2-0.6c-0.4,0.5-0.9,0.7-1.5,0.7c-0.6,0-1.1-0.2-1.5-0.5s-0.6-0.8-0.6-1.4
				c0-0.7,0.3-1.2,0.8-1.6s1.2-0.5,2.2-0.5h0.6v-0.3c0-0.6-0.3-0.9-0.8-0.9c-0.5,0-0.7,0.2-0.7,0.7h-2c0-0.6,0.3-1.1,0.8-1.5
				c0.5-0.4,1.2-0.6,2-0.6s1.4,0.2,1.9,0.6s0.7,0.9,0.7,1.6V64c0,0.6,0.1,1,0.3,1.3v0.1H18.2z M17,64.2c0.2,0,0.5-0.1,0.6-0.2
				c0.2-0.1,0.3-0.2,0.3-0.4v-1h-0.6c-0.7,0-1,0.3-1,0.9c0,0.2,0.1,0.3,0.2,0.4C16.6,64.1,16.8,64.2,17,64.2z"/>
			<path class="st1" d="M24.8,60.9l-0.7,0c-0.6,0-1,0.2-1.2,0.6v4h-2v-6.3h1.9l0.1,0.8c0.3-0.6,0.8-0.9,1.4-0.9c0.2,0,0.4,0,0.6,0.1
				L24.8,60.9z"/>
			<path class="st1" d="M28.1,57.6v1.6h1v1.4h-1v2.9c0,0.2,0,0.4,0.1,0.5c0.1,0.1,0.3,0.1,0.5,0.1c0.2,0,0.4,0,0.5,0v1.4
				c-0.4,0.1-0.7,0.2-1.1,0.2c-0.7,0-1.2-0.2-1.5-0.5s-0.5-0.8-0.5-1.5v-3.1h-0.8v-1.4h0.8v-1.6H28.1z"/>
			<path class="st1" d="M33,65.6c-1,0-1.8-0.3-2.4-0.9s-0.9-1.3-0.9-2.3v-0.2c0-0.6,0.1-1.2,0.4-1.7s0.6-0.9,1.1-1.2s1-0.4,1.6-0.4
				c0.9,0,1.6,0.3,2.1,0.8s0.8,1.3,0.8,2.3v0.8h-3.9c0.1,0.4,0.2,0.6,0.5,0.8s0.5,0.3,0.9,0.3c0.6,0,1.1-0.2,1.5-0.7l0.9,1.1
				c-0.2,0.3-0.6,0.6-1,0.8S33.5,65.6,33,65.6z M32.8,60.5c-0.6,0-0.9,0.4-1,1.1h2v-0.2c0-0.3-0.1-0.6-0.2-0.7S33.1,60.5,32.8,60.5z
				"/>
			<path class="st1" d="M42.8,63.7c0-0.2-0.1-0.3-0.3-0.4s-0.5-0.2-1-0.3s-0.9-0.3-1.2-0.4s-0.6-0.4-0.7-0.6s-0.3-0.5-0.3-0.9
				c0-0.6,0.2-1.1,0.7-1.4s1.1-0.6,1.9-0.6c0.8,0,1.5,0.2,2,0.6s0.8,0.9,0.8,1.5h-2c0-0.5-0.3-0.8-0.8-0.8c-0.2,0-0.4,0.1-0.5,0.2
				s-0.2,0.3-0.2,0.4c0,0.2,0.1,0.3,0.3,0.4s0.4,0.2,0.8,0.3s0.7,0.2,1,0.3c1,0.3,1.4,0.9,1.4,1.8c0,0.6-0.3,1-0.8,1.4
				s-1.2,0.5-2,0.5c-0.5,0-1-0.1-1.5-0.3s-0.8-0.5-1-0.8s-0.4-0.7-0.4-1.1H41c0,0.3,0.1,0.5,0.3,0.6c0.2,0.1,0.4,0.2,0.7,0.2
				c0.3,0,0.5-0.1,0.6-0.2S42.8,63.9,42.8,63.7z"/>
			<path class="st1" d="M48.7,65.6c-1,0-1.8-0.3-2.4-0.9s-0.9-1.3-0.9-2.3v-0.2c0-0.6,0.1-1.2,0.4-1.7s0.6-0.9,1.1-1.2
				s1-0.4,1.6-0.4c0.9,0,1.6,0.3,2.1,0.8s0.8,1.3,0.8,2.3v0.8h-3.9c0.1,0.4,0.2,0.6,0.5,0.8s0.5,0.3,0.9,0.3c0.6,0,1.1-0.2,1.5-0.7
				l0.9,1.1c-0.2,0.3-0.6,0.6-1,0.8S49.2,65.6,48.7,65.6z M48.5,60.5c-0.6,0-0.9,0.4-1,1.1h2v-0.2c0-0.3-0.1-0.6-0.2-0.7
				S48.8,60.5,48.5,60.5z"/>
			<path class="st1" d="M54,59.1l0.1,0.7c0.4-0.6,1.1-0.9,1.8-0.9c0.8,0,1.3,0.3,1.6,1c0.4-0.6,1.1-1,1.9-1c1.3,0,1.9,0.8,2,2.3v4.1
				h-2v-4c0-0.3-0.1-0.6-0.2-0.7s-0.3-0.2-0.6-0.2c-0.4,0-0.7,0.2-0.9,0.5l0,0.1v4.3h-2v-4c0-0.3-0.1-0.6-0.2-0.7s-0.3-0.2-0.6-0.2
				c-0.4,0-0.7,0.2-0.9,0.5v4.4h-2v-6.3H54z"/>
			<path class="st1" d="M66.1,65.5c-0.1-0.1-0.1-0.3-0.2-0.6c-0.4,0.5-0.9,0.7-1.5,0.7c-0.6,0-1.1-0.2-1.5-0.5s-0.6-0.8-0.6-1.4
				c0-0.7,0.3-1.2,0.8-1.6s1.2-0.5,2.2-0.5h0.6v-0.3c0-0.6-0.3-0.9-0.8-0.9c-0.5,0-0.7,0.2-0.7,0.7h-2c0-0.6,0.3-1.1,0.8-1.5
				c0.5-0.4,1.2-0.6,2-0.6s1.4,0.2,1.9,0.6s0.7,0.9,0.7,1.6V64c0,0.6,0.1,1,0.3,1.3v0.1H66.1z M64.8,64.2c0.2,0,0.5-0.1,0.6-0.2
				c0.2-0.1,0.3-0.2,0.3-0.4v-1h-0.6c-0.7,0-1,0.3-1,0.9c0,0.2,0.1,0.3,0.2,0.4C64.5,64.1,64.6,64.2,64.8,64.2z"/>
			<path class="st1" d="M70.7,59.1l0.1,0.7c0.4-0.6,1-0.9,1.8-0.9c0.7,0,1.2,0.2,1.5,0.6s0.5,1,0.5,1.8v4.1h-2v-4
				c0-0.3-0.1-0.6-0.2-0.7s-0.4-0.2-0.7-0.2c-0.4,0-0.7,0.2-0.9,0.5v4.5h-2v-6.3H70.7z"/>
			<path class="st1" d="M79.2,65.5c-0.1-0.1-0.1-0.3-0.2-0.6c-0.4,0.5-0.9,0.7-1.5,0.7c-0.6,0-1.1-0.2-1.5-0.5s-0.6-0.8-0.6-1.4
				c0-0.7,0.3-1.2,0.8-1.6s1.2-0.5,2.2-0.5h0.6v-0.3c0-0.6-0.3-0.9-0.8-0.9c-0.5,0-0.7,0.2-0.7,0.7h-2c0-0.6,0.3-1.1,0.8-1.5
				c0.5-0.4,1.2-0.6,2-0.6s1.4,0.2,1.9,0.6s0.7,0.9,0.7,1.6V64c0,0.6,0.1,1,0.3,1.3v0.1H79.2z M78,64.2c0.2,0,0.5-0.1,0.6-0.2
				c0.2-0.1,0.3-0.2,0.3-0.4v-1h-0.6c-0.7,0-1,0.3-1,0.9c0,0.2,0.1,0.3,0.2,0.4C77.6,64.1,77.8,64.2,78,64.2z"/>
			<path class="st1" d="M84.1,65.5h-2v-9h2V65.5z"/>
		</g>
	</g>
	<g>
		<g>
			<path class="st2" d="M11.6,71.7v3.8c0,0.5-0.2,0.9-0.5,1.3c-0.3,0.3-0.8,0.5-1.3,0.6l-0.2,0c-0.6,0-1.1-0.2-1.4-0.5
				c-0.4-0.3-0.5-0.8-0.5-1.3v-3.8h0.7v3.7c0,0.4,0.1,0.7,0.3,0.9c0.2,0.2,0.5,0.3,0.9,0.3c0.4,0,0.7-0.1,0.9-0.3
				c0.2-0.2,0.3-0.5,0.3-0.9v-3.7H11.6z"/>
			<path class="st2" d="M13.4,73.2l0,0.5c0.3-0.4,0.7-0.6,1.2-0.6c0.9,0,1.3,0.5,1.3,1.5v2.7h-0.7v-2.7c0-0.3-0.1-0.5-0.2-0.7
				s-0.3-0.2-0.6-0.2c-0.2,0-0.4,0.1-0.6,0.2c-0.2,0.1-0.3,0.3-0.4,0.5v2.9h-0.7v-4.1H13.4z"/>
			<path class="st2" d="M17,72.1c0-0.1,0-0.2,0.1-0.3c0.1-0.1,0.2-0.1,0.3-0.1s0.2,0,0.3,0.1c0.1,0.1,0.1,0.2,0.1,0.3
				c0,0.1,0,0.2-0.1,0.3s-0.2,0.1-0.3,0.1s-0.2,0-0.3-0.1C17,72.3,17,72.2,17,72.1z M17.7,77.3H17v-4.1h0.7V77.3z"/>
			<path class="st2" d="M18.7,75.2c0-0.6,0.1-1.1,0.4-1.5c0.3-0.4,0.7-0.6,1.2-0.6c0.5,0,0.9,0.2,1.1,0.5v-2.1h0.7v5.8h-0.6l0-0.4
				c-0.3,0.3-0.7,0.5-1.2,0.5c-0.5,0-0.9-0.2-1.2-0.6S18.7,75.9,18.7,75.2L18.7,75.2z M19.4,75.3c0,0.5,0.1,0.8,0.3,1.1
				c0.2,0.3,0.5,0.4,0.8,0.4c0.4,0,0.8-0.2,1-0.6v-1.9c-0.2-0.4-0.5-0.6-1-0.6c-0.3,0-0.6,0.1-0.8,0.4
				C19.5,74.4,19.4,74.7,19.4,75.3z"/>
			<path class="st2" d="M25.8,77.3c0-0.1-0.1-0.2-0.1-0.4c-0.3,0.3-0.7,0.5-1.2,0.5c-0.4,0-0.7-0.1-1-0.3c-0.3-0.2-0.4-0.5-0.4-0.9
				c0-0.4,0.2-0.8,0.5-1c0.3-0.2,0.8-0.4,1.4-0.4h0.7v-0.3c0-0.2-0.1-0.4-0.2-0.6c-0.1-0.1-0.4-0.2-0.6-0.2c-0.3,0-0.5,0.1-0.6,0.2
				c-0.2,0.1-0.3,0.3-0.3,0.5h-0.7c0-0.2,0.1-0.4,0.2-0.6c0.1-0.2,0.3-0.3,0.6-0.5s0.5-0.2,0.8-0.2c0.5,0,0.8,0.1,1.1,0.4
				c0.3,0.2,0.4,0.6,0.4,1v1.9c0,0.4,0,0.7,0.1,0.9v0.1H25.8z M24.6,76.7c0.2,0,0.4-0.1,0.6-0.2c0.2-0.1,0.3-0.3,0.4-0.4v-0.8h-0.6
				c-0.9,0-1.3,0.3-1.3,0.8c0,0.2,0.1,0.4,0.2,0.5C24.2,76.7,24.4,76.7,24.6,76.7z"/>
			<path class="st2" d="M27.3,75.2c0-0.6,0.1-1.1,0.4-1.5c0.3-0.4,0.7-0.6,1.2-0.6c0.5,0,0.9,0.2,1.1,0.5v-2.1h0.7v5.8h-0.6l0-0.4
				c-0.3,0.3-0.7,0.5-1.2,0.5c-0.5,0-0.9-0.2-1.2-0.6S27.3,75.9,27.3,75.2L27.3,75.2z M28,75.3c0,0.5,0.1,0.8,0.3,1.1
				c0.2,0.3,0.5,0.4,0.8,0.4c0.4,0,0.8-0.2,1-0.6v-1.9c-0.2-0.4-0.5-0.6-1-0.6c-0.3,0-0.6,0.1-0.8,0.4C28.1,74.4,28,74.7,28,75.3z"
				/>
			<path class="st2" d="M33.6,77.3c-0.6,0-1-0.2-1.4-0.5c-0.3-0.4-0.5-0.9-0.5-1.5v-0.1c0-0.4,0.1-0.8,0.2-1.1
				c0.2-0.3,0.4-0.6,0.7-0.8c0.3-0.2,0.6-0.3,0.9-0.3c0.5,0,0.9,0.2,1.2,0.5c0.3,0.4,0.4,0.9,0.4,1.5v0.3h-2.8c0,0.4,0.1,0.7,0.4,1
				s0.5,0.4,0.9,0.4c0.2,0,0.5-0.1,0.6-0.2c0.2-0.1,0.3-0.2,0.5-0.4l0.4,0.3C34.8,77.1,34.2,77.3,33.6,77.3z M33.5,73.7
				c-0.3,0-0.5,0.1-0.7,0.3c-0.2,0.2-0.3,0.5-0.4,0.9h2.1v-0.1c0-0.4-0.1-0.6-0.3-0.8C34,73.8,33.8,73.7,33.5,73.7z"/>
			<path class="st2" d="M38.4,76.2c0-0.2-0.1-0.3-0.2-0.4c-0.1-0.1-0.4-0.2-0.7-0.3c-0.4-0.1-0.6-0.2-0.8-0.3
				c-0.2-0.1-0.4-0.2-0.5-0.4c-0.1-0.1-0.1-0.3-0.1-0.5c0-0.3,0.1-0.6,0.4-0.9c0.3-0.2,0.6-0.3,1.1-0.3c0.5,0,0.8,0.1,1.1,0.4
				S39,74,39,74.4h-0.7c0-0.2-0.1-0.4-0.2-0.5c-0.2-0.1-0.4-0.2-0.6-0.2c-0.3,0-0.5,0.1-0.6,0.2c-0.1,0.1-0.2,0.3-0.2,0.4
				c0,0.2,0.1,0.3,0.2,0.4c0.1,0.1,0.4,0.2,0.7,0.2c0.4,0.1,0.6,0.2,0.9,0.3c0.2,0.1,0.4,0.2,0.5,0.4s0.2,0.3,0.2,0.6
				c0,0.4-0.1,0.7-0.4,0.9c-0.3,0.2-0.7,0.3-1.1,0.3c-0.3,0-0.6-0.1-0.9-0.2c-0.3-0.1-0.5-0.3-0.6-0.5c-0.1-0.2-0.2-0.4-0.2-0.7h0.7
				c0,0.2,0.1,0.4,0.3,0.6s0.4,0.2,0.7,0.2c0.3,0,0.5-0.1,0.6-0.2S38.4,76.4,38.4,76.2z"/>
			<path class="st2" d="M43.2,76.2l1-3.1H45l-1.7,4.7c-0.3,0.7-0.7,1-1.2,1l-0.1,0l-0.3,0v-0.6l0.2,0c0.2,0,0.4,0,0.6-0.1
				c0.1-0.1,0.2-0.3,0.3-0.5l0.2-0.4l-1.5-4.1h0.8L43.2,76.2z"/>
			<path class="st2" d="M51.7,75.5c-0.1,0.6-0.3,1-0.6,1.4c-0.4,0.3-0.8,0.5-1.4,0.5c-0.7,0-1.2-0.2-1.6-0.7
				c-0.4-0.5-0.6-1.1-0.6-1.9v-0.5c0-0.5,0.1-1,0.3-1.4c0.2-0.4,0.4-0.7,0.8-0.9c0.3-0.2,0.7-0.3,1.2-0.3c0.6,0,1.1,0.2,1.4,0.5
				c0.4,0.3,0.6,0.8,0.6,1.4h-0.7c-0.1-0.4-0.2-0.8-0.4-1c-0.2-0.2-0.5-0.3-0.9-0.3c-0.5,0-0.8,0.2-1.1,0.5
				c-0.3,0.3-0.4,0.8-0.4,1.5v0.5c0,0.6,0.1,1.1,0.4,1.4s0.6,0.5,1.1,0.5c0.4,0,0.7-0.1,0.9-0.3s0.4-0.5,0.4-1H51.7z"/>
			<path class="st2" d="M52.4,75.2c0-0.4,0.1-0.8,0.2-1.1s0.4-0.6,0.7-0.7s0.6-0.3,1-0.3c0.6,0,1,0.2,1.4,0.6
				c0.3,0.4,0.5,0.9,0.5,1.5v0c0,0.4-0.1,0.8-0.2,1.1c-0.2,0.3-0.4,0.6-0.7,0.7c-0.3,0.2-0.6,0.3-1,0.3c-0.6,0-1-0.2-1.4-0.6
				C52.5,76.4,52.4,75.9,52.4,75.2L52.4,75.2z M53.1,75.3c0,0.5,0.1,0.8,0.3,1.1c0.2,0.3,0.5,0.4,0.8,0.4c0.4,0,0.6-0.1,0.9-0.4
				c0.2-0.3,0.3-0.7,0.3-1.2c0-0.5-0.1-0.8-0.3-1.1c-0.2-0.3-0.5-0.4-0.9-0.4c-0.3,0-0.6,0.1-0.8,0.4C53.2,74.4,53.1,74.8,53.1,75.3
				z"/>
			<path class="st2" d="M57.7,73.2l0,0.5c0.3-0.4,0.7-0.5,1.2-0.5c0.6,0,1,0.2,1.2,0.7c0.1-0.2,0.3-0.4,0.5-0.5
				c0.2-0.1,0.5-0.2,0.8-0.2c0.9,0,1.4,0.5,1.4,1.4v2.8H62v-2.7c0-0.3-0.1-0.5-0.2-0.7c-0.1-0.1-0.4-0.2-0.7-0.2
				c-0.3,0-0.5,0.1-0.6,0.2c-0.2,0.2-0.3,0.4-0.3,0.6v2.7h-0.7v-2.7c0-0.6-0.3-0.9-0.9-0.9c-0.5,0-0.8,0.2-0.9,0.6v3H57v-4.1H57.7z"
				/>
			<path class="st2" d="M67.3,75.3c0,0.6-0.1,1.1-0.4,1.5c-0.3,0.4-0.7,0.6-1.2,0.6c-0.5,0-0.9-0.2-1.2-0.5v2h-0.7v-5.7h0.6l0,0.5
				c0.3-0.4,0.7-0.5,1.2-0.5c0.5,0,0.9,0.2,1.2,0.6S67.3,74.5,67.3,75.3L67.3,75.3z M66.6,75.2c0-0.5-0.1-0.8-0.3-1.1
				s-0.5-0.4-0.8-0.4c-0.4,0-0.7,0.2-1,0.6v2c0.2,0.4,0.5,0.6,1,0.6c0.3,0,0.6-0.1,0.8-0.4S66.6,75.7,66.6,75.2z"/>
			<path class="st2" d="M68.9,77.3h-0.7v-5.8h0.7V77.3z"/>
			<path class="st2" d="M71.8,77.3c-0.6,0-1-0.2-1.4-0.5c-0.3-0.4-0.5-0.9-0.5-1.5v-0.1c0-0.4,0.1-0.8,0.2-1.1
				c0.2-0.3,0.4-0.6,0.7-0.8c0.3-0.2,0.6-0.3,0.9-0.3c0.5,0,0.9,0.2,1.2,0.5c0.3,0.4,0.4,0.9,0.4,1.5v0.3h-2.8c0,0.4,0.1,0.7,0.4,1
				s0.5,0.4,0.9,0.4c0.2,0,0.5-0.1,0.6-0.2c0.2-0.1,0.3-0.2,0.5-0.4l0.4,0.3C73,77.1,72.4,77.3,71.8,77.3z M71.7,73.7
				c-0.3,0-0.5,0.1-0.7,0.3c-0.2,0.2-0.3,0.5-0.4,0.9h2.1v-0.1c0-0.4-0.1-0.6-0.3-0.8C72.2,73.8,72,73.7,71.7,73.7z"/>
			<path class="st2" d="M74.9,73.2v4.6c0,0.8-0.4,1.2-1.1,1.2c-0.2,0-0.3,0-0.4-0.1v-0.6c0.1,0,0.2,0,0.3,0c0.2,0,0.3,0,0.4-0.1
				s0.1-0.2,0.1-0.4v-4.6H74.9z M74.1,72.1c0-0.1,0-0.2,0.1-0.3c0.1-0.1,0.2-0.1,0.3-0.1c0.1,0,0.2,0,0.3,0.1
				c0.1,0.1,0.1,0.2,0.1,0.3c0,0.1,0,0.2-0.1,0.3c-0.1,0.1-0.2,0.1-0.3,0.1c-0.1,0-0.2,0-0.3-0.1S74.1,72.2,74.1,72.1z"/>
			<path class="st2" d="M75.8,75.2c0-0.4,0.1-0.8,0.2-1.1s0.4-0.6,0.7-0.7s0.6-0.3,1-0.3c0.6,0,1,0.2,1.4,0.6
				c0.3,0.4,0.5,0.9,0.5,1.5v0c0,0.4-0.1,0.8-0.2,1.1c-0.2,0.3-0.4,0.6-0.7,0.7c-0.3,0.2-0.6,0.3-1,0.3c-0.6,0-1-0.2-1.4-0.6
				C76,76.4,75.8,75.9,75.8,75.2L75.8,75.2z M76.5,75.3c0,0.5,0.1,0.8,0.3,1.1c0.2,0.3,0.5,0.4,0.8,0.4c0.4,0,0.6-0.1,0.9-0.4
				c0.2-0.3,0.3-0.7,0.3-1.2c0-0.5-0.1-0.8-0.3-1.1c-0.2-0.3-0.5-0.4-0.9-0.4c-0.3,0-0.6,0.1-0.8,0.4C76.7,74.4,76.5,74.8,76.5,75.3
				z"/>
			<path class="st2" d="M82.8,76.2c0-0.2-0.1-0.3-0.2-0.4c-0.1-0.1-0.4-0.2-0.7-0.3c-0.4-0.1-0.6-0.2-0.8-0.3
				c-0.2-0.1-0.4-0.2-0.5-0.4c-0.1-0.1-0.1-0.3-0.1-0.5c0-0.3,0.1-0.6,0.4-0.9c0.3-0.2,0.6-0.3,1.1-0.3c0.5,0,0.8,0.1,1.1,0.4
				s0.4,0.5,0.4,0.9h-0.7c0-0.2-0.1-0.4-0.2-0.5c-0.2-0.1-0.4-0.2-0.6-0.2c-0.3,0-0.5,0.1-0.6,0.2c-0.1,0.1-0.2,0.3-0.2,0.4
				c0,0.2,0.1,0.3,0.2,0.4c0.1,0.1,0.4,0.2,0.7,0.2c0.4,0.1,0.6,0.2,0.9,0.3c0.2,0.1,0.4,0.2,0.5,0.4s0.2,0.3,0.2,0.6
				c0,0.4-0.1,0.7-0.4,0.9c-0.3,0.2-0.7,0.3-1.1,0.3c-0.3,0-0.6-0.1-0.9-0.2c-0.3-0.1-0.5-0.3-0.6-0.5c-0.1-0.2-0.2-0.4-0.2-0.7H81
				c0,0.2,0.1,0.4,0.3,0.6s0.4,0.2,0.7,0.2c0.3,0,0.5-0.1,0.6-0.2S82.8,76.4,82.8,76.2z"/>
		</g>
	</g>
	<g>
		<rect x="32.9" y="26.9" class="st3" width="4.4" height="4.6"/>
		<rect x="40.3" y="26.9" class="st3" width="4.4" height="4.6"/>
		<rect x="47.4" y="35.7" class="st3" width="4.4" height="4.6"/>
		<rect x="54.9" y="35.8" class="st3" width="4.4" height="4.6"/>
		<rect x="47.6" y="26.8" class="st3" width="4.4" height="4.6"/>
		<g>
			<g>
				<path class="st2" d="M34,16.9c-1.6,0-2.8-1.3-2.8-2.8v-3.4c0-1.6,1.3-2.8,2.8-2.8c1.6,0,2.8,1.3,2.8,2.8v3.4
					C36.8,15.6,35.5,16.9,34,16.9z M34,9.2c-0.8,0-1.4,0.6-1.4,1.4v3.4c0,0.8,0.6,1.4,1.4,1.4c0.8,0,1.4-0.6,1.4-1.4v-3.4
					C35.4,9.9,34.7,9.2,34,9.2z"/>
			</g>
			<g>
				<path class="st2" d="M55.7,16.7c-1.6,0-2.8-1.3-2.8-2.8v-3.4c0-1.6,1.3-2.8,2.8-2.8c1.6,0,2.8,1.3,2.8,2.8v3.4
					C58.5,15.4,57.2,16.7,55.7,16.7z M55.7,9c-0.8,0-1.4,0.6-1.4,1.4v3.4c0,0.8,0.6,1.4,1.4,1.4c0.8,0,1.4-0.6,1.4-1.4v-3.4
					C57.1,9.7,56.5,9,55.7,9z"/>
			</g>
			<g>
				<path class="st2" d="M65,21.9H25.8c-0.4,0-0.7-0.3-0.7-0.7s0.3-0.7,0.7-0.7H65c0.4,0,0.7,0.3,0.7,0.7S65.4,21.9,65,21.9z"/>
			</g>
			<g>
				<path class="st2" d="M37.4,32.5H33c-0.4,0-0.7-0.3-0.7-0.7v-4.8c0-0.4,0.3-0.7,0.7-0.7h4.4c0.4,0,0.7,0.3,0.7,0.7v4.8
					C38.1,32.2,37.8,32.5,37.4,32.5z M33.7,31.1h3v-3.4h-3V31.1z"/>
			</g>
			<g>
				<path class="st2" d="M44.6,32.5h-4.4c-0.4,0-0.7-0.3-0.7-0.7v-4.8c0-0.4,0.3-0.7,0.7-0.7h4.4c0.4,0,0.7,0.3,0.7,0.7v4.8
					C45.4,32.2,45,32.5,44.6,32.5z M40.9,31.1h3v-3.4h-3V31.1z"/>
			</g>
			<g>
				<path class="st2" d="M51.9,32.5h-4.4c-0.4,0-0.7-0.3-0.7-0.7v-4.8c0-0.4,0.3-0.7,0.7-0.7h4.4c0.4,0,0.7,0.3,0.7,0.7v4.8
					C52.6,32.2,52.3,32.5,51.9,32.5z M48.2,31.1h3v-3.4h-3V31.1z"/>
			</g>
			<g>
				<path class="st2" d="M59.2,32.5h-4.4c-0.4,0-0.7-0.3-0.7-0.7v-4.8c0-0.4,0.3-0.7,0.7-0.7h4.4c0.4,0,0.7,0.3,0.7,0.7v4.8
					C59.9,32.2,59.6,32.5,59.2,32.5z M55.5,31.1h3v-3.4h-3V31.1z"/>
			</g>
			<g>
				<path class="st2" d="M37.5,41.3h-4.4c-0.4,0-0.7-0.3-0.7-0.7v-4.8c0-0.4,0.3-0.7,0.7-0.7h4.4c0.4,0,0.7,0.3,0.7,0.7v4.8
					C38.2,41,37.9,41.3,37.5,41.3z M33.8,39.9h3v-3.4h-3V39.9z"/>
			</g>
			<g>
				<path class="st2" d="M44.8,41.3h-4.4c-0.4,0-0.7-0.3-0.7-0.7v-4.8c0-0.4,0.3-0.7,0.7-0.7h4.4c0.4,0,0.7,0.3,0.7,0.7v4.8
					C45.5,41,45.1,41.3,44.8,41.3z M41.1,39.9h3v-3.4h-3V39.9z"/>
			</g>
			<g>
				<path class="st2" d="M52,41.3h-4.4c-0.4,0-0.7-0.3-0.7-0.7v-4.8c0-0.4,0.3-0.7,0.7-0.7H52c0.4,0,0.7,0.3,0.7,0.7v4.8
					C52.7,41,52.4,41.3,52,41.3z M48.3,39.9h3v-3.4h-3V39.9z"/>
			</g>
			<g>
				<path class="st2" d="M59.3,41.3h-4.4c-0.4,0-0.7-0.3-0.7-0.7v-4.8c0-0.4,0.3-0.7,0.7-0.7h4.4c0.4,0,0.7,0.3,0.7,0.7v4.8
					C60,41,59.7,41.3,59.3,41.3z M55.6,39.9h3v-3.4h-3V39.9z"/>
			</g>
		</g>
		<g>
			<rect x="36" y="11.6" class="st2" width="17.6" height="1.4"/>
			<path class="st2" d="M62,11.6h-4.4v1.4H62c1.4,0,2.5,1.1,2.5,2.5v29.1c0,1.4-1.1,2.5-2.5,2.5H29c-1.4,0-2.5-1.1-2.5-2.5V15.6
				c0-1.4,1.1-2.5,2.5-2.5h2.6v-1.4H29c-2.2,0-3.9,1.8-3.9,3.9v29.1c0,2.2,1.8,3.9,3.9,3.9h33c2.2,0,3.9-1.8,3.9-3.9V15.6
				C65.9,13.4,64.2,11.6,62,11.6z"/>
		</g>
	</g>
</g>
</svg>
