<?xml version="1.0" encoding="utf-8"?>
<!-- Generator: Adobe Illustrator 26.0.0, SVG Export Plug-In . SVG Version: 6.00 Build 0)  -->
<svg version="1.1" id="Capa_1" xmlns="http://www.w3.org/2000/svg" xmlns:xlink="http://www.w3.org/1999/xlink" x="0px" y="0px"
	 viewBox="0 0 91.1 85.8" style="enable-background:new 0 0 91.1 85.8;" xml:space="preserve">
<style type="text/css">
	.st0{fill:#4CB8AB;}
	.st1{fill:#2D3D80;}
	.st2{fill:#FCC83D;}
	.st3{fill:#FDC93E;}
	.st4{fill:#2E3D82;}
	.st5{fill:#FFFFFF;}
</style>
<g>
	<g>
		<g>
			<g>
				<path class="st0" d="M21.4,63.3v2.9h-2.1v-8.5h3.4c0.7,0,1.2,0.1,1.7,0.4s0.9,0.6,1.2,1s0.4,0.9,0.4,1.5c0,0.8-0.3,1.5-0.9,2
					s-1.4,0.7-2.5,0.7H21.4z M21.4,61.7h1.3c0.4,0,0.7-0.1,0.9-0.3s0.3-0.5,0.3-0.8c0-0.4-0.1-0.7-0.3-1s-0.5-0.4-0.9-0.4h-1.4V61.7
					z"/>
				<path class="st0" d="M30.9,61.6l-0.7,0c-0.6,0-1,0.2-1.2,0.6v4h-2v-6.3H29l0.1,0.8c0.3-0.6,0.8-0.9,1.4-0.9c0.2,0,0.4,0,0.6,0.1
					L30.9,61.6z"/>
				<path class="st0" d="M31.2,63c0-0.6,0.1-1.2,0.4-1.7s0.6-0.9,1.1-1.1s1-0.4,1.6-0.4c0.9,0,1.7,0.3,2.2,0.9s0.8,1.4,0.8,2.4v0.1
					c0,1-0.3,1.8-0.8,2.4s-1.3,0.9-2.2,0.9c-0.9,0-1.6-0.3-2.2-0.8s-0.8-1.3-0.9-2.2L31.2,63z M33.2,63.1c0,0.6,0.1,1,0.3,1.3
					s0.5,0.4,0.8,0.4c0.7,0,1.1-0.5,1.1-1.6V63c0-1.1-0.4-1.7-1.1-1.7c-0.7,0-1,0.5-1.1,1.5L33.2,63.1z"/>
				<path class="st0" d="M40.6,63.4l1.1-3.6h2.1l-2.6,7.4l-0.1,0.3c-0.4,0.8-1,1.2-1.9,1.2c-0.3,0-0.5,0-0.8-0.1v-1.4h0.3
					c0.3,0,0.5,0,0.6-0.1s0.3-0.2,0.3-0.4l0.2-0.4l-2.2-6.4h2.1L40.6,63.4z"/>
				<path class="st0" d="M47.3,66.3c-1,0-1.8-0.3-2.4-0.9S44,64.1,44,63.2V63c0-0.6,0.1-1.2,0.4-1.7s0.6-0.9,1.1-1.2s1-0.4,1.6-0.4
					c0.9,0,1.6,0.3,2.1,0.8s0.8,1.3,0.8,2.3v0.8H46c0.1,0.4,0.2,0.6,0.5,0.8s0.5,0.3,0.9,0.3c0.6,0,1.1-0.2,1.5-0.7l0.9,1.1
					c-0.2,0.3-0.6,0.6-1,0.8S47.8,66.3,47.3,66.3z M47.1,61.3c-0.6,0-0.9,0.4-1,1.1h2v-0.2c0-0.3-0.1-0.6-0.2-0.7
					S47.4,61.3,47.1,61.3z"/>
				<path class="st0" d="M53.4,64.8c0.3,0,0.5-0.1,0.6-0.2s0.2-0.4,0.2-0.6h1.9c0,0.7-0.2,1.3-0.7,1.7s-1.1,0.7-1.9,0.7
					c-0.9,0-1.6-0.3-2.2-0.9s-0.8-1.4-0.8-2.4V63c0-0.6,0.1-1.2,0.4-1.7s0.6-0.9,1-1.1s1-0.4,1.6-0.4c0.8,0,1.5,0.2,2,0.7
					s0.7,1.1,0.7,1.9h-1.9c0-0.3-0.1-0.6-0.2-0.8s-0.4-0.3-0.6-0.3c-0.5,0-0.8,0.3-0.9,1c0,0.2,0,0.5,0,0.9c0,0.6,0.1,1.1,0.2,1.3
					S53.1,64.8,53.4,64.8z"/>
				<path class="st0" d="M59.3,58.3v1.6h1v1.4h-1v2.9c0,0.2,0,0.4,0.1,0.5s0.3,0.1,0.5,0.1c0.2,0,0.4,0,0.5,0v1.4
					c-0.4,0.1-0.7,0.2-1.1,0.2c-0.7,0-1.2-0.2-1.5-0.5s-0.5-0.8-0.5-1.5v-3.1h-0.8v-1.4h0.8v-1.6H59.3z"/>
				<path class="st0" d="M60.7,63c0-0.6,0.1-1.2,0.4-1.7s0.6-0.9,1.1-1.1s1-0.4,1.6-0.4c0.9,0,1.7,0.3,2.2,0.9s0.8,1.4,0.8,2.4v0.1
					c0,1-0.3,1.8-0.8,2.4s-1.3,0.9-2.2,0.9c-0.9,0-1.6-0.3-2.2-0.8s-0.8-1.3-0.9-2.2L60.7,63z M62.7,63.1c0,0.6,0.1,1,0.3,1.3
					s0.5,0.4,0.8,0.4c0.7,0,1.1-0.5,1.1-1.6V63c0-1.1-0.4-1.7-1.1-1.7c-0.7,0-1,0.5-1.1,1.5L62.7,63.1z"/>
				<path class="st0" d="M71,64.4c0-0.2-0.1-0.3-0.3-0.4s-0.5-0.2-1-0.3s-0.9-0.3-1.2-0.4s-0.6-0.4-0.7-0.6s-0.3-0.5-0.3-0.9
					c0-0.6,0.2-1.1,0.7-1.4s1.1-0.6,1.9-0.6c0.8,0,1.5,0.2,2,0.6s0.8,0.9,0.8,1.5h-2c0-0.5-0.3-0.8-0.8-0.8c-0.2,0-0.4,0.1-0.5,0.2
					s-0.2,0.3-0.2,0.4c0,0.2,0.1,0.3,0.3,0.4s0.4,0.2,0.8,0.3s0.7,0.2,1,0.3c1,0.3,1.4,0.9,1.4,1.8c0,0.6-0.3,1-0.8,1.4
					s-1.2,0.5-2,0.5c-0.5,0-1-0.1-1.5-0.3s-0.8-0.5-1-0.8s-0.4-0.7-0.4-1.1h1.8c0,0.3,0.1,0.5,0.3,0.6s0.4,0.2,0.7,0.2
					c0.3,0,0.5-0.1,0.6-0.2S71,64.6,71,64.4z"/>
			</g>
		</g>
		<g>
			<path class="st1" d="M26.8,75.8V78H26v-5.5h2c0.6,0,1.1,0.2,1.4,0.5c0.3,0.3,0.5,0.7,0.5,1.2c0,0.5-0.2,0.9-0.5,1.2
				c-0.3,0.3-0.8,0.4-1.4,0.4H26.8z M26.8,75.2h1.3c0.4,0,0.7-0.1,0.9-0.3c0.2-0.2,0.3-0.4,0.3-0.8c0-0.3-0.1-0.6-0.3-0.8
				c-0.2-0.2-0.5-0.3-0.9-0.3h-1.4V75.2z"/>
			<path class="st1" d="M32.8,74.5c-0.1,0-0.2,0-0.3,0c-0.5,0-0.8,0.2-0.9,0.6V78h-0.7v-4.1h0.7l0,0.5c0.2-0.4,0.6-0.5,1-0.5
				c0.1,0,0.2,0,0.3,0.1V74.5z"/>
			<path class="st1" d="M33.2,75.9c0-0.4,0.1-0.8,0.2-1.1s0.4-0.6,0.7-0.7s0.6-0.3,1-0.3c0.6,0,1,0.2,1.4,0.6
				c0.3,0.4,0.5,0.9,0.5,1.5v0c0,0.4-0.1,0.8-0.2,1.1c-0.2,0.3-0.4,0.6-0.7,0.7c-0.3,0.2-0.6,0.3-1,0.3c-0.6,0-1-0.2-1.4-0.6
				C33.4,77.1,33.2,76.6,33.2,75.9L33.2,75.9z M33.9,76c0,0.5,0.1,0.8,0.3,1.1c0.2,0.3,0.5,0.4,0.8,0.4c0.4,0,0.6-0.1,0.9-0.4
				c0.2-0.3,0.3-0.7,0.3-1.2c0-0.5-0.1-0.8-0.3-1.1c-0.2-0.3-0.5-0.4-0.9-0.4c-0.3,0-0.6,0.1-0.8,0.4C34,75.1,33.9,75.5,33.9,76z"/>
			<path class="st1" d="M37.7,75.9c0-0.6,0.1-1.1,0.4-1.5c0.3-0.4,0.7-0.6,1.2-0.6c0.5,0,0.9,0.2,1.1,0.5v-2.1h0.7V78h-0.6l0-0.4
				c-0.3,0.3-0.7,0.5-1.2,0.5c-0.5,0-0.9-0.2-1.2-0.6S37.7,76.6,37.7,75.9L37.7,75.9z M38.4,76c0,0.5,0.1,0.8,0.3,1.1
				c0.2,0.3,0.5,0.4,0.8,0.4c0.4,0,0.8-0.2,1-0.6V75c-0.2-0.4-0.5-0.6-1-0.6c-0.3,0-0.6,0.1-0.8,0.4C38.5,75.1,38.4,75.5,38.4,76z"
				/>
			<path class="st1" d="M44.7,77.6c-0.3,0.3-0.7,0.5-1.2,0.5c-0.4,0-0.8-0.1-1-0.4c-0.2-0.3-0.3-0.6-0.3-1.1v-2.7h0.7v2.7
				c0,0.6,0.3,0.9,0.8,0.9c0.5,0,0.9-0.2,1.1-0.6v-3h0.7V78h-0.7L44.7,77.6z"/>
			<path class="st1" d="M48.1,77.5c0.3,0,0.5-0.1,0.7-0.2c0.2-0.2,0.3-0.3,0.3-0.6h0.7c0,0.2-0.1,0.5-0.2,0.7
				c-0.1,0.2-0.3,0.4-0.6,0.5c-0.2,0.1-0.5,0.2-0.8,0.2c-0.6,0-1-0.2-1.3-0.6s-0.5-0.9-0.5-1.5v-0.1c0-0.4,0.1-0.8,0.2-1.1
				c0.1-0.3,0.4-0.6,0.6-0.7c0.3-0.2,0.6-0.3,1-0.3c0.5,0,0.8,0.1,1.1,0.4c0.3,0.3,0.5,0.6,0.5,1.1h-0.7c0-0.3-0.1-0.5-0.3-0.7
				c-0.2-0.2-0.4-0.3-0.7-0.3c-0.4,0-0.6,0.1-0.8,0.4C47.1,75,47,75.4,47,75.9V76c0,0.5,0.1,0.8,0.3,1.1
				C47.5,77.4,47.8,77.5,48.1,77.5z"/>
			<path class="st1" d="M51.5,72.9v1h0.8v0.5h-0.8V77c0,0.2,0,0.3,0.1,0.4c0.1,0.1,0.2,0.1,0.3,0.1c0.1,0,0.2,0,0.3,0V78
				c-0.2,0.1-0.4,0.1-0.5,0.1c-0.3,0-0.6-0.1-0.7-0.3c-0.2-0.2-0.2-0.5-0.2-0.8v-2.5h-0.7v-0.5h0.7v-1H51.5z"/>
			<path class="st1" d="M53.1,72.8c0-0.1,0-0.2,0.1-0.3c0.1-0.1,0.2-0.1,0.3-0.1s0.2,0,0.3,0.1c0.1,0.1,0.1,0.2,0.1,0.3
				c0,0.1,0,0.2-0.1,0.3s-0.2,0.1-0.3,0.1s-0.2,0-0.3-0.1C53.1,73,53.1,72.9,53.1,72.8z M53.9,78h-0.7v-4.1h0.7V78z"/>
			<path class="st1" d="M56.3,77l1-3.2h0.7L56.6,78h-0.5l-1.5-4.1h0.7L56.3,77z"/>
			<path class="st1" d="M58.5,75.9c0-0.4,0.1-0.8,0.2-1.1s0.4-0.6,0.7-0.7s0.6-0.3,1-0.3c0.6,0,1,0.2,1.4,0.6
				c0.3,0.4,0.5,0.9,0.5,1.5v0c0,0.4-0.1,0.8-0.2,1.1c-0.2,0.3-0.4,0.6-0.7,0.7c-0.3,0.2-0.6,0.3-1,0.3c-0.6,0-1-0.2-1.4-0.6
				C58.7,77.1,58.5,76.6,58.5,75.9L58.5,75.9z M59.2,76c0,0.5,0.1,0.8,0.3,1.1c0.2,0.3,0.5,0.4,0.8,0.4c0.4,0,0.6-0.1,0.9-0.4
				c0.2-0.3,0.3-0.7,0.3-1.2c0-0.5-0.1-0.8-0.3-1.1c-0.2-0.3-0.5-0.4-0.9-0.4c-0.3,0-0.6,0.1-0.8,0.4C59.3,75.1,59.2,75.5,59.2,76z"
				/>
			<path class="st1" d="M65.5,76.9c0-0.2-0.1-0.3-0.2-0.4c-0.1-0.1-0.4-0.2-0.7-0.3c-0.4-0.1-0.6-0.2-0.8-0.3
				c-0.2-0.1-0.4-0.2-0.5-0.4c-0.1-0.1-0.1-0.3-0.1-0.5c0-0.3,0.1-0.6,0.4-0.9c0.3-0.2,0.6-0.3,1.1-0.3c0.5,0,0.8,0.1,1.1,0.4
				s0.4,0.5,0.4,0.9h-0.7c0-0.2-0.1-0.4-0.2-0.5c-0.2-0.1-0.4-0.2-0.6-0.2c-0.3,0-0.5,0.1-0.6,0.2c-0.1,0.1-0.2,0.3-0.2,0.4
				c0,0.2,0.1,0.3,0.2,0.4c0.1,0.1,0.4,0.2,0.7,0.2c0.4,0.1,0.6,0.2,0.9,0.3c0.2,0.1,0.4,0.2,0.5,0.4s0.2,0.3,0.2,0.6
				c0,0.4-0.1,0.7-0.4,0.9c-0.3,0.2-0.7,0.3-1.1,0.3c-0.3,0-0.6-0.1-0.9-0.2c-0.3-0.1-0.5-0.3-0.6-0.5C63,77.2,63,77,63,76.7h0.7
				c0,0.2,0.1,0.4,0.3,0.6s0.4,0.2,0.7,0.2c0.3,0,0.5-0.1,0.6-0.2S65.5,77.1,65.5,76.9z"/>
		</g>
	</g>
	<g>
		<g>
			<path class="st5" d="M63.6,35c-0.8,0-1.5,0.1-2.2,0.3L44.1,17c0.2-0.6,0.3-1.3,0.3-2c0-4.1-3.3-7.5-7.4-7.5
				c-1.2,0-2.3,0.3-3.3,0.7l3.6,2.9l0.1,4.1l-4,0.9l-3.8-3c-0.1,0.5-0.2,1.1-0.2,1.7c0,4.1,3.3,7.5,7.4,7.5c0.6,0,1.2-0.1,1.8-0.2
				l17.8,17.9c-0.2,0.7-0.4,1.5-0.4,2.2c0,4.1,3.3,7.5,7.4,7.5c1.2,0,2.3-0.3,3.3-0.7l-3.6-2.9L63,42.1l4-0.9l3.8,3
				c0.1-0.5,0.2-1.1,0.2-1.7C71,38.4,67.7,35,63.6,35z"/>
			<path class="st4" d="M63.5,50.7C63.5,50.7,63.5,50.7,63.5,50.7c-4.6,0-8.2-3.7-8.2-8.3c0-0.7,0.1-1.4,0.3-2L38.4,23
				c-0.5,0.1-1,0.1-1.5,0.1c-2.2,0-4.2-0.9-5.8-2.5c-1.5-1.6-2.4-3.6-2.4-5.8c0-0.6,0.1-1.2,0.2-1.8c0.1-0.2,0.2-0.5,0.5-0.5
				c0.2-0.1,0.5,0,0.7,0.1l3.5,2.8l3-0.7l0-3.2l-3.4-2.7C33,8.6,32.9,8.4,33,8.1c0-0.3,0.2-0.5,0.4-0.6C34.5,7,35.7,6.7,37,6.7
				c4.5,0,8.2,3.7,8.1,8.3c0,0.6-0.1,1.2-0.2,1.8l16.7,17.7c0.6-0.2,1.3-0.2,1.9-0.2l0,0c4.5,0,8.2,3.7,8.1,8.3
				c0,0.6-0.1,1.2-0.2,1.8c-0.1,0.2-0.2,0.5-0.5,0.5c-0.2,0.1-0.5,0-0.7-0.1L66.8,42l-3,0.7l0,3.2l3.4,2.7c0.2,0.2,0.3,0.4,0.3,0.7
				s-0.2,0.5-0.4,0.6C65.9,50.4,64.8,50.7,63.5,50.7z M38.6,21.5c0.2,0,0.4,0.1,0.5,0.2L57,39.6c0.2,0.2,0.3,0.5,0.2,0.8
				c-0.2,0.7-0.3,1.3-0.3,2c0,3.7,3,6.7,6.7,6.8c0.6,0,1.2-0.1,1.8-0.2l-2.6-2.1c-0.2-0.1-0.3-0.4-0.3-0.6l-0.1-4.1
				c0-0.4,0.2-0.7,0.6-0.7l4-0.9c0.2-0.1,0.5,0,0.6,0.1l2.7,2.2c0-0.1,0-0.2,0-0.3c0-3.7-3-6.7-6.7-6.8c-0.7,0-1.3,0.1-2,0.3
				c-0.3,0.1-0.6,0-0.8-0.2L43.5,17.5c-0.2-0.2-0.3-0.5-0.2-0.7c0.2-0.6,0.3-1.2,0.3-1.8c0-3.7-3-6.7-6.7-6.8
				c-0.6,0-1.2,0.1-1.8,0.2l2.6,2.1c0.2,0.1,0.3,0.4,0.3,0.6l0.1,4.1c0,0.4-0.2,0.7-0.6,0.7l-4,0.9c-0.2,0.1-0.5,0-0.6-0.1l-2.7-2.2
				c0,0.1,0,0.2,0,0.3c0,1.8,0.7,3.5,1.9,4.8c1.3,1.3,2.9,2,4.7,2c0.5,0,1.1-0.1,1.6-0.2C38.5,21.5,38.6,21.5,38.6,21.5z"/>
		</g>
		<g>
			<polyline class="st5" points="41,31.2 56.1,16.5 57.4,12.7 63.8,8.8 65.9,10.5 61.6,17.5 58.4,18.4 43.5,33.6 			"/>
			<path class="st4" d="M43.5,34.3c-0.2,0-0.4-0.1-0.5-0.2c-0.3-0.3-0.3-0.8,0-1.1l15-15.2c0.1-0.1,0.2-0.2,0.3-0.2l2.9-0.8l3.8-6.2
				l-1.1-1L58,13.2l-1.2,3.5c0,0.1-0.1,0.2-0.2,0.3L41.5,31.8c-0.3,0.3-0.8,0.3-1.1,0c-0.3-0.3-0.3-0.8,0-1.1l15-14.6l1.3-3.6
				c0.1-0.2,0.2-0.3,0.3-0.4l6.4-4c0.3-0.2,0.6-0.1,0.9,0.1l2,1.8c0.3,0.2,0.3,0.6,0.1,1l-4.2,7c-0.1,0.2-0.3,0.3-0.4,0.3l-3,0.8
				L44,34.1C43.9,34.3,43.7,34.3,43.5,34.3z"/>
		</g>
		<g>
			<path class="st3" d="M28.3,48.6l-2.5-2.5c-1.1-1.1-1.1-2.8,0-3.9l11.1-11.1c1.1-1.1,2.8-1.1,3.9,0l2.5,2.5c1.1,1.1,1.1,2.8,0,3.9
				L32.2,48.6C31.1,49.7,29.4,49.7,28.3,48.6z"/>
			<path class="st4" d="M30.2,50.2c-0.9,0-1.8-0.3-2.5-1l0,0l-2.5-2.5c-0.7-0.7-1-1.5-1-2.5c0-0.9,0.4-1.8,1-2.5l11.1-11.1
				c1.4-1.4,3.6-1.4,4.9,0l2.5,2.5c0.7,0.7,1,1.5,1,2.5s-0.4,1.8-1,2.5L32.7,49.2C32,49.8,31.1,50.2,30.2,50.2z M28.8,48.1
				c0.8,0.8,2,0.8,2.8,0L42.7,37c0.4-0.4,0.6-0.9,0.6-1.4s-0.2-1-0.6-1.4l-2.5-2.5c-0.8-0.8-2-0.8-2.8,0L26.4,42.8
				c-0.4,0.4-0.6,0.9-0.6,1.4c0,0.5,0.2,1,0.6,1.4L28.8,48.1z"/>
		</g>
		<g>
			<path class="st4" d="M29.5,43.6c-0.2,0-0.4-0.1-0.5-0.2c-0.3-0.3-0.3-0.8,0-1.1l7.6-7.6c0.3-0.3,0.8-0.3,1.1,0s0.3,0.8,0,1.1
				L30,43.4C29.9,43.5,29.7,43.6,29.5,43.6z"/>
		</g>
		<g>
			<path class="st4" d="M31.8,45.6c-0.2,0-0.4-0.1-0.5-0.2c-0.3-0.3-0.3-0.8,0-1.1l7.6-7.6c0.3-0.3,0.8-0.3,1.1,0s0.3,0.8,0,1.1
				l-7.6,7.6C32.2,45.5,32,45.6,31.8,45.6z"/>
		</g>
	</g>
</g>
</svg>
