<?xml version="1.0" encoding="utf-8"?>
<!-- Generator: Adobe Illustrator 26.0.0, SVG Export Plug-In . SVG Version: 6.00 Build 0)  -->
<svg version="1.1" id="Capa_1" xmlns="http://www.w3.org/2000/svg" xmlns:xlink="http://www.w3.org/1999/xlink" x="0px" y="0px"
	 viewBox="0 0 91.1 85.8" style="enable-background:new 0 0 91.1 85.8;" xml:space="preserve">
<style type="text/css">
	.st0{fill:#4CB8AB;}
	.st1{fill:#2D3D80;}
	.st2{fill:#FCC83D;}
	.st3{fill:#FDC93E;}
	.st4{fill:#2E3D82;}
	.st5{fill:#FFFFFF;}
</style>
<g>
	<g>
		<g>
			<g>
				<path class="st0" d="M34.8,63.9c0-0.3-0.1-0.5-0.3-0.7s-0.6-0.3-1.1-0.5s-1-0.4-1.3-0.5c-1.1-0.5-1.7-1.3-1.7-2.2
					c0-0.5,0.1-0.9,0.4-1.3s0.7-0.6,1.2-0.8s1.1-0.3,1.7-0.3c0.6,0,1.2,0.1,1.6,0.3s0.9,0.5,1.1,0.9s0.4,0.9,0.4,1.4h-2.1
					c0-0.3-0.1-0.6-0.3-0.8s-0.5-0.3-0.9-0.3c-0.4,0-0.7,0.1-0.9,0.2s-0.3,0.4-0.3,0.6c0,0.2,0.1,0.4,0.4,0.6s0.6,0.4,1.2,0.6
					s1.1,0.4,1.5,0.6c0.9,0.5,1.4,1.3,1.4,2.2c0,0.7-0.3,1.3-0.8,1.8s-1.3,0.6-2.3,0.6c-0.7,0-1.3-0.1-1.9-0.4s-1-0.6-1.3-1
					s-0.4-0.9-0.4-1.5h2.1c0,0.5,0.1,0.8,0.4,1s0.6,0.3,1.2,0.3c0.3,0,0.6-0.1,0.8-0.2S34.8,64.2,34.8,63.9z"/>
				<path class="st0" d="M40.1,58.3v1.6h1v1.4h-1v2.9c0,0.2,0,0.4,0.1,0.5s0.3,0.1,0.5,0.1c0.2,0,0.4,0,0.5,0v1.4
					c-0.4,0.1-0.7,0.2-1.1,0.2c-0.7,0-1.2-0.2-1.5-0.5s-0.5-0.8-0.5-1.5v-3.1h-0.8v-1.4h0.8v-1.6H40.1z"/>
				<path class="st0" d="M41.5,63c0-0.6,0.1-1.2,0.4-1.7s0.6-0.9,1.1-1.1s1-0.4,1.6-0.4c0.9,0,1.7,0.3,2.2,0.9s0.8,1.4,0.8,2.4v0.1
					c0,1-0.3,1.8-0.8,2.4s-1.3,0.9-2.2,0.9c-0.9,0-1.6-0.3-2.2-0.8s-0.8-1.3-0.9-2.2L41.5,63z M43.5,63.1c0,0.6,0.1,1,0.3,1.3
					s0.5,0.4,0.8,0.4c0.7,0,1.1-0.5,1.1-1.6V63c0-1.1-0.4-1.7-1.1-1.7c-0.7,0-1,0.5-1.1,1.5L43.5,63.1z"/>
				<path class="st0" d="M51.2,64.8c0.3,0,0.5-0.1,0.6-0.2s0.2-0.4,0.2-0.6h1.9c0,0.7-0.2,1.3-0.7,1.7s-1.1,0.7-1.9,0.7
					c-0.9,0-1.6-0.3-2.2-0.9s-0.8-1.4-0.8-2.4V63c0-0.6,0.1-1.2,0.4-1.7s0.6-0.9,1-1.1s1-0.4,1.6-0.4c0.8,0,1.5,0.2,2,0.7
					s0.7,1.1,0.7,1.9H52c0-0.3-0.1-0.6-0.2-0.8s-0.4-0.3-0.6-0.3c-0.5,0-0.8,0.3-0.9,1c0,0.2,0,0.5,0,0.9c0,0.6,0.1,1.1,0.2,1.3
					S50.8,64.8,51.2,64.8z"/>
				<path class="st0" d="M57.3,63.8l-0.6,0.6v1.8h-2v-9h2V62l0.2-0.3l1.5-1.9h2.4l-2.2,2.6l2.4,3.7h-2.3L57.3,63.8z"/>
			</g>
		</g>
		<g>
			<path class="st1" d="M10,75.8V78H9.3v-5.5h2c0.6,0,1.1,0.2,1.4,0.5c0.3,0.3,0.5,0.7,0.5,1.2c0,0.5-0.2,0.9-0.5,1.2
				c-0.3,0.3-0.8,0.4-1.4,0.4H10z M10,75.2h1.3c0.4,0,0.7-0.1,0.9-0.3c0.2-0.2,0.3-0.4,0.3-0.8c0-0.3-0.1-0.6-0.3-0.8
				c-0.2-0.2-0.5-0.3-0.9-0.3H10V75.2z"/>
			<path class="st1" d="M16.1,74.5c-0.1,0-0.2,0-0.3,0c-0.5,0-0.8,0.2-0.9,0.6V78h-0.7v-4.1h0.7l0,0.5c0.2-0.4,0.6-0.5,1-0.5
				c0.1,0,0.2,0,0.3,0.1V74.5z"/>
			<path class="st1" d="M16.4,75.9c0-0.4,0.1-0.8,0.2-1.1s0.4-0.6,0.7-0.7s0.6-0.3,1-0.3c0.6,0,1,0.2,1.4,0.6
				c0.3,0.4,0.5,0.9,0.5,1.5v0c0,0.4-0.1,0.8-0.2,1.1c-0.2,0.3-0.4,0.6-0.7,0.7c-0.3,0.2-0.6,0.3-1,0.3c-0.6,0-1-0.2-1.4-0.6
				C16.6,77.1,16.4,76.6,16.4,75.9L16.4,75.9z M17.1,76c0,0.5,0.1,0.8,0.3,1.1c0.2,0.3,0.5,0.4,0.8,0.4c0.4,0,0.6-0.1,0.9-0.4
				c0.2-0.3,0.3-0.7,0.3-1.2c0-0.5-0.1-0.8-0.3-1.1c-0.2-0.3-0.5-0.4-0.9-0.4c-0.3,0-0.6,0.1-0.8,0.4C17.2,75.1,17.1,75.5,17.1,76z"
				/>
			<path class="st1" d="M20.9,75.9c0-0.6,0.1-1.1,0.4-1.5c0.3-0.4,0.7-0.6,1.2-0.6c0.5,0,0.9,0.2,1.1,0.5v-2.1h0.7V78h-0.6l0-0.4
				c-0.3,0.3-0.7,0.5-1.2,0.5c-0.5,0-0.9-0.2-1.2-0.6S20.9,76.6,20.9,75.9L20.9,75.9z M21.6,76c0,0.5,0.1,0.8,0.3,1.1
				c0.2,0.3,0.5,0.4,0.8,0.4c0.4,0,0.8-0.2,1-0.6V75c-0.2-0.4-0.5-0.6-1-0.6c-0.3,0-0.6,0.1-0.8,0.4C21.7,75.1,21.6,75.5,21.6,76z"
				/>
			<path class="st1" d="M28,77.6c-0.3,0.3-0.7,0.5-1.2,0.5c-0.4,0-0.8-0.1-1-0.4c-0.2-0.3-0.3-0.6-0.3-1.1v-2.7h0.7v2.7
				c0,0.6,0.3,0.9,0.8,0.9c0.5,0,0.9-0.2,1.1-0.6v-3h0.7V78H28L28,77.6z"/>
			<path class="st1" d="M31.4,77.5c0.3,0,0.5-0.1,0.7-0.2c0.2-0.2,0.3-0.3,0.3-0.6H33c0,0.2-0.1,0.5-0.2,0.7
				c-0.1,0.2-0.3,0.4-0.6,0.5c-0.2,0.1-0.5,0.2-0.8,0.2c-0.6,0-1-0.2-1.3-0.6s-0.5-0.9-0.5-1.5v-0.1c0-0.4,0.1-0.8,0.2-1.1
				c0.1-0.3,0.4-0.6,0.6-0.7c0.3-0.2,0.6-0.3,1-0.3c0.5,0,0.8,0.1,1.1,0.4c0.3,0.3,0.5,0.6,0.5,1.1h-0.7c0-0.3-0.1-0.5-0.3-0.7
				c-0.2-0.2-0.4-0.3-0.7-0.3c-0.4,0-0.6,0.1-0.8,0.4c-0.2,0.3-0.3,0.6-0.3,1.1V76c0,0.5,0.1,0.8,0.3,1.1
				C30.7,77.4,31,77.5,31.4,77.5z"/>
			<path class="st1" d="M34.7,72.9v1h0.8v0.5h-0.8V77c0,0.2,0,0.3,0.1,0.4c0.1,0.1,0.2,0.1,0.3,0.1c0.1,0,0.2,0,0.3,0V78
				c-0.2,0.1-0.4,0.1-0.5,0.1c-0.3,0-0.6-0.1-0.7-0.3C34.1,77.6,34,77.3,34,77v-2.5h-0.7v-0.5H34v-1H34.7z"/>
			<path class="st1" d="M36.1,75.9c0-0.4,0.1-0.8,0.2-1.1s0.4-0.6,0.7-0.7s0.6-0.3,1-0.3c0.6,0,1,0.2,1.4,0.6
				c0.3,0.4,0.5,0.9,0.5,1.5v0c0,0.4-0.1,0.8-0.2,1.1c-0.2,0.3-0.4,0.6-0.7,0.7c-0.3,0.2-0.6,0.3-1,0.3c-0.6,0-1-0.2-1.4-0.6
				C36.2,77.1,36.1,76.6,36.1,75.9L36.1,75.9z M36.8,76c0,0.5,0.1,0.8,0.3,1.1c0.2,0.3,0.5,0.4,0.8,0.4c0.4,0,0.6-0.1,0.9-0.4
				c0.2-0.3,0.3-0.7,0.3-1.2c0-0.5-0.1-0.8-0.3-1.1c-0.2-0.3-0.5-0.4-0.9-0.4c-0.3,0-0.6,0.1-0.8,0.4C36.9,75.1,36.8,75.5,36.8,76z"
				/>
			<path class="st1" d="M43.1,76.9c0-0.2-0.1-0.3-0.2-0.4c-0.1-0.1-0.4-0.2-0.7-0.3c-0.4-0.1-0.6-0.2-0.8-0.3
				c-0.2-0.1-0.4-0.2-0.5-0.4c-0.1-0.1-0.1-0.3-0.1-0.5c0-0.3,0.1-0.6,0.4-0.9c0.3-0.2,0.6-0.3,1.1-0.3c0.5,0,0.8,0.1,1.1,0.4
				s0.4,0.5,0.4,0.9H43c0-0.2-0.1-0.4-0.2-0.5c-0.2-0.1-0.4-0.2-0.6-0.2c-0.3,0-0.5,0.1-0.6,0.2c-0.1,0.1-0.2,0.3-0.2,0.4
				c0,0.2,0.1,0.3,0.2,0.4c0.1,0.1,0.4,0.2,0.7,0.2c0.4,0.1,0.6,0.2,0.9,0.3c0.2,0.1,0.4,0.2,0.5,0.4s0.2,0.3,0.2,0.6
				c0,0.4-0.1,0.7-0.4,0.9c-0.3,0.2-0.7,0.3-1.1,0.3c-0.3,0-0.6-0.1-0.9-0.2c-0.3-0.1-0.5-0.3-0.6-0.5c-0.1-0.2-0.2-0.4-0.2-0.7h0.7
				c0,0.2,0.1,0.4,0.3,0.6s0.4,0.2,0.7,0.2c0.3,0,0.5-0.1,0.6-0.2S43.1,77.1,43.1,76.9z"/>
			<path class="st1" d="M48.3,78.1c-0.6,0-1-0.2-1.4-0.5c-0.3-0.4-0.5-0.9-0.5-1.5v-0.1c0-0.4,0.1-0.8,0.2-1.1
				c0.2-0.3,0.4-0.6,0.7-0.8c0.3-0.2,0.6-0.3,0.9-0.3c0.5,0,0.9,0.2,1.2,0.5c0.3,0.4,0.4,0.9,0.4,1.5v0.3h-2.8c0,0.4,0.1,0.7,0.4,1
				s0.5,0.4,0.9,0.4c0.2,0,0.5-0.1,0.6-0.2c0.2-0.1,0.3-0.2,0.5-0.4l0.4,0.3C49.5,77.8,49,78.1,48.3,78.1z M48.2,74.4
				c-0.3,0-0.5,0.1-0.7,0.3c-0.2,0.2-0.3,0.5-0.4,0.9h2.1v-0.1c0-0.4-0.1-0.6-0.3-0.8C48.8,74.5,48.5,74.4,48.2,74.4z"/>
			<path class="st1" d="M52.7,72.8c0-0.1,0-0.2,0.1-0.3c0.1-0.1,0.2-0.1,0.3-0.1s0.2,0,0.3,0.1c0.1,0.1,0.1,0.2,0.1,0.3
				c0,0.1,0,0.2-0.1,0.3s-0.2,0.1-0.3,0.1s-0.2,0-0.3-0.1C52.7,73,52.7,72.9,52.7,72.8z M53.4,78h-0.7v-4.1h0.7V78z"/>
			<path class="st1" d="M55.2,73.9l0,0.5c0.3-0.4,0.7-0.6,1.2-0.6c0.9,0,1.3,0.5,1.3,1.5V78h-0.7v-2.7c0-0.3-0.1-0.5-0.2-0.7
				s-0.3-0.2-0.6-0.2c-0.2,0-0.4,0.1-0.6,0.2c-0.2,0.1-0.3,0.3-0.4,0.5V78h-0.7v-4.1H55.2z"/>
			<path class="st1" d="M61.2,76.9c0-0.2-0.1-0.3-0.2-0.4c-0.1-0.1-0.4-0.2-0.7-0.3c-0.4-0.1-0.6-0.2-0.8-0.3
				c-0.2-0.1-0.4-0.2-0.5-0.4c-0.1-0.1-0.1-0.3-0.1-0.5c0-0.3,0.1-0.6,0.4-0.9c0.3-0.2,0.6-0.3,1.1-0.3c0.5,0,0.8,0.1,1.1,0.4
				s0.4,0.5,0.4,0.9h-0.7c0-0.2-0.1-0.4-0.2-0.5c-0.2-0.1-0.4-0.2-0.6-0.2c-0.3,0-0.5,0.1-0.6,0.2c-0.1,0.1-0.2,0.3-0.2,0.4
				c0,0.2,0.1,0.3,0.2,0.4c0.1,0.1,0.4,0.2,0.7,0.2c0.4,0.1,0.6,0.2,0.9,0.3c0.2,0.1,0.4,0.2,0.5,0.4s0.2,0.3,0.2,0.6
				c0,0.4-0.1,0.7-0.4,0.9c-0.3,0.2-0.7,0.3-1.1,0.3c-0.3,0-0.6-0.1-0.9-0.2c-0.3-0.1-0.5-0.3-0.6-0.5c-0.1-0.2-0.2-0.4-0.2-0.7h0.7
				c0,0.2,0.1,0.4,0.3,0.6s0.4,0.2,0.7,0.2c0.3,0,0.5-0.1,0.6-0.2S61.2,77.1,61.2,76.9z"/>
			<path class="st1" d="M65.4,77.6c-0.3,0.3-0.7,0.5-1.2,0.5c-0.4,0-0.8-0.1-1-0.4c-0.2-0.3-0.3-0.6-0.3-1.1v-2.7h0.7v2.7
				c0,0.6,0.3,0.9,0.8,0.9c0.5,0,0.9-0.2,1.1-0.6v-3h0.7V78h-0.7L65.4,77.6z"/>
			<path class="st1" d="M67.8,73.9l0,0.5c0.3-0.4,0.7-0.5,1.2-0.5c0.6,0,1,0.2,1.2,0.7c0.1-0.2,0.3-0.4,0.5-0.5
				c0.2-0.1,0.5-0.2,0.8-0.2c0.9,0,1.4,0.5,1.4,1.4V78h-0.7v-2.7c0-0.3-0.1-0.5-0.2-0.7c-0.1-0.1-0.4-0.2-0.7-0.2
				c-0.3,0-0.5,0.1-0.6,0.2c-0.2,0.2-0.3,0.4-0.3,0.6V78h-0.7v-2.7c0-0.6-0.3-0.9-0.9-0.9c-0.5,0-0.8,0.2-0.9,0.6v3h-0.7v-4.1H67.8z
				"/>
			<path class="st1" d="M73.7,75.9c0-0.4,0.1-0.8,0.2-1.1s0.4-0.6,0.7-0.7s0.6-0.3,1-0.3c0.6,0,1,0.2,1.4,0.6
				c0.3,0.4,0.5,0.9,0.5,1.5v0c0,0.4-0.1,0.8-0.2,1.1c-0.2,0.3-0.4,0.6-0.7,0.7c-0.3,0.2-0.6,0.3-1,0.3c-0.6,0-1-0.2-1.4-0.6
				C73.9,77.1,73.7,76.6,73.7,75.9L73.7,75.9z M74.4,76c0,0.5,0.1,0.8,0.3,1.1c0.2,0.3,0.5,0.4,0.8,0.4c0.4,0,0.6-0.1,0.9-0.4
				c0.2-0.3,0.3-0.7,0.3-1.2c0-0.5-0.1-0.8-0.3-1.1c-0.2-0.3-0.5-0.4-0.9-0.4c-0.3,0-0.6,0.1-0.8,0.4C74.6,75.1,74.4,75.5,74.4,76z"
				/>
			<path class="st1" d="M80.8,76.9c0-0.2-0.1-0.3-0.2-0.4c-0.1-0.1-0.4-0.2-0.7-0.3c-0.4-0.1-0.6-0.2-0.8-0.3
				c-0.2-0.1-0.4-0.2-0.5-0.4c-0.1-0.1-0.1-0.3-0.1-0.5c0-0.3,0.1-0.6,0.4-0.9c0.3-0.2,0.6-0.3,1.1-0.3c0.5,0,0.8,0.1,1.1,0.4
				s0.4,0.5,0.4,0.9h-0.7c0-0.2-0.1-0.4-0.2-0.5c-0.2-0.1-0.4-0.2-0.6-0.2c-0.3,0-0.5,0.1-0.6,0.2C79.1,74.7,79,74.8,79,75
				c0,0.2,0.1,0.3,0.2,0.4c0.1,0.1,0.4,0.2,0.7,0.2c0.4,0.1,0.6,0.2,0.9,0.3c0.2,0.1,0.4,0.2,0.5,0.4s0.2,0.3,0.2,0.6
				c0,0.4-0.1,0.7-0.4,0.9c-0.3,0.2-0.7,0.3-1.1,0.3c-0.3,0-0.6-0.1-0.9-0.2c-0.3-0.1-0.5-0.3-0.6-0.5c-0.1-0.2-0.2-0.4-0.2-0.7h0.7
				c0,0.2,0.1,0.4,0.3,0.6s0.4,0.2,0.7,0.2c0.3,0,0.5-0.1,0.6-0.2S80.8,77.1,80.8,76.9z"/>
		</g>
	</g>
	<g>
		<g>
			<path class="st4" d="M59.8,49.7H32.2c-2.2,0-4-1.8-4-4V13.2c0-2.2,1.8-4,4-4h10.2c0.4,0,0.7,0.3,0.7,0.7s-0.3,0.7-0.7,0.7H32.2
				c-1.4,0-2.6,1.1-2.6,2.6v32.4c0,1.4,1.1,2.6,2.6,2.6h27.5c1.4,0,2.6-1.1,2.6-2.6V13.2c0-1.4-1.1-2.6-2.6-2.6H50
				c-0.4,0-0.7-0.3-0.7-0.7s0.3-0.7,0.7-0.7h9.8c2.2,0,4,1.8,4,4v32.4C63.8,47.9,62,49.7,59.8,49.7z"/>
		</g>
		<g>
			<path class="st4" d="M56,45.5H36.8c-2.2,0-4-1.8-4-4V17.1c0-2.2,1.8-4,4-4h1c0.4,0,0.7,0.3,0.7,0.7s-0.3,0.7-0.7,0.7h-1
				c-1.4,0-2.6,1.1-2.6,2.6v24.4c0,1.4,1.1,2.6,2.6,2.6H56c1.4,0,2.6-1.1,2.6-2.6V17.1c0-1.4-1.1-2.6-2.6-2.6h-1.5
				c-0.4,0-0.7-0.3-0.7-0.7s0.3-0.7,0.7-0.7H56c2.2,0,4,1.8,4,4v24.4C60,43.7,58.2,45.5,56,45.5z"/>
		</g>
		<g>
			<g>
				<path class="st4" d="M53.7,24.6h-9c-0.3,0-0.6-0.3-0.6-0.6s0.3-0.6,0.6-0.6h9c0.3,0,0.6,0.3,0.6,0.6S54.1,24.6,53.7,24.6z"/>
			</g>
			<g>
				<path class="st4" d="M53.7,31.1h-9c-0.3,0-0.6-0.3-0.6-0.6c0-0.3,0.3-0.6,0.6-0.6h9c0.3,0,0.6,0.3,0.6,0.6
					C54.4,30.8,54.1,31.1,53.7,31.1z"/>
			</g>
			<g>
				<path class="st4" d="M53.7,37.4h-9c-0.3,0-0.6-0.3-0.6-0.6c0-0.3,0.3-0.6,0.6-0.6h9c0.3,0,0.6,0.3,0.6,0.6
					C54.4,37.2,54.1,37.4,53.7,37.4z"/>
			</g>
			<g>
				<path class="st4" d="M41.8,25.5h-2.5c-0.3,0-0.6-0.3-0.6-0.6v-2.2c0-0.3,0.3-0.6,0.6-0.6h2.5c0.3,0,0.6,0.3,0.6,0.6v2.2
					C42.4,25.2,42.1,25.5,41.8,25.5z M39.9,24.2h1.2v-1h-1.2V24.2z"/>
			</g>
			<g>
				<path class="st4" d="M41.8,31.8h-2.5c-0.3,0-0.6-0.3-0.6-0.6V29c0-0.3,0.3-0.6,0.6-0.6h2.5c0.3,0,0.6,0.3,0.6,0.6v2.2
					C42.4,31.6,42.1,31.8,41.8,31.8z M39.9,30.6h1.2v-1h-1.2V30.6z"/>
			</g>
			<g>
				<path class="st4" d="M41.8,38.2h-2.5c-0.3,0-0.6-0.3-0.6-0.6v-2.2c0-0.3,0.3-0.6,0.6-0.6h2.5c0.3,0,0.6,0.3,0.6,0.6v2.2
					C42.4,37.9,42.1,38.2,41.8,38.2z M39.9,36.9h1.2v-1h-1.2V36.9z"/>
			</g>
		</g>
		<path class="st3" d="M38,15.2h16.5c-0.1-2.1-2.2-4-5.3-4.7c-0.4-0.1-0.7-0.5-0.6-0.9c0-0.2,0.1-0.4,0.1-0.5c0-1.4-1.1-2.5-2.4-2.5
			S43.8,7.6,43.8,9c0,0.2,0,0.4,0.1,0.5c0.1,0.4-0.2,0.8-0.6,0.9C40.2,11.2,38.1,13.1,38,15.2z"/>
		<g>
			<path class="st4" d="M54.6,16.4H37.8c-0.4,0-0.7-0.3-0.7-0.6c0-0.2,0-0.4,0-0.6c0-2.6,2.2-4.9,5.5-5.9c0,0,0-0.1,0-0.1
				c0-2.1,1.7-3.8,3.7-3.8S50,7,50,9.1c0,0,0,0.1,0,0.1c3.3,1,5.4,3.3,5.4,5.9c0,0.2,0,0.4,0,0.6C55.3,16.1,55,16.4,54.6,16.4z
				 M38.5,14.9h15.5c-0.1-1.9-2.1-3.7-4.9-4.4c-0.4-0.1-0.6-0.5-0.5-0.9c0-0.2,0.1-0.3,0.1-0.5c0-1.3-1-2.3-2.3-2.3
				c-1.3,0-2.3,1-2.3,2.3c0,0.2,0,0.3,0.1,0.5c0.1,0.4-0.2,0.8-0.5,0.9C40.6,11.2,38.6,13,38.5,14.9z"/>
		</g>
	</g>
</g>
</svg>
