<?xml version="1.0" encoding="utf-8"?>
<!-- Generator: Adobe Illustrator 26.0.0, SVG Export Plug-In . SVG Version: 6.00 Build 0)  -->
<svg version="1.1" id="Capa_1" xmlns="http://www.w3.org/2000/svg" xmlns:xlink="http://www.w3.org/1999/xlink" x="0px" y="0px"
	 viewBox="0 0 91.1 85.8" style="enable-background:new 0 0 91.1 85.8;" xml:space="preserve">
<style type="text/css">
	.st0{fill:#FDC93E;}
	.st1{fill:#4CB8AB;}
	.st2{fill:#2D3D80;}
	.st3{fill:#FCC83D;}
	.st4{fill:#FDC93E;stroke:#2E3D82;stroke-width:1.5;stroke-linecap:round;stroke-linejoin:round;stroke-miterlimit:10;}
	.st5{fill:none;stroke:#2E3D82;stroke-width:1.5;stroke-linecap:round;stroke-linejoin:round;stroke-miterlimit:10;}
	.st6{fill:#2E3D82;}
	.st7{fill:#FFFFFF;stroke:#2E3D82;stroke-width:1.5;stroke-linecap:round;stroke-linejoin:round;stroke-miterlimit:10;}
</style>
<g>
	<g>
		<path class="st1" d="M28.5,57.7v5.6c0,0.6-0.1,1.2-0.4,1.6s-0.7,0.8-1.2,1.1s-1.1,0.4-1.8,0.4c-1,0-1.9-0.3-2.5-0.8
			s-0.9-1.3-0.9-2.2v-5.6h2.1v5.7c0,0.9,0.5,1.4,1.3,1.4c0.4,0,0.7-0.1,1-0.4s0.3-0.6,0.3-1.1v-5.6H28.5z"/>
		<path class="st1" d="M33,64.4c0-0.2-0.1-0.3-0.3-0.4s-0.5-0.2-1-0.3c-0.5-0.1-0.9-0.3-1.2-0.4s-0.6-0.4-0.7-0.6s-0.3-0.5-0.3-0.9
			c0-0.6,0.2-1.1,0.7-1.4s1.1-0.6,1.9-0.6c0.8,0,1.5,0.2,2,0.6s0.8,0.9,0.8,1.5h-2c0-0.5-0.3-0.8-0.8-0.8c-0.2,0-0.4,0.1-0.5,0.2
			s-0.2,0.3-0.2,0.4c0,0.2,0.1,0.3,0.3,0.4s0.4,0.2,0.8,0.3s0.7,0.2,1,0.3c1,0.3,1.4,0.9,1.4,1.8c0,0.6-0.3,1-0.8,1.4
			s-1.2,0.5-2,0.5c-0.5,0-1-0.1-1.5-0.3s-0.8-0.5-1-0.8s-0.4-0.7-0.4-1.1h1.8c0,0.3,0.1,0.5,0.3,0.6s0.4,0.2,0.7,0.2
			c0.3,0,0.5-0.1,0.6-0.2S33,64.6,33,64.4z"/>
		<path class="st1" d="M39.6,65.5c-0.4,0.5-1,0.8-1.7,0.8c-0.7,0-1.2-0.2-1.6-0.6s-0.5-1-0.5-1.7v-4.1h2V64c0,0.5,0.3,0.8,0.8,0.8
			c0.5,0,0.8-0.2,1-0.5v-4.4h2v6.3h-1.9L39.6,65.5z"/>
		<path class="st1" d="M46.2,66.2c-0.1-0.1-0.1-0.3-0.2-0.6c-0.4,0.5-0.9,0.7-1.5,0.7c-0.6,0-1.1-0.2-1.5-0.5s-0.6-0.8-0.6-1.4
			c0-0.7,0.3-1.2,0.8-1.6s1.2-0.5,2.2-0.5h0.6V62c0-0.6-0.3-0.9-0.8-0.9c-0.5,0-0.7,0.2-0.7,0.7h-2c0-0.6,0.3-1.1,0.8-1.5
			c0.5-0.4,1.2-0.6,2-0.6s1.4,0.2,1.9,0.6s0.7,0.9,0.7,1.6v2.8c0,0.6,0.1,1,0.3,1.3v0.1H46.2z M45,64.9c0.2,0,0.5-0.1,0.6-0.2
			s0.3-0.2,0.3-0.4v-1h-0.6c-0.7,0-1,0.3-1,0.9c0,0.2,0.1,0.3,0.2,0.4S44.8,64.9,45,64.9z"/>
		<path class="st1" d="M52.8,61.6l-0.7,0c-0.6,0-1,0.2-1.2,0.6v4h-2v-6.3h1.9l0.1,0.8c0.3-0.6,0.8-0.9,1.4-0.9c0.2,0,0.4,0,0.6,0.1
			L52.8,61.6z"/>
		<path class="st1" d="M53.5,58.2c0-0.3,0.1-0.5,0.3-0.7s0.5-0.3,0.8-0.3s0.6,0.1,0.8,0.3s0.3,0.4,0.3,0.7s-0.1,0.5-0.3,0.7
			s-0.5,0.3-0.8,0.3s-0.6-0.1-0.8-0.3S53.5,58.5,53.5,58.2z M55.6,66.2h-2v-6.3h2V66.2z"/>
		<path class="st1" d="M56.6,63c0-0.6,0.1-1.2,0.4-1.7s0.6-0.9,1.1-1.1s1-0.4,1.6-0.4c0.9,0,1.7,0.3,2.2,0.9s0.8,1.4,0.8,2.4v0.1
			c0,1-0.3,1.8-0.8,2.4s-1.3,0.9-2.2,0.9c-0.9,0-1.6-0.3-2.2-0.8s-0.8-1.3-0.9-2.2L56.6,63z M58.6,63.1c0,0.6,0.1,1,0.3,1.3
			s0.5,0.4,0.8,0.4c0.7,0,1.1-0.5,1.1-1.6V63c0-1.1-0.4-1.7-1.1-1.7c-0.7,0-1,0.5-1.1,1.5L58.6,63.1z"/>
		<path class="st1" d="M66.9,64.4c0-0.2-0.1-0.3-0.3-0.4s-0.5-0.2-1-0.3s-0.9-0.3-1.2-0.4s-0.6-0.4-0.7-0.6s-0.3-0.5-0.3-0.9
			c0-0.6,0.2-1.1,0.7-1.4s1.1-0.6,1.9-0.6c0.8,0,1.5,0.2,2,0.6s0.8,0.9,0.8,1.5h-2c0-0.5-0.3-0.8-0.8-0.8c-0.2,0-0.4,0.1-0.5,0.2
			s-0.2,0.3-0.2,0.4c0,0.2,0.1,0.3,0.3,0.4s0.4,0.2,0.8,0.3s0.7,0.2,1,0.3c1,0.3,1.4,0.9,1.4,1.8c0,0.6-0.3,1-0.8,1.4
			s-1.2,0.5-2,0.5c-0.5,0-1-0.1-1.5-0.3s-0.8-0.5-1-0.8s-0.4-0.7-0.4-1.1h1.8c0,0.3,0.1,0.5,0.3,0.6s0.4,0.2,0.7,0.2
			c0.3,0,0.5-0.1,0.6-0.2S66.9,64.6,66.9,64.4z"/>
	</g>
	<g>
		<path class="st2" d="M12.9,76.5h-2.3L10.1,78H9.3l2.1-5.5h0.6l2.1,5.5h-0.7L12.9,76.5z M10.8,75.9h1.9l-0.9-2.6L10.8,75.9z"/>
		<path class="st2" d="M14.7,75.9c0-0.6,0.1-1.1,0.4-1.5c0.3-0.4,0.7-0.6,1.2-0.6c0.5,0,0.9,0.2,1.1,0.5v-2.1h0.7V78h-0.6l0-0.4
			c-0.3,0.3-0.7,0.5-1.2,0.5c-0.5,0-0.9-0.2-1.2-0.6S14.7,76.6,14.7,75.9L14.7,75.9z M15.4,76c0,0.5,0.1,0.8,0.3,1.1
			c0.2,0.3,0.5,0.4,0.8,0.4c0.4,0,0.8-0.2,1-0.6V75c-0.2-0.4-0.5-0.6-1-0.6c-0.3,0-0.6,0.1-0.8,0.4C15.5,75.1,15.4,75.5,15.4,76z"/>
		<path class="st2" d="M19.9,73.9l0,0.5c0.3-0.4,0.7-0.5,1.2-0.5c0.6,0,1,0.2,1.2,0.7c0.1-0.2,0.3-0.4,0.5-0.5
			c0.2-0.1,0.5-0.2,0.8-0.2c0.9,0,1.4,0.5,1.4,1.4V78h-0.7v-2.7c0-0.3-0.1-0.5-0.2-0.7c-0.1-0.1-0.4-0.2-0.7-0.2
			c-0.3,0-0.5,0.1-0.6,0.2c-0.2,0.2-0.3,0.4-0.3,0.6V78h-0.7v-2.7c0-0.6-0.3-0.9-0.9-0.9c-0.5,0-0.8,0.2-0.9,0.6v3h-0.7v-4.1H19.9z"
			/>
		<path class="st2" d="M26,72.8c0-0.1,0-0.2,0.1-0.3c0.1-0.1,0.2-0.1,0.3-0.1s0.2,0,0.3,0.1c0.1,0.1,0.1,0.2,0.1,0.3
			c0,0.1,0,0.2-0.1,0.3s-0.2,0.1-0.3,0.1s-0.2,0-0.3-0.1C26.1,73,26,72.9,26,72.8z M26.8,78h-0.7v-4.1h0.7V78z"/>
		<path class="st2" d="M28.6,73.9l0,0.5c0.3-0.4,0.7-0.6,1.2-0.6c0.9,0,1.3,0.5,1.3,1.5V78h-0.7v-2.7c0-0.3-0.1-0.5-0.2-0.7
			s-0.3-0.2-0.6-0.2c-0.2,0-0.4,0.1-0.6,0.2c-0.2,0.1-0.3,0.3-0.4,0.5V78h-0.7v-4.1H28.6z"/>
		<path class="st2" d="M32.2,72.8c0-0.1,0-0.2,0.1-0.3c0.1-0.1,0.2-0.1,0.3-0.1s0.2,0,0.3,0.1c0.1,0.1,0.1,0.2,0.1,0.3
			c0,0.1,0,0.2-0.1,0.3s-0.2,0.1-0.3,0.1s-0.2,0-0.3-0.1C32.2,73,32.2,72.9,32.2,72.8z M33,78h-0.7v-4.1H33V78z"/>
		<path class="st2" d="M36.5,76.9c0-0.2-0.1-0.3-0.2-0.4c-0.1-0.1-0.4-0.2-0.7-0.3c-0.4-0.1-0.6-0.2-0.8-0.3
			c-0.2-0.1-0.4-0.2-0.5-0.4c-0.1-0.1-0.1-0.3-0.1-0.5c0-0.3,0.1-0.6,0.4-0.9c0.3-0.2,0.6-0.3,1.1-0.3c0.5,0,0.8,0.1,1.1,0.4
			s0.4,0.5,0.4,0.9h-0.7c0-0.2-0.1-0.4-0.2-0.5c-0.2-0.1-0.4-0.2-0.6-0.2c-0.3,0-0.5,0.1-0.6,0.2c-0.1,0.1-0.2,0.3-0.2,0.4
			c0,0.2,0.1,0.3,0.2,0.4c0.1,0.1,0.4,0.2,0.7,0.2c0.4,0.1,0.6,0.2,0.9,0.3c0.2,0.1,0.4,0.2,0.5,0.4s0.2,0.3,0.2,0.6
			c0,0.4-0.1,0.7-0.4,0.9c-0.3,0.2-0.7,0.3-1.1,0.3c-0.3,0-0.6-0.1-0.9-0.2c-0.3-0.1-0.5-0.3-0.6-0.5c-0.1-0.2-0.2-0.4-0.2-0.7h0.7
			c0,0.2,0.1,0.4,0.3,0.6s0.4,0.2,0.7,0.2c0.3,0,0.5-0.1,0.6-0.2S36.5,77.1,36.5,76.9z"/>
		<path class="st2" d="M39.1,72.9v1h0.8v0.5h-0.8V77c0,0.2,0,0.3,0.1,0.4c0.1,0.1,0.2,0.1,0.3,0.1c0.1,0,0.2,0,0.3,0V78
			c-0.2,0.1-0.4,0.1-0.5,0.1c-0.3,0-0.6-0.1-0.7-0.3c-0.2-0.2-0.2-0.5-0.2-0.8v-2.5h-0.7v-0.5h0.7v-1H39.1z"/>
		<path class="st2" d="M42.6,74.5c-0.1,0-0.2,0-0.3,0c-0.5,0-0.8,0.2-0.9,0.6V78h-0.7v-4.1h0.7l0,0.5c0.2-0.4,0.6-0.5,1-0.5
			c0.1,0,0.2,0,0.3,0.1V74.5z"/>
		<path class="st2" d="M45.7,78c0-0.1-0.1-0.2-0.1-0.4c-0.3,0.3-0.7,0.5-1.2,0.5c-0.4,0-0.7-0.1-1-0.3c-0.3-0.2-0.4-0.5-0.4-0.9
			c0-0.4,0.2-0.8,0.5-1c0.3-0.2,0.8-0.4,1.4-0.4h0.7v-0.3c0-0.2-0.1-0.4-0.2-0.6c-0.1-0.1-0.4-0.2-0.6-0.2c-0.3,0-0.5,0.1-0.6,0.2
			c-0.2,0.1-0.3,0.3-0.3,0.5h-0.7c0-0.2,0.1-0.4,0.2-0.6c0.1-0.2,0.3-0.3,0.6-0.5s0.5-0.2,0.8-0.2c0.5,0,0.8,0.1,1.1,0.4
			c0.3,0.2,0.4,0.6,0.4,1V77c0,0.4,0,0.7,0.1,0.9V78H45.7z M44.5,77.4c0.2,0,0.4-0.1,0.6-0.2c0.2-0.1,0.3-0.3,0.4-0.4V76H45
			c-0.9,0-1.3,0.3-1.3,0.8c0,0.2,0.1,0.4,0.2,0.5C44.1,77.4,44.3,77.4,44.5,77.4z"/>
		<path class="st2" d="M49.3,74.5c-0.1,0-0.2,0-0.3,0c-0.5,0-0.8,0.2-0.9,0.6V78h-0.7v-4.1H48l0,0.5c0.2-0.4,0.6-0.5,1-0.5
			c0.1,0,0.2,0,0.3,0.1V74.5z"/>
		<path class="st2" d="M54.4,77.6c-0.3,0.3-0.7,0.5-1.2,0.5c-0.4,0-0.8-0.1-1-0.4c-0.2-0.3-0.3-0.6-0.3-1.1v-2.7h0.7v2.7
			c0,0.6,0.3,0.9,0.8,0.9c0.5,0,0.9-0.2,1.1-0.6v-3h0.7V78h-0.7L54.4,77.6z"/>
		<path class="st2" d="M58.6,76.9c0-0.2-0.1-0.3-0.2-0.4c-0.1-0.1-0.4-0.2-0.7-0.3c-0.4-0.1-0.6-0.2-0.8-0.3
			c-0.2-0.1-0.4-0.2-0.5-0.4c-0.1-0.1-0.1-0.3-0.1-0.5c0-0.3,0.1-0.6,0.4-0.9c0.3-0.2,0.6-0.3,1.1-0.3c0.5,0,0.8,0.1,1.1,0.4
			s0.4,0.5,0.4,0.9h-0.7c0-0.2-0.1-0.4-0.2-0.5c-0.2-0.1-0.4-0.2-0.6-0.2c-0.3,0-0.5,0.1-0.6,0.2c-0.1,0.1-0.2,0.3-0.2,0.4
			c0,0.2,0.1,0.3,0.2,0.4c0.1,0.1,0.4,0.2,0.7,0.2c0.4,0.1,0.6,0.2,0.9,0.3c0.2,0.1,0.4,0.2,0.5,0.4s0.2,0.3,0.2,0.6
			c0,0.4-0.1,0.7-0.4,0.9c-0.3,0.2-0.7,0.3-1.1,0.3c-0.3,0-0.6-0.1-0.9-0.2c-0.3-0.1-0.5-0.3-0.6-0.5C56.1,77.2,56,77,56,76.7h0.7
			c0,0.2,0.1,0.4,0.3,0.6s0.4,0.2,0.7,0.2c0.3,0,0.5-0.1,0.6-0.2S58.6,77.1,58.6,76.9z"/>
		<path class="st2" d="M62.7,77.6c-0.3,0.3-0.7,0.5-1.2,0.5c-0.4,0-0.8-0.1-1-0.4c-0.2-0.3-0.3-0.6-0.3-1.1v-2.7h0.7v2.7
			c0,0.6,0.3,0.9,0.8,0.9c0.5,0,0.9-0.2,1.1-0.6v-3h0.7V78h-0.7L62.7,77.6z"/>
		<path class="st2" d="M67,78c0-0.1-0.1-0.2-0.1-0.4c-0.3,0.3-0.7,0.5-1.2,0.5c-0.4,0-0.7-0.1-1-0.3c-0.3-0.2-0.4-0.5-0.4-0.9
			c0-0.4,0.2-0.8,0.5-1c0.3-0.2,0.8-0.4,1.4-0.4h0.7v-0.3c0-0.2-0.1-0.4-0.2-0.6c-0.1-0.1-0.4-0.2-0.6-0.2c-0.3,0-0.5,0.1-0.6,0.2
			c-0.2,0.1-0.3,0.3-0.3,0.5h-0.7c0-0.2,0.1-0.4,0.2-0.6c0.1-0.2,0.3-0.3,0.6-0.5s0.5-0.2,0.8-0.2c0.5,0,0.8,0.1,1.1,0.4
			c0.3,0.2,0.4,0.6,0.4,1V77c0,0.4,0,0.7,0.1,0.9V78H67z M65.8,77.4c0.2,0,0.4-0.1,0.6-0.2c0.2-0.1,0.3-0.3,0.4-0.4V76h-0.6
			c-0.9,0-1.3,0.3-1.3,0.8c0,0.2,0.1,0.4,0.2,0.5C65.4,77.4,65.6,77.4,65.8,77.4z"/>
		<path class="st2" d="M70.7,74.5c-0.1,0-0.2,0-0.3,0c-0.5,0-0.8,0.2-0.9,0.6V78h-0.7v-4.1h0.7l0,0.5c0.2-0.4,0.6-0.5,1-0.5
			c0.1,0,0.2,0,0.3,0.1V74.5z"/>
		<path class="st2" d="M71.3,72.8c0-0.1,0-0.2,0.1-0.3c0.1-0.1,0.2-0.1,0.3-0.1s0.2,0,0.3,0.1c0.1,0.1,0.1,0.2,0.1,0.3
			c0,0.1,0,0.2-0.1,0.3s-0.2,0.1-0.3,0.1s-0.2,0-0.3-0.1C71.4,73,71.3,72.9,71.3,72.8z M72.1,78h-0.7v-4.1h0.7V78z"/>
		<path class="st2" d="M73,75.9c0-0.4,0.1-0.8,0.2-1.1s0.4-0.6,0.7-0.7s0.6-0.3,1-0.3c0.6,0,1,0.2,1.4,0.6c0.3,0.4,0.5,0.9,0.5,1.5
			v0c0,0.4-0.1,0.8-0.2,1.1c-0.2,0.3-0.4,0.6-0.7,0.7c-0.3,0.2-0.6,0.3-1,0.3c-0.6,0-1-0.2-1.4-0.6C73.2,77.1,73,76.6,73,75.9
			L73,75.9z M73.7,76c0,0.5,0.1,0.8,0.3,1.1c0.2,0.3,0.5,0.4,0.8,0.4c0.4,0,0.6-0.1,0.9-0.4c0.2-0.3,0.3-0.7,0.3-1.2
			c0-0.5-0.1-0.8-0.3-1.1c-0.2-0.3-0.5-0.4-0.9-0.4c-0.3,0-0.6,0.1-0.8,0.4C73.8,75.1,73.7,75.5,73.7,76z"/>
		<path class="st2" d="M80,76.9c0-0.2-0.1-0.3-0.2-0.4c-0.1-0.1-0.4-0.2-0.7-0.3c-0.4-0.1-0.6-0.2-0.8-0.3c-0.2-0.1-0.4-0.2-0.5-0.4
			c-0.1-0.1-0.1-0.3-0.1-0.5c0-0.3,0.1-0.6,0.4-0.9c0.3-0.2,0.6-0.3,1.1-0.3c0.5,0,0.8,0.1,1.1,0.4s0.4,0.5,0.4,0.9H80
			c0-0.2-0.1-0.4-0.2-0.5c-0.2-0.1-0.4-0.2-0.6-0.2c-0.3,0-0.5,0.1-0.6,0.2c-0.1,0.1-0.2,0.3-0.2,0.4c0,0.2,0.1,0.3,0.2,0.4
			c0.1,0.1,0.4,0.2,0.7,0.2c0.4,0.1,0.6,0.2,0.9,0.3c0.2,0.1,0.4,0.2,0.5,0.4s0.2,0.3,0.2,0.6c0,0.4-0.1,0.7-0.4,0.9
			c-0.3,0.2-0.7,0.3-1.1,0.3c-0.3,0-0.6-0.1-0.9-0.2c-0.3-0.1-0.5-0.3-0.6-0.5c-0.1-0.2-0.2-0.4-0.2-0.7h0.7c0,0.2,0.1,0.4,0.3,0.6
			s0.4,0.2,0.7,0.2c0.3,0,0.5-0.1,0.6-0.2S80,77.1,80,76.9z"/>
	</g>
	<g>
		<rect x="48.9" y="44.3" class="st3" width="15.6" height="4"/>
		<polygon class="st3" points="23.3,24.6 32.2,24.9 43.9,24.4 44,23.1 43.6,21.9 40.7,16.6 36.2,13.8 31.9,13.8 29.2,14.6 26,17.7 
			24.6,20.2 24.3,23.5 		"/>
		<g>
			<path class="st2" d="M33.9,34.6c-5.3,0-9.5-4.3-9.5-9.5H26c0,4.4,3.6,7.9,7.9,7.9c4.4,0,7.9-3.5,7.9-7.9h1.6
				C43.4,30.3,39.2,34.6,33.9,34.6z"/>
		</g>
		<g>
			<path class="st2" d="M24.3,26c-0.5,0-1-0.2-1.4-0.6c-0.4-0.4-0.6-0.9-0.6-1.4c0-0.8,0.4-1.5,1.1-1.9c0.6-5.3,5.1-9.4,10.4-9.4
				c5.3,0,9.6,3.9,10.4,9.1c0.5,0.4,0.9,1,0.9,1.6c0,0.5-0.2,1.1-0.6,1.5c-0.4,0.4-0.9,0.6-1.4,0.6L24.3,26C24.3,26,24.3,26,24.3,26
				z M33.8,14.3c-4.7,0-8.6,3.7-8.8,8.5c0,0.4-0.3,0.7-0.7,0.8c-0.2,0-0.4,0.2-0.4,0.4c0,0.2,0.1,0.3,0.1,0.3c0,0,0.2,0.1,0.3,0.1
				l18.8-0.4c0.2,0,0.2-0.1,0.3-0.1c0.1-0.1,0.1-0.2,0.1-0.3c0-0.2-0.2-0.3-0.3-0.4c-0.3-0.1-0.5-0.4-0.6-0.7
				C42.2,17.8,38.4,14.3,33.8,14.3z"/>
		</g>
		<g>
			<g>
				<path class="st2" d="M57,34.2c-0.3,0-0.6,0-0.9,0c-5.2-0.5-9.1-5.1-8.6-10.4l1.6,0.1c-0.4,4.3,2.8,8.2,7.2,8.6
					c2.1,0.2,4.2-0.4,5.8-1.8c1.6-1.4,2.6-3.3,2.8-5.4l1.6,0.1c-0.2,2.5-1.4,4.8-3.4,6.4C61.4,33.4,59.2,34.2,57,34.2z"/>
			</g>
			<g>
				<path class="st2" d="M66.3,26c0,0-0.1,0-0.1,0l-18.7-1.3c-0.5,0-1-0.3-1.4-0.7c-0.4-0.4-0.5-0.9-0.5-1.5
					c0.1-0.8,0.6-1.5,1.3-1.7c1.1-5.3,5.9-8.9,11.2-8.4c5.2,0.5,9.2,4.8,9.5,10.1c0.5,0.4,0.8,1,0.8,1.7c0,0.5-0.3,1-0.7,1.4
					C67.2,25.8,66.7,26,66.3,26z M57.1,13.9c-4.3,0-8.1,3.2-8.8,7.7c-0.1,0.4-0.4,0.7-0.8,0.7c-0.2,0-0.4,0.2-0.4,0.4
					c0,0.2,0.1,0.3,0.1,0.3c0,0,0.1,0.1,0.3,0.1l18.7,1.3c0.2,0,0.3-0.1,0.3-0.1c0.1-0.1,0.1-0.2,0.1-0.3c0-0.2-0.1-0.3-0.3-0.4
					c-0.3-0.1-0.5-0.4-0.5-0.7c0-4.7-3.5-8.5-8-8.9C57.6,13.9,57.3,13.9,57.1,13.9z"/>
			</g>
		</g>
		<g>
			<path class="st2" d="M71.3,49.4H19.1c-0.4,0-0.8-0.4-0.8-0.8c0-0.4,0.4-0.8,0.8-0.8h52.2c0.4,0,0.8,0.4,0.8,0.8
				C72.1,49,71.7,49.4,71.3,49.4z"/>
		</g>
		<g>
			<path class="st2" d="M46.8,49.4c-0.4,0-0.7-0.3-0.8-0.7l-1.1-8.1c-0.8-2.5-5.1-3.6-7.1-4l-2.9,3.2c-0.2,0.2-0.4,0.3-0.7,0.3
				c-0.3,0-0.5-0.2-0.6-0.4c-0.1-0.1-0.7-0.8-3-2.8c-5.7,0.3-7.1,3.7-7.3,4.2l-0.7,7.2c0,0.4-0.4,0.8-0.9,0.7
				c-0.4,0-0.8-0.4-0.7-0.9l0.8-7.3c0-0.1,0-0.1,0-0.2c0.1-0.2,1.7-5.2,9.2-5.4c0.2,0,0.4,0.1,0.6,0.2c1.5,1.3,2.3,2.1,2.8,2.6
				l2.6-2.9c0.2-0.2,0.4-0.3,0.7-0.3c0.3,0,7.5,1,8.9,5.2c0,0,0,0.1,0,0.1l1.1,8.2c0.1,0.4-0.2,0.8-0.7,0.9
				C46.8,49.4,46.8,49.4,46.8,49.4z"/>
		</g>
		<g>
			<path class="st2" d="M42.2,48.8c-0.4,0-0.8-0.4-0.8-0.8v-4.6H27V48c0,0.4-0.4,0.8-0.8,0.8s-0.8-0.4-0.8-0.8v-5.4
				c0-0.4,0.4-0.8,0.8-0.8h15.9c0.4,0,0.8,0.4,0.8,0.8V48C43,48.4,42.6,48.8,42.2,48.8z"/>
		</g>
		<g>
			<path class="st2" d="M27.4,43.2c-0.4,0-0.8-0.4-0.8-0.8V37c0-0.4,0.4-0.8,0.8-0.8s0.8,0.4,0.8,0.8v5.3
				C28.2,42.8,27.8,43.2,27.4,43.2z"/>
		</g>
		<g>
			<path class="st2" d="M30.1,43.3c-0.4,0-0.8-0.4-0.8-0.8v-6.2c0-0.4,0.4-0.8,0.8-0.8s0.8,0.4,0.8,0.8v6.2
				C30.9,42.9,30.6,43.3,30.1,43.3z"/>
		</g>
		<g>
			<path class="st2" d="M40.7,43.2c-0.4,0-0.8-0.4-0.8-0.8V37c0-0.4,0.4-0.8,0.8-0.8c0.4,0,0.8,0.4,0.8,0.8v5.3
				C41.6,42.8,41.2,43.2,40.7,43.2z"/>
		</g>
		<g>
			<path class="st2" d="M38.4,43.3c-0.4,0-0.8-0.4-0.8-0.8v-6.2c0-0.4,0.4-0.8,0.8-0.8c0.4,0,0.8,0.4,0.8,0.8v6.2
				C39.2,42.9,38.8,43.3,38.4,43.3z"/>
		</g>
		<g>
			<path class="st2" d="M69.1,48.9c-0.4,0-0.7-0.3-0.8-0.7l-1.1-8.1c-0.8-2.5-5.1-3.6-7.1-4l-2.9,3.2c-0.2,0.2-0.4,0.3-0.7,0.3
				c-0.3,0-0.5-0.2-0.6-0.4c-0.1-0.1-0.7-0.8-3-2.8c-4.2,0.2-6.1,2.2-6.9,3.4c-0.2,0.4-0.7,0.5-1.1,0.2c-0.4-0.2-0.5-0.7-0.2-1.1
				c0.9-1.5,3.3-4,8.5-4.1c0.2,0,0.4,0.1,0.6,0.2c1.5,1.3,2.3,2.1,2.8,2.6l2.6-2.9c0.2-0.2,0.4-0.3,0.7-0.3c0.3,0,7.5,1,8.9,5.2
				c0,0,0,0.1,0,0.1l1.1,8.2c0.1,0.4-0.2,0.8-0.7,0.9C69.2,48.9,69.2,48.9,69.1,48.9z"/>
		</g>
		<g>
			<path class="st2" d="M64.5,48.3c-0.4,0-0.8-0.4-0.8-0.8v-2.8H49.4v2.8c0,0.4-0.4,0.8-0.8,0.8c-0.4,0-0.8-0.4-0.8-0.8v-3.6
				c0-0.4,0.4-0.8,0.8-0.8h15.9c0.4,0,0.8,0.4,0.8,0.8v3.6C65.3,48,65,48.3,64.5,48.3z"/>
		</g>
		<g>
			<path class="st2" d="M49.8,44.5c-0.4,0-0.8-0.4-0.8-0.8v-7.1c0-0.4,0.4-0.8,0.8-0.8c0.4,0,0.8,0.4,0.8,0.8v7.1
				C50.6,44.2,50.2,44.5,49.8,44.5z"/>
		</g>
		<g>
			<path class="st2" d="M52.4,44.7c-0.4,0-0.8-0.4-0.8-0.8v-8c0-0.4,0.4-0.8,0.8-0.8c0.4,0,0.8,0.4,0.8,0.8v8
				C53.2,44.3,52.8,44.7,52.4,44.7z"/>
		</g>
		<g>
			<path class="st2" d="M63.6,44.5c-0.4,0-0.8-0.4-0.8-0.8v-7.1c0-0.4,0.4-0.8,0.8-0.8c0.4,0,0.8,0.4,0.8,0.8v7.1
				C64.4,44.2,64.1,44.5,63.6,44.5z"/>
		</g>
		<g>
			<path class="st2" d="M60.9,44.7c-0.4,0-0.8-0.4-0.8-0.8v-8c0-0.4,0.4-0.8,0.8-0.8c0.4,0,0.8,0.4,0.8,0.8v8
				C61.7,44.3,61.3,44.7,60.9,44.7z"/>
		</g>
	</g>
</g>
</svg>
