<?xml version="1.0" standalone="no"?>
<!DOCTYPE svg PUBLIC "-//W3C//DTD SVG 20010904//EN"
 "http://www.w3.org/TR/2001/REC-SVG-20010904/DTD/svg10.dtd">
<svg version="1.0" xmlns="http://www.w3.org/2000/svg" viewBox="0 0 500.000000 500.000000" preserveAspectRatio="xMidYMid meet">

<g transform="translate(0.000000,500.000000) scale(0.100000,-0.100000)"
fill="#ffffff" stroke="none">
<path d="M2405 4126 c-23 -14 -51 -43 -65 -68 l-25 -43 -2 -705 c-2 -388 -3
-707 -3 -710 0 -3 -96 91 -212 207 -117 117 -226 217 -241 223 -143 53 -286
-75 -247 -221 10 -39 53 -85 388 -423 386 -387 420 -416 492 -416 73 0 106 29
502 426 344 347 388 394 398 433 39 146 -104 274 -247 221 -15 -6 -124 -106
-240 -223 -117 -116 -213 -210 -213 -207 0 3 -1 318 -3 700 l-2 695 -27 45
c-51 88 -166 118 -253 66z"/>
<path d="M1092 2139 c-26 -13 -55 -39 -70 -62 l-27 -40 -3 -271 c-4 -323 5
-382 75 -526 39 -81 59 -108 137 -185 74 -74 107 -99 176 -132 157 -76 108
-73 1120 -73 1009 0 964 -3 1115 71 142 69 248 177 320 324 66 134 75 196 75
506 0 247 -1 265 -21 307 -61 124 -240 135 -317 19 l-27 -40 -5 -286 c-5 -278
-6 -287 -30 -336 -36 -74 -114 -148 -183 -173 -57 -22 -62 -22 -927 -22 -852
0 -870 0 -924 21 -72 27 -145 93 -181 166 l-30 58 -5 286 -5 286 -27 40 c-51
77 -152 103 -236 62z"/>
</g>
</svg>
